<?xml version="1.0" encoding="UTF-8" standalone="no"?>
<!-- Created with Inkscape (http://www.inkscape.org/) -->

<svg
   width="300mm"
   height="300mm"
   viewBox="0 0 300 300"
   version="1.1"
   id="svg9486"
   inkscape:version="1.2.2 (732a01da63, 2022-12-09)"
   sodipodi:docname="anchor.svg"
   inkscape:export-filename="anchor.png"
   inkscape:export-xdpi="25.38308"
   inkscape:export-ydpi="25.38308"
   xmlns:inkscape="http://www.inkscape.org/namespaces/inkscape"
   xmlns:sodipodi="http://sodipodi.sourceforge.net/DTD/sodipodi-0.dtd"
   xmlns="http://www.w3.org/2000/svg"
   xmlns:svg="http://www.w3.org/2000/svg">
  <sodipodi:namedview
     id="namedview9488"
     pagecolor="#ffffff"
     bordercolor="#000000"
     borderopacity="0.25"
     inkscape:showpageshadow="2"
     inkscape:pageopacity="0.0"
     inkscape:pagecheckerboard="0"
     inkscape:deskcolor="#d1d1d1"
     inkscape:document-units="mm"
     showgrid="false"
     inkscape:zoom="0.36925856"
     inkscape:cx="311.43489"
     inkscape:cy="525.37713"
     inkscape:window-width="1920"
     inkscape:window-height="1009"
     inkscape:window-x="-8"
     inkscape:window-y="-8"
     inkscape:window-maximized="1"
     inkscape:current-layer="layer1" />
  <defs
     id="defs9483" />
  <g
     inkscape:label="Layer 1"
     inkscape:groupmode="layer"
     id="layer1">
    <g
       id="g22525">
      <rect
         style="fill:#000000;fill-opacity:1;stroke:#000000;stroke-width:0.2"
         id="rect9607"
         width="300"
         height="300"
         x="0.31479841"
         y="0.46319574" />
    </g>
    <g
       id="g22535"
       transform="matrix(0.89930541,0,0,0.94545856,15.156308,8.1812864)">
      <path
         style="fill:#ffffff;fill-opacity:1;stroke:none;stroke-width:0.191899"
         id="path19623"
         sodipodi:type="arc"
         sodipodi:cx="150"
         sodipodi:cy="190.09595"
         sodipodi:rx="89.904053"
         sodipodi:ry="49.807442"
         sodipodi:start="0"
         sodipodi:end="3.1415927"
         sodipodi:arc-type="chord"
         d="m 239.90405,190.09595 a 89.904053,49.807442 0 0 1 -44.95202,43.13451 89.904053,49.807442 0 0 1 -89.90406,0 89.904053,49.807442 0 0 1 -44.952023,-43.13451 z"
         sodipodi:open="true" />
      <path
         style="fill:#ffffff;fill-opacity:1;stroke:none;stroke-width:0.191617"
         id="path19623-9"
         sodipodi:type="arc"
         sodipodi:cx="-149.86066"
         sodipodi:cy="-110.00219"
         sodipodi:rx="89.904243"
         sodipodi:ry="49.660378"
         sodipodi:start="0"
         sodipodi:end="3.1415927"
         sodipodi:arc-type="chord"
         d="m -59.956413,-110.00219 a 89.904243,49.660378 0 0 1 -44.952127,43.007149 89.904243,49.660378 0 0 1 -89.90424,-10e-7 89.904243,49.660378 0 0 1 -44.95212,-43.007148 z"
         sodipodi:open="true"
         transform="matrix(-0.99999866,0.00163542,-0.00126805,-0.9999992,0,0)" />
      <circle
         style="fill:#ffffff;fill-opacity:1;stroke:#000000;stroke-width:0.138724"
         id="path19647"
         cx="150"
         cy="150"
         r="14.930638" />
      <rect
         style="fill:#ffffff;fill-opacity:1;stroke:none;stroke-width:0.174959"
         id="rect19651"
         width="19.825041"
         height="149.82504"
         x="140.08748"
         y="75.087479" />
      <path
         style="fill:#000000;fill-opacity:1;stroke:none;stroke-width:0.0725218"
         d="m 73.38971,199.09771 c 0,0 16.627961,25.55644 48.77415,25.7234 32.14617,0.16694 17.93289,0.10028 17.93289,0.10028 l 0.12179,-52.34143 C 108.67598,183.79344 19.328017,57.512093 60.8363,195.02369 c 0,0 -0.047,-2.87177 3.135989,-4.14473 3.761332,-1.50426 4.554384,1.21586 4.554384,1.21586 z"
         id="path19653"
         sodipodi:nodetypes="cscccscc" />
      <path
         style="fill:#000000;fill-opacity:1;stroke:none;stroke-width:0.0725218"
         d="m 226.58962,199.16638 c 0,0 -16.62796,25.55644 -48.77415,25.7234 -32.14617,0.16694 -17.93289,0.10028 -17.93289,0.10028 l -0.12179,-52.34143 c 31.54256,11.21348 120.89052,-115.067856 79.38224,22.44373 0,0 0.047,-2.87177 -3.13599,-4.14473 -3.76133,-1.50426 -4.55439,1.21586 -4.55439,1.21586 z"
         id="path19653-1"
         sodipodi:nodetypes="cscccscc" />
      <path
         style="fill:#000000;fill-opacity:1;stroke:none;stroke-width:0.0725218"
         d="m 73.215776,100.91857 c 0,0 16.627961,-25.556446 48.774154,-25.723406 32.14617,-0.16694 17.93289,-0.10028 17.93289,-0.10028 l 0.12179,52.341436 C 108.50205,116.22284 19.154084,242.50418 60.662366,104.99259 c 0,0 -0.047,2.87177 3.135989,4.14473 3.761332,1.50426 4.554384,-1.21586 4.554384,-1.21586 z"
         id="path19653-9"
         sodipodi:nodetypes="cscccscc" />
      <path
         style="fill:#000000;fill-opacity:1;stroke:none;stroke-width:0.0725218"
         d="m 226.66831,100.81363 c 0,0 -16.62796,-25.55644 -48.77415,-25.7234 -32.14617,-0.16694 -17.93289,-0.10028 -17.93289,-0.10028 l -0.12179,52.34143 c 31.54256,-11.21348 120.89053,115.06786 79.38224,-22.44373 0,0 0.047,2.87177 -3.13599,4.14473 -3.76133,1.50426 -4.55438,-1.21586 -4.55438,-1.21586 z"
         id="path19653-9-6"
         sodipodi:nodetypes="cscccscc" />
    </g>
  </g>
</svg>
