<?xml version="1.0" encoding="UTF-8" standalone="no"?>
<!-- Created with Inkscape (http://www.inkscape.org/) -->

<svg
   width="600mm"
   height="300mm"
   viewBox="0 0 600 300"
   version="1.1"
   id="svg23273"
   inkscape:version="1.2.2 (732a01da63, 2022-12-09)"
   sodipodi:docname="chaos.svg"
   xmlns:inkscape="http://www.inkscape.org/namespaces/inkscape"
   xmlns:sodipodi="http://sodipodi.sourceforge.net/DTD/sodipodi-0.dtd"
   xmlns="http://www.w3.org/2000/svg"
   xmlns:svg="http://www.w3.org/2000/svg">
  <sodipodi:namedview
     id="namedview23275"
     pagecolor="#ffffff"
     bordercolor="#000000"
     borderopacity="0.25"
     inkscape:showpageshadow="2"
     inkscape:pageopacity="0.0"
     inkscape:pagecheckerboard="0"
     inkscape:deskcolor="#d1d1d1"
     inkscape:document-units="mm"
     showgrid="false"
     inkscape:zoom="0.52221046"
     inkscape:cx="982.36255"
     inkscape:cy="555.33166"
     inkscape:window-width="1920"
     inkscape:window-height="1009"
     inkscape:window-x="-8"
     inkscape:window-y="-8"
     inkscape:window-maximized="1"
     inkscape:current-layer="layer1" />
  <defs
     id="defs23270" />
  <g
     inkscape:label="Layer 1"
     inkscape:groupmode="layer"
     id="layer1">
    <rect
       style="fill:#000000;stroke-width:0.2"
       id="rect23394"
       width="600"
       height="300"
       x="-3.5466225"
       y="0.50666034" />
    <rect
       style="fill:#ffffff;fill-opacity:1;stroke-width:0.2"
       id="rect23396"
       width="17.733112"
       height="20.266415"
       x="-2.2319193e-06"
       y="71.43911" />
    <rect
       style="fill:#ffffff;fill-opacity:1;stroke-width:0.2"
       id="rect24853"
       width="34.95956"
       height="19.759754"
       x="-0.50665885"
       y="25.333019" />
    <rect
       style="fill:#ffffff;fill-opacity:1;stroke-width:0.2"
       id="rect24855"
       width="24.826357"
       height="51.679356"
       x="1.9737849e-06"
       y="141.8649" />
    <rect
       style="fill:#ffffff;fill-opacity:1;stroke-width:0.2"
       id="rect24857"
       width="86.638924"
       height="10.639868"
       x="15.199808"
       y="178.8511" />
    <rect
       style="fill:#ffffff;fill-opacity:1;stroke-width:0.2"
       id="rect24859"
       width="13.67983"
       height="56.2393"
       x="-51.15699"
       y="129.71431"
       transform="rotate(-71.134263)" />
    <rect
       style="fill:#ffffff;fill-opacity:1;stroke-width:0.2"
       id="rect24861"
       width="18.239773"
       height="22.799717"
       x="28.879641"
       y="232.5571" />
    <rect
       style="fill:#ffffff;fill-opacity:1;stroke-width:0.2"
       id="rect24863"
       width="18.746433"
       height="16.719791"
       x="97.785431"
       y="10.639869" />
    <rect
       style="fill:#ffffff;fill-opacity:1;stroke-width:0.2"
       id="rect24865"
       width="39.012848"
       height="50.159374"
       x="105.89202"
       y="20.773067" />
    <rect
       style="fill:#ffffff;fill-opacity:1;stroke-width:0.216806"
       id="rect24867"
       width="70.425781"
       height="53.199337"
       x="75.817863"
       y="-275.73911"
       transform="rotate(124.5777)" />
    <rect
       style="fill:#ffffff;fill-opacity:1;stroke-width:0.2"
       id="rect24869"
       width="37.492867"
       height="33.439587"
       x="159.59799"
       y="6.0799093" />
    <rect
       style="fill:#ffffff;fill-opacity:1;stroke-width:0.25937"
       id="rect24871"
       width="56.239304"
       height="31.412943"
       x="232.55707"
       y="-2.0266416" />
    <rect
       style="fill:#ffffff;fill-opacity:1;stroke-width:0.2"
       id="rect24873"
       width="34.452904"
       height="30.39962"
       x="240.66367"
       y="67.385826" />
    <rect
       style="fill:#ffffff;fill-opacity:1;stroke-width:0.2"
       id="rect24875"
       width="37.492867"
       height="32.932922"
       x="5.5732656"
       y="200.6375" />
    <rect
       style="fill:#ffffff;fill-opacity:1;stroke-width:0.123476"
       id="rect24877"
       width="21.786392"
       height="21.786396"
       x="12.159842"
       y="126.15842" />
    <rect
       style="fill:#ffffff;fill-opacity:1;stroke-width:0.2"
       id="rect24879"
       width="51.172695"
       height="24.826357"
       x="31.919596"
       y="269.03665" />
    <rect
       style="fill:#ffffff;fill-opacity:1;stroke-width:0.2"
       id="rect24881"
       width="45.09277"
       height="23.813036"
       x="143.38487"
       y="134.26498" />
    <rect
       style="fill:#ffffff;fill-opacity:1;stroke-width:0.2"
       id="rect24883"
       width="17.733112"
       height="17.226452"
       x="120.58514"
       y="107.41199" />
    <ellipse
       style="fill:#ffffff;fill-opacity:1;stroke-width:0.2"
       id="path24885"
       cx="16.71979"
       cy="281.44983"
       rx="17.733112"
       ry="25.079687" />
    <ellipse
       style="fill:#ffffff;fill-opacity:1;stroke-width:0.190451"
       id="path24887"
       cx="-50.561882"
       cy="90.316849"
       rx="23.306376"
       ry="8.8665552"
       transform="rotate(-36.83596)" />
    <ellipse
       style="fill:#ffffff;fill-opacity:1;stroke-width:0.2"
       id="path24889"
       cx="79.54567"
       cy="50.666035"
       rx="16.213131"
       ry="12.159848" />
    <ellipse
       style="fill:#ffffff;fill-opacity:1;stroke-width:0.2"
       id="path24891"
       cx="169.47789"
       cy="278.15652"
       rx="28.626307"
       ry="19.759754" />
    <ellipse
       style="fill:#ffffff;fill-opacity:1;stroke-width:0.2"
       id="path24893"
       cx="80.305656"
       cy="212.29068"
       rx="4.306613"
       ry="12.666508" />
    <ellipse
       style="fill:#ffffff;fill-opacity:1;stroke-width:0.2"
       id="path24895"
       cx="207.73074"
       cy="35.972897"
       rx="20.266415"
       ry="12.666508" />
    <ellipse
       style="fill:#ffffff;fill-opacity:1;stroke-width:0.2"
       id="path24897"
       cx="254.85013"
       cy="111.7186"
       rx="14.69315"
       ry="19.506424" />
    <ellipse
       style="fill:#ffffff;fill-opacity:1;stroke-width:0.2"
       id="path24899"
       cx="235.85042"
       cy="65.359184"
       rx="11.906518"
       ry="15.706471" />
    <ellipse
       style="fill:#ffffff;fill-opacity:1;stroke-width:0.2"
       id="path24901"
       cx="192.78426"
       cy="241.93031"
       rx="15.959801"
       ry="12.413178" />
    <ellipse
       style="fill:#ffffff;fill-opacity:1;stroke-width:0.2"
       id="path24903"
       cx="182.39771"
       cy="113.23859"
       rx="11.146527"
       ry="8.8665562" />
    <path
       sodipodi:type="star"
       style="fill:#ffffff;fill-opacity:1;stroke-width:0.2"
       id="path24905"
       inkscape:flatsided="true"
       sodipodi:sides="5"
       sodipodi:cx="121.59848"
       sodipodi:cy="119.57184"
       sodipodi:r1="63.38319"
       sodipodi:r2="61.998112"
       sodipodi:arg1="0.60352242"
       sodipodi:arg2="1.231841"
       inkscape:rounded="0.05"
       inkscape:randomized="0"
       d="m 173.7845,155.54472 c -2.11444,3.06742 -66.70122,25.83826 -70.2719,24.7752 -3.570683,-1.06306 -45.185455,-55.45216 -45.277825,-59.17659 -0.09237,-3.72442 38.775067,-60.109578 42.288665,-61.348338 3.51359,-1.23876 69.14976,18.302399 71.41365,21.261228 2.26389,2.958829 3.96184,71.42109 1.84741,74.4885 z"
       inkscape:transform-center-x="0.30252276"
       inkscape:transform-center-y="-0.12319186"
       transform="matrix(0.60429041,0,0,0.76896934,10.377477,36.601158)" />
    <path
       sodipodi:type="star"
       style="fill:#ffffff;fill-opacity:1;stroke-width:0.2"
       id="path24907"
       inkscape:flatsided="true"
       sodipodi:sides="5"
       sodipodi:cx="213.304"
       sodipodi:cy="155.54472"
       sodipodi:r1="57.201035"
       sodipodi:r2="55.951054"
       sodipodi:arg1="0.57080528"
       sodipodi:arg2="1.1991238"
       inkscape:rounded="0.05"
       inkscape:randomized="0"
       d="m 261.43674,186.45101 c -1.81663,2.82917 -59.40046,25.27468 -62.65253,24.42123 -3.25207,-0.85345 -42.3934,-48.68288 -42.58667,-52.03951 -0.19326,-3.35664 33.19989,-55.36236 36.33252,-56.58342 3.13262,-1.22107 62.91206,14.46705 65.04139,17.06903 2.12934,2.60197 5.68191,64.30349 3.86529,67.13267 z"
       inkscape:transform-center-x="0.27376157"
       inkscape:transform-center-y="-0.33200441"
       transform="translate(-0.50665981,25.839678)" />
    <path
       sodipodi:type="star"
       style="fill:#ffffff;fill-opacity:1;stroke-width:0.2"
       id="path24909"
       inkscape:flatsided="true"
       sodipodi:sides="3"
       sodipodi:cx="281.1965"
       sodipodi:cy="169.22455"
       sodipodi:r1="40.892231"
       sodipodi:r2="39.998634"
       sodipodi:arg1="0.59143902"
       sodipodi:arg2="1.6386366"
       inkscape:rounded="0.05"
       inkscape:randomized="0"
       d="m 315.14275,192.02426 c -1.97452,2.93984 -69.10579,-1.62137 -70.6645,-4.80126 -1.55871,-3.17989 35.95704,-59.03668 39.49026,-58.79662 3.53323,0.24006 33.14875,60.65805 31.17424,63.59788 z"
       inkscape:transform-center-x="0.27800935"
       inkscape:transform-center-y="-0.15336889"
       transform="translate(-151.9981,27.866319)" />
    <path
       sodipodi:type="star"
       style="fill:#ffffff;fill-opacity:1;stroke-width:0.2"
       id="path24911"
       inkscape:flatsided="true"
       sodipodi:sides="3"
       sodipodi:cx="305.5162"
       sodipodi:cy="84.612274"
       sodipodi:r1="28.141321"
       sodipodi:r2="14.070661"
       sodipodi:arg1="0.40725585"
       sodipodi:arg2="1.4544534"
       inkscape:rounded="0.05"
       inkscape:randomized="0"
       d="m 331.35588,95.758801 c -0.96532,2.237782 -46.95737,7.612909 -48.41269,5.658029 -1.45532,-1.954883 16.88572,-44.472735 19.30635,-44.755636 2.42064,-0.282901 30.07166,36.859826 29.10634,39.097607 z"
       inkscape:transform-center-x="-1.3365235"
       inkscape:transform-center-y="-3.3186375"
       transform="matrix(0.83292145,0,0,0.61869398,-219.24332,9.9514534)" />
    <path
       sodipodi:type="star"
       style="fill:#ffffff;fill-opacity:1;stroke-width:0.2"
       id="path24913"
       inkscape:flatsided="true"
       sodipodi:sides="3"
       sodipodi:cx="357.19553"
       sodipodi:cy="87.145576"
       sodipodi:r1="34.679413"
       sodipodi:r2="17.339706"
       sodipodi:arg1="0.43750977"
       sodipodi:arg2="1.4847073"
       inkscape:rounded="0.05"
       inkscape:randomized="0"
       d="m 388.60847,101.83873 c -1.27246,2.72044 -58.12432,7.62688 -59.84406,5.16468 -1.71974,-2.46221 22.45708,-54.150582 25.44929,-54.408816 2.9922,-0.258234 35.66723,46.523693 34.39477,49.244136 z"
       inkscape:transform-center-x="-1.4652815"
       inkscape:transform-center-y="-7.0116212"
       transform="translate(-177.83779,-5.5732637)" />
    <path
       sodipodi:type="star"
       style="fill:#ffffff;fill-opacity:1;stroke-width:0.2"
       id="path24915"
       inkscape:flatsided="true"
       sodipodi:sides="3"
       sodipodi:cx="437.24789"
       sodipodi:cy="107.91865"
       sodipodi:r1="29.233028"
       sodipodi:r2="14.616514"
       sodipodi:arg1="0.44814498"
       sodipodi:arg2="1.4953425"
       inkscape:rounded="0.05"
       inkscape:randomized="0"
       d="m 463.59423,120.58516 c -1.09695,2.28166 -49.06152,5.90765 -50.48902,3.81683 -1.4275,-2.09082 19.41458,-45.442353 21.93903,-45.633194 2.52445,-0.190842 29.64694,39.534704 28.54999,41.816364 z"
       inkscape:transform-center-x="-1.0829964"
       inkscape:transform-center-y="-6.0204609"
       transform="translate(-232.05044,-14.69315)" />
    <path
       sodipodi:type="star"
       style="fill:#ffffff;fill-opacity:1;stroke-width:0.2"
       id="path24917"
       inkscape:flatsided="true"
       sodipodi:sides="3"
       sodipodi:cx="522.36682"
       sodipodi:cy="117.03854"
       sodipodi:r1="32.854881"
       sodipodi:r2="16.427441"
       sodipodi:arg1="0.29736515"
       sodipodi:arg2="1.3445627"
       inkscape:rounded="0.05"
       inkscape:randomized="0"
       d="m 553.77976,126.66509 c -0.83368,2.72044 -53.51711,14.8468 -55.45624,12.76458 -1.93913,-2.08221 13.90085,-53.770575 16.67366,-54.408804 2.77282,-0.638229 39.61627,38.923784 38.78258,41.644224 z"
       inkscape:transform-center-x="-3.6097698"
       inkscape:transform-center-y="-4.6975368"
       transform="translate(-289.80972,131.22503)" />
    <path
       sodipodi:type="star"
       style="fill:#ffffff;fill-opacity:1;stroke-width:0.2"
       id="path24919"
       inkscape:flatsided="true"
       sodipodi:sides="5"
       sodipodi:cx="85.625595"
       sodipodi:cy="246.74359"
       sodipodi:r1="22.090624"
       sodipodi:r2="17.871691"
       sodipodi:arg1="0.63891399"
       sodipodi:arg2="1.2672325"
       inkscape:rounded="0.05"
       inkscape:randomized="0"
       d="m 103.35871,259.91676 c -0.7743,1.04233 -23.551128,8.17706 -24.78171,7.76276 -1.230583,-0.41431 -15.054546,-19.8716 -15.040789,-21.16998 0.01376,-1.29839 14.246904,-20.45839 15.485989,-20.84653 1.239086,-0.38814 23.85962,7.22762 24.61166,8.28612 0.75204,1.0585 0.49915,24.9253 -0.27515,25.96763 z"
       inkscape:transform-center-x="1.8147535"
       inkscape:transform-center-y="-0.070822858"
       transform="translate(-30.399621,-230.53045)" />
    <path
       sodipodi:type="star"
       style="fill:#ffffff;fill-opacity:1;stroke-width:0.2"
       id="path24921"
       inkscape:flatsided="true"
       sodipodi:sides="5"
       sodipodi:cx="126.66509"
       sodipodi:cy="263.46338"
       sodipodi:r1="18.828415"
       sodipodi:r2="15.232507"
       sodipodi:arg1="0.4154921"
       sodipodi:arg2="1.0438106"
       inkscape:rounded="0.05"
       inkscape:randomized="0"
       d="m 143.89154,271.06328 c -0.44671,1.01255 -18.03009,11.24388 -19.13112,11.13193 -1.10103,-0.11196 -16.26517,-13.67309 -16.49893,-14.75483 -0.23376,-1.08174 7.97767,-19.69431 8.93422,-20.25091 0.95656,-0.55659 21.19564,1.50134 22.02059,2.23908 0.82494,0.73774 5.12196,20.62219 4.67524,21.63473 z"
       inkscape:transform-center-x="0.57479333"
       inkscape:transform-center-y="1.1822653"
       transform="translate(-50.159374,-27.359659)" />
    <path
       sodipodi:type="star"
       style="fill:#ffffff;fill-opacity:1;stroke-width:0.2"
       id="path24923"
       inkscape:flatsided="true"
       sodipodi:sides="5"
       sodipodi:cx="188.47765"
       sodipodi:cy="273.59656"
       sodipodi:r1="20.348579"
       sodipodi:r2="16.462347"
       sodipodi:arg1="0.32962441"
       sodipodi:arg2="0.95794294"
       inkscape:rounded="0.05"
       inkscape:randomized="0"
       d="m 207.73074,280.18314 c -0.38715,1.13167 -18.37186,13.77806 -19.56778,13.75956 -1.19591,-0.0185 -18.78092,-13.21502 -19.13289,-14.35812 -0.35197,-1.1431 6.7646,-21.94539 7.74299,-22.63337 0.97839,-0.68797 22.96169,-0.34797 23.91833,0.36993 0.95665,0.71791 7.4265,21.73033 7.03935,22.862 z"
       inkscape:transform-center-x="0.095214579"
       inkscape:transform-center-y="1.6630856"
       transform="translate(-88.1589,3.5466224)" />
    <rect
       style="fill:#ffffff;fill-opacity:1;stroke-width:0.2"
       id="rect24925"
       width="39.519508"
       height="31.9196"
       x="311.08945"
       y="182.39774" />
    <rect
       style="fill:#ffffff;fill-opacity:1;stroke-width:0.2"
       id="rect24927"
       width="38.506184"
       height="39.519508"
       x="340.8696"
       y="-138.19214"
       transform="rotate(36.106522)" />
    <rect
       style="fill:#ffffff;fill-opacity:1;stroke-width:0.2"
       id="rect24929"
       width="36.986206"
       height="33.946243"
       x="401.78165"
       y="42.052807" />
    <rect
       style="fill:#ffffff;fill-opacity:1;stroke-width:0.2"
       id="rect24931"
       width="31.412943"
       height="42.559471"
       x="453.96765"
       y="116.02522" />
    <rect
       style="fill:#ffffff;fill-opacity:1;stroke-width:0.2"
       id="rect24933"
       width="67.892487"
       height="10.133207"
       x="455.89539"
       y="258.59769"
       transform="rotate(-21.387049)" />
    <rect
       style="fill:#ffffff;fill-opacity:1;stroke-width:0.2"
       id="rect24935"
       width="19.253092"
       height="28.372978"
       x="330.84921"
       y="20.773073" />
    <rect
       style="fill:#ffffff;fill-opacity:1;stroke-width:0.2"
       id="rect24937"
       width="15.19981"
       height="19.253092"
       x="304.50287"
       y="71.439102" />
    <rect
       style="fill:#ffffff;fill-opacity:1;stroke-width:0.2"
       id="rect24939"
       width="27.359661"
       height="29.892962"
       x="405.83493"
       y="218.87727" />
    <rect
       style="fill:#ffffff;fill-opacity:1;stroke-width:0.2"
       id="rect24941"
       width="34.95956"
       height="47.119411"
       x="495.51379"
       y="199.62418" />
    <rect
       style="fill:#ffffff;fill-opacity:1;stroke-width:0.2"
       id="rect24943"
       width="34.452904"
       height="57.252617"
       x="399.38373"
       y="346.48984"
       transform="rotate(-27.046797)" />
    <rect
       style="fill:#ffffff;fill-opacity:1;stroke-width:0.2"
       id="rect24945"
       width="33.946243"
       height="28.372978"
       x="311.59613"
       y="263.97003" />
    <rect
       style="fill:#ffffff;fill-opacity:1;stroke-width:0.2"
       id="rect24947"
       width="12.666508"
       height="37.492867"
       x="384.04855"
       y="175.30447" />
    <rect
       style="fill:#ffffff;fill-opacity:1;stroke-width:0.2"
       id="rect24949"
       width="25.333015"
       height="31.9196"
       x="185.75977"
       y="248.69046"
       transform="rotate(-27.790351)" />
    <rect
       style="fill:#ffffff;fill-opacity:1;stroke-width:0.2"
       id="rect24951"
       width="11.146527"
       height="55.732635"
       x="144.31598"
       y="312.05746"
       transform="rotate(-27.349877)" />
    <rect
       style="fill:#ffffff;fill-opacity:1;stroke-width:0.2"
       id="rect24953"
       width="43.572788"
       height="10.639868"
       x="401.27499"
       y="120.0785" />
    <rect
       style="fill:#ffffff;fill-opacity:1;stroke-width:0.2"
       id="rect24955"
       width="10.133207"
       height="71.94577"
       x="462.62149"
       y="-138.09868"
       transform="rotate(17.479415)" />
    <ellipse
       style="fill:#ffffff;fill-opacity:1;stroke-width:0.2"
       id="path24957"
       cx="297.91629"
       cy="25.333015"
       rx="6.0799241"
       ry="5.5732636" />
    <ellipse
       style="fill:#ffffff;fill-opacity:1;stroke-width:0.2"
       id="path24959"
       cx="297.15628"
       cy="96.012138"
       rx="11.906518"
       ry="10.386537" />
    <ellipse
       style="fill:#ffffff;fill-opacity:1;stroke-width:0.2"
       id="path24961"
       cx="309.56946"
       cy="173.7845"
       rx="6.5865846"
       ry="27.866318" />
    <ellipse
       style="fill:#ffffff;fill-opacity:1;stroke-width:0.2"
       id="path24963"
       cx="387.0885"
       cy="139.33159"
       rx="24.826357"
       ry="17.226452" />
    <ellipse
       style="fill:#ffffff;fill-opacity:1;stroke-width:0.2"
       id="path24965"
       cx="452.95435"
       cy="178.34444"
       rx="27.359661"
       ry="32.426262" />
    <ellipse
       style="fill:#ffffff;fill-opacity:1;stroke-width:0.2"
       id="path24967"
       cx="394.18176"
       cy="236.35706"
       rx="25.333015"
       ry="10.386537" />
    <ellipse
       style="fill:#ffffff;fill-opacity:1;stroke-width:0.2"
       id="path24969"
       cx="332.11588"
       cy="224.70387"
       rx="8.8665562"
       ry="17.986443" />
    <ellipse
       style="fill:#ffffff;fill-opacity:1;stroke-width:0.2"
       id="path24971"
       cx="356.68887"
       cy="199.11751"
       rx="17.733112"
       ry="7.0932446" />
    <ellipse
       style="fill:#ffffff;fill-opacity:1;stroke-width:0.2"
       id="path24973"
       cx="338.4491"
       cy="56.745956"
       rx="29.892962"
       ry="5.5732636" />
    <ellipse
       style="fill:#ffffff;fill-opacity:1;stroke-width:0.2"
       id="path24975"
       cx="404.5683"
       cy="36.732876"
       rx="11.399858"
       ry="25.079687" />
    <ellipse
       style="fill:#ffffff;fill-opacity:1;stroke-width:0.2"
       id="path24977"
       cx="503.36703"
       cy="43.572788"
       rx="25.586348"
       ry="8.1065655" />
    <ellipse
       style="fill:#ffffff;fill-opacity:1;stroke-width:0.2"
       id="path24979"
       cx="571.25952"
       cy="38.759518"
       rx="8.3598957"
       ry="25.079687" />
    <path
       sodipodi:type="star"
       style="fill:#ffffff;fill-opacity:1;stroke-width:0.2"
       id="path24981"
       inkscape:flatsided="true"
       sodipodi:sides="5"
       sodipodi:cx="400.76834"
       sodipodi:cy="92.718842"
       sodipodi:r1="13.075372"
       sodipodi:r2="10.578198"
       sodipodi:arg1="0.62024949"
       sodipodi:arg2="1.248568"
       inkscape:rounded="0.05"
       inkscape:randomized="0"
       d="m 411.40821,100.31875 c -0.44671,0.62539 -13.84708,5.0993 -14.57991,4.86771 -0.73283,-0.23159 -9.1287,-11.593588 -9.13491,-12.362114 -0.006,-0.768526 8.20523,-12.264529 8.93423,-12.507914 0.729,-0.243386 14.19982,4.013689 14.65656,4.631794 0.45675,0.618106 0.57074,14.745125 0.12403,15.370524 z"
       inkscape:transform-center-x="1.0762459"
       inkscape:transform-center-y="0.031922386" />
    <path
       sodipodi:type="star"
       style="fill:#ffffff;fill-opacity:1;stroke-width:0.2"
       id="path24983"
       inkscape:flatsided="true"
       sodipodi:sides="5"
       sodipodi:cx="363.27545"
       sodipodi:cy="11.653188"
       sodipodi:r1="13.782651"
       sodipodi:r2="11.150399"
       sodipodi:arg1="0.62879629"
       sodipodi:arg2="1.2571148"
       inkscape:rounded="0.05"
       inkscape:randomized="0"
       d="m 374.42198,19.759753 c -0.47649,0.655176 -14.64151,5.250189 -15.41186,4.999478 -0.77036,-0.25071 -9.5177,-12.302504 -9.51732,-13.112628 3.9e-4,-0.810124 8.75925,-12.8535546 9.52984,-13.1035286 0.77059,-0.2499739 14.93121,4.3585711 15.40708,5.0142025 0.47587,0.6556314 0.46875,15.5473001 -0.008,16.2024761 z"
       inkscape:transform-center-x="1.1375526"
       inkscape:transform-center-y="-0.001992586" />
    <path
       sodipodi:type="star"
       style="fill:#ffffff;fill-opacity:1;stroke-width:0.2"
       id="path24985"
       inkscape:flatsided="true"
       sodipodi:sides="5"
       sodipodi:cx="421.03473"
       sodipodi:cy="-8.1065655"
       sodipodi:r1="30.810616"
       sodipodi:r2="24.92631"
       sodipodi:arg1="0.78539816"
       sodipodi:arg2="1.4137167"
       inkscape:rounded="0.05"
       inkscape:randomized="0"
       d="m 442.82112,13.67983 c -1.28057,1.280572 -34.1605,6.488242 -35.77412,5.666064 -1.61361,-0.822178 -16.72686,-30.483595 -16.44356,-32.272302 0.28331,-1.788706 23.82274,-25.32814 25.61145,-25.611443 1.7887,-0.283303 31.45012,14.829944 32.2723,16.443559 0.82218,1.613615 -4.38549,34.493549 -5.66607,35.774122 z"
       inkscape:transform-center-x="1.4476172"
       inkscape:transform-center-y="-1.4476118" />
    <path
       sodipodi:type="star"
       style="fill:#ffffff;fill-opacity:1;stroke-width:0.2"
       id="path24987"
       inkscape:flatsided="true"
       sodipodi:sides="5"
       sodipodi:cx="566.95294"
       sodipodi:cy="97.785446"
       sodipodi:r1="42.299313"
       sodipodi:r2="34.22086"
       sodipodi:arg1="0.75151283"
       sodipodi:arg2="1.3798314"
       inkscape:rounded="0.05"
       inkscape:randomized="0"
       d="m 597.85922,126.66509 c -1.6975,1.81662 -46.56961,10.49133 -48.82188,9.43828 -2.25227,-1.05306 -24.36865,-41.048339 -24.06313,-43.515787 0.30552,-2.467448 31.50896,-35.860599 33.95005,-36.332513 2.4411,-0.471914 43.84226,18.885266 45.04542,21.061055 1.20315,2.175789 -4.41295,47.532335 -6.11046,49.348965 z"
       inkscape:transform-center-x="2.3988352"
       inkscape:transform-center-y="-1.5663089" />
    <path
       sodipodi:type="star"
       style="fill:#ffffff;fill-opacity:1;stroke-width:0.2"
       id="path24989"
       inkscape:flatsided="true"
       sodipodi:sides="5"
       sodipodi:cx="500.07376"
       sodipodi:cy="166.18459"
       sodipodi:r1="8.4325085"
       sodipodi:r2="6.8220429"
       sodipodi:arg1="0.57133748"
       sodipodi:arg2="1.199656"
       inkscape:rounded="0.05"
       inkscape:randomized="0"
       d="m 507.16701,170.74453 c -0.26803,0.41693 -8.75873,3.7213 -9.23808,3.59523 -0.47935,-0.12607 -6.24576,-7.1801 -6.27399,-7.67494 -0.0282,-0.49485 4.89863,-8.15885 5.36053,-8.33861 0.46191,-0.17976 9.27329,2.13765 9.58699,2.5214 0.3137,0.38375 0.83257,9.47999 0.56455,9.89692 z"
       inkscape:transform-center-x="0.62566196"
       inkscape:transform-center-y="0.14519446" />
    <path
       sodipodi:type="star"
       style="fill:#ffffff;fill-opacity:1;stroke-width:0.2"
       id="path24991"
       inkscape:flatsided="true"
       sodipodi:sides="5"
       sodipodi:cx="489.94052"
       sodipodi:cy="93.225502"
       sodipodi:r1="9.3423548"
       sodipodi:r2="7.5581236"
       sodipodi:arg1="0.70862627"
       sodipodi:arg2="1.3369448"
       inkscape:rounded="0.05"
       inkscape:randomized="0"
       d="m 497.03377,99.305426 c -0.35737,0.41693 -10.17671,2.755994 -10.68367,2.544954 -0.50695,-0.21104 -5.76588,-8.826975 -5.72182,-9.374335 0.044,-0.54736 6.61319,-8.211362 7.14738,-8.338609 0.53418,-0.127248 9.85305,3.752073 10.13915,4.220789 0.28609,0.468717 -0.52368,10.53027 -0.88104,10.947201 z"
       inkscape:transform-center-x="0.63909939"
       inkscape:transform-center-y="-0.22640977" />
    <path
       sodipodi:type="star"
       style="fill:#ffffff;fill-opacity:1;stroke-width:0.2"
       id="path24993"
       inkscape:flatsided="true"
       sodipodi:sides="5"
       sodipodi:cx="484.36725"
       sodipodi:cy="17.733112"
       sodipodi:r1="15.542172"
       sodipodi:r2="12.573882"
       sodipodi:arg1="0.33205947"
       sodipodi:arg2="0.960378"
       inkscape:rounded="0.05"
       inkscape:randomized="0"
       d="m 499.0604,22.799716 c -0.29781,0.863641 -14.05795,10.489431 -14.97134,10.473079 -0.9134,-0.01635 -14.32019,-10.128487 -14.58689,-11.002234 -0.26671,-0.873748 5.20758,-16.7491798 5.95615,-17.2728338 0.74856,-0.5236539 17.53864,-0.2230759 18.26799,0.3270358 0.72934,0.5501117 5.6319,16.611311 5.33409,17.474953 z"
       inkscape:transform-center-x="0.084176625"
       inkscape:transform-center-y="1.2661965" />
    <path
       sodipodi:type="star"
       style="fill:#ffffff;fill-opacity:1;stroke-width:0.2"
       id="path24995"
       inkscape:flatsided="true"
       sodipodi:sides="5"
       sodipodi:cx="517.30017"
       sodipodi:cy="32.932922"
       sodipodi:r1="13.075372"
       sodipodi:r2="10.578198"
       sodipodi:arg1="0.62024949"
       sodipodi:arg2="1.248568"
       inkscape:rounded="0.05"
       inkscape:randomized="0"
       d="m 527.94004,40.532828 c -0.44671,0.625396 -13.84708,5.099299 -14.57991,4.86771 -0.73283,-0.23159 -9.1287,-11.593585 -9.13491,-12.362111 -0.006,-0.768526 8.20523,-12.264529 8.93423,-12.507915 0.72899,-0.243385 14.19982,4.013689 14.65656,4.631795 0.45675,0.618105 0.57074,14.745125 0.12403,15.370521 z"
       inkscape:transform-center-x="1.0762473"
       inkscape:transform-center-y="0.031923139" />
    <path
       sodipodi:type="star"
       style="fill:#ffffff;fill-opacity:1;stroke-width:0.2"
       id="path24997"
       inkscape:flatsided="true"
       sodipodi:sides="5"
       sodipodi:cx="467.14084"
       sodipodi:cy="70.932442"
       sodipodi:r1="10.542919"
       sodipodi:r2="8.5293999"
       sodipodi:arg1="0.61466295"
       sodipodi:arg2="1.2429815"
       inkscape:rounded="0.05"
       inkscape:randomized="0"
       d="m 475.75406,77.012366 c -0.35736,0.506273 -11.14201,4.173972 -11.73394,3.990541 -0.59193,-0.183432 -7.41276,-9.306861 -7.42122,-9.9265 -0.008,-0.61964 6.56068,-9.925928 7.14738,-10.125455 0.5867,-0.199527 11.46748,3.1723 11.83854,3.668625 0.37106,0.496325 0.52661,11.886516 0.16924,12.392789 z"
       inkscape:transform-center-x="0.86349943"
       inkscape:transform-center-y="0.0435588" />
    <path
       sodipodi:type="star"
       style="fill:#ffffff;fill-opacity:1;stroke-width:0.2"
       id="path24999"
       inkscape:flatsided="true"
       sodipodi:sides="5"
       sodipodi:cx="342.50238"
       sodipodi:cy="157.57137"
       sodipodi:r1="9.6797323"
       sodipodi:r2="7.8310676"
       sodipodi:arg1="0.74837805"
       sodipodi:arg2="1.3766966"
       inkscape:rounded="0.05"
       inkscape:randomized="0"
       d="m 349.59563,164.15795 c -0.38715,0.41693 -10.64937,2.43422 -11.16553,2.19486 -0.51616,-0.23936 -5.60592,-9.37593 -5.53777,-9.9408 0.0681,-0.56486 7.18472,-8.22887 7.74299,-8.33861 0.55828,-0.10974 10.04632,4.29022 10.32321,4.78726 0.27689,0.49704 -0.97576,10.88036 -1.3629,11.29729 z"
       inkscape:transform-center-x="0.55750081"
       inkscape:transform-center-y="-0.34944113" />
    <path
       sodipodi:type="star"
       style="fill:#ffffff;fill-opacity:1;stroke-width:0.2"
       id="path25001"
       inkscape:flatsided="true"
       sodipodi:sides="5"
       sodipodi:cx="435.72787"
       sodipodi:cy="266.50333"
       sodipodi:r1="13.689209"
       sodipodi:r2="11.074802"
       sodipodi:arg1="0.68052122"
       sodipodi:arg2="1.3088398"
       inkscape:rounded="0.05"
       inkscape:randomized="0"
       d="m 446.36774,275.11655 c -0.50627,0.6254 -14.7924,4.45576 -15.54363,4.16752 -0.75123,-0.28823 -8.80878,-12.6915 -8.7668,-13.49503 0.042,-0.80354 9.34828,-12.29954 10.12546,-12.50792 0.77718,-0.20837 14.58633,5.08997 15.02467,5.76472 0.43834,0.67476 -0.33343,15.44532 -0.8397,16.07071 z"
       inkscape:transform-center-x="1.0307142"
       inkscape:transform-center-y="-0.21599375" />
    <path
       sodipodi:type="star"
       style="fill:#ffffff;fill-opacity:1;stroke-width:0.2"
       id="path25003"
       inkscape:flatsided="true"
       sodipodi:sides="5"
       sodipodi:cx="478.79401"
       sodipodi:cy="277.14322"
       sodipodi:r1="14.614319"
       sodipodi:r2="11.823232"
       sodipodi:arg1="0.5880026"
       sodipodi:arg2="1.2163211"
       inkscape:rounded="0.05"
       inkscape:randomized="0"
       d="m 490.95385,285.24978 c -0.47649,0.71474 -15.28505,6.19551 -16.11205,5.96321 -0.827,-0.23231 -10.61561,-12.62243 -10.65024,-13.48074 -0.0346,-0.85831 8.72424,-13.9966 9.52984,-14.29476 0.8056,-0.29816 16.0075,3.97206 16.54001,4.64609 0.53251,0.67404 1.16894,16.45147 0.69244,17.1662 z"
       inkscape:transform-center-x="1.1374929"
       inkscape:transform-center-y="0.17815853" />
    <path
       sodipodi:type="star"
       style="fill:#ffffff;fill-opacity:1;stroke-width:0.2"
       id="path25005"
       inkscape:flatsided="true"
       sodipodi:sides="5"
       sodipodi:cx="528.44672"
       sodipodi:cy="292.34299"
       sodipodi:r1="22.658539"
       sodipodi:r2="18.331144"
       sodipodi:arg1="0.46364761"
       sodipodi:arg2="1.0919661"
       inkscape:rounded="0.05"
       inkscape:randomized="0"
       d="m 548.71313,302.47619 c -0.59562,1.19123 -22.32402,12.47099 -23.641,12.27263 -1.31698,-0.19835 -18.75911,-17.37765 -18.97744,-18.69147 -0.21832,-1.31382 10.73025,-23.21097 11.9123,-23.8246 1.18205,-0.61363 25.39077,3.03249 26.33964,3.96707 0.94888,0.93457 4.96211,25.08514 4.3665,26.27637 z"
       inkscape:transform-center-x="1.014428"
       inkscape:transform-center-y="1.1145082" />
    <path
       sodipodi:type="star"
       style="fill:#ffffff;fill-opacity:1;stroke-width:0.2"
       id="path25007"
       inkscape:flatsided="true"
       sodipodi:sides="5"
       sodipodi:cx="561.3797"
       sodipodi:cy="237.11705"
       sodipodi:r1="25.459368"
       sodipodi:r2="20.597061"
       sodipodi:arg1="0.82762657"
       sodipodi:arg2="1.4559451"
       inkscape:rounded="0.05"
       inkscape:randomized="0"
       d="m 578.60615,255.86348 c -1.10189,1.01255 -28.42861,4.16493 -29.7321,3.42987 -1.30349,-0.73507 -12.74601,-25.75019 -12.44972,-27.21703 0.29629,-1.46684 20.55115,-20.07941 22.03775,-20.25091 1.48661,-0.17149 25.44732,13.34043 26.0698,14.70128 0.62249,1.36085 -4.82384,28.32425 -5.92573,29.33679 z"
       inkscape:transform-center-x="0.87972989"
       inkscape:transform-center-y="-1.503485" />
    <path
       sodipodi:type="star"
       style="fill:#ffffff;fill-opacity:1;stroke-width:0.2"
       id="path25009"
       inkscape:flatsided="true"
       sodipodi:sides="5"
       sodipodi:cx="454.47433"
       sodipodi:cy="224.45052"
       sodipodi:r1="7.5320473"
       sodipodi:r2="6.0935545"
       sodipodi:arg1="0.73781506"
       sodipodi:arg2="1.3661336"
       inkscape:rounded="0.05"
       inkscape:randomized="0"
       d="m 460.0476,229.51712 c -0.29781,0.32759 -8.26608,1.98155 -8.66966,1.79955 -0.40358,-0.182 -4.43892,-7.24917 -4.39054,-7.68924 0.0484,-0.44007 5.52266,-6.46179 5.95614,-6.55176 0.43349,-0.09 7.85213,3.25556 8.07165,3.64002 0.21953,0.38447 -0.66978,8.47384 -0.96759,8.80143 z"
       inkscape:transform-center-x="0.45602759"
       inkscape:transform-center-y="-0.24826963" />
    <path
       sodipodi:type="star"
       style="fill:#ffffff;fill-opacity:1;stroke-width:0.2"
       id="path25011"
       inkscape:flatsided="false"
       sodipodi:sides="5"
       sodipodi:cx="371.8887"
       sodipodi:cy="269.54327"
       sodipodi:r1="12.917355"
       sodipodi:r2="10.450359"
       sodipodi:arg1="0.72989966"
       sodipodi:arg2="1.3582182"
       inkscape:rounded="0.05"
       inkscape:randomized="0"
       d="m 381.51525,278.1565 c -0.25314,0.28292 -7.05064,1.5218 -7.42172,1.6019 -0.37109,0.0801 -7.07443,1.75522 -7.42173,1.6019 -0.34729,-0.15332 -3.62608,-6.23529 -3.81693,-6.56347 -0.19085,-0.32817 -3.85543,-6.18579 -3.81693,-6.56346 0.0385,-0.37767 4.80959,-5.37542 5.06272,-5.65834 0.25314,-0.28292 4.69164,-5.57825 5.06273,-5.65834 0.37109,-0.0801 6.59858,2.91309 6.94587,3.06641 0.3473,0.15332 6.75503,2.73824 6.94587,3.06642 0.19085,0.32817 -0.73144,7.17581 -0.76994,7.55349 -0.0385,0.37767 -0.5168,7.27057 -0.76994,7.55349 z"
       inkscape:transform-center-x="0.81023076"
       inkscape:transform-center-y="-0.39530021" />
    <path
       sodipodi:type="star"
       style="fill:#ffffff;fill-opacity:1;stroke-width:0.2"
       id="path25013"
       inkscape:flatsided="false"
       sodipodi:sides="5"
       sodipodi:cx="251.30354"
       sodipodi:cy="279.16983"
       sodipodi:r1="47.894814"
       sodipodi:r2="16.763184"
       sodipodi:arg1="0.10598436"
       sodipodi:arg2="0.73430289"
       inkscape:rounded="0.05"
       inkscape:randomized="0"
       d="m 298.92961,284.23643 c -0.18892,1.77593 -33.98608,4.8402 -35.18279,6.1659 -1.19671,1.32571 -0.79725,35.25914 -2.54464,35.62825 -1.74739,0.36911 -15.10557,-30.82698 -16.7362,-31.55545 -1.63063,-0.72848 -33.77979,10.13744 -34.67081,8.58963 -0.89102,-1.5478 24.65032,-23.89231 24.83925,-25.66824 0.18893,-1.77593 -20.07981,-28.99385 -18.8831,-30.31956 1.19671,-1.32571 30.34031,16.06072 32.0877,15.69161 1.74739,-0.36911 21.36979,-28.05663 23.00041,-27.32816 1.63063,0.72848 -5.89897,33.81839 -5.00796,35.36619 0.89102,1.54781 33.28707,11.6539 33.09814,13.42983 z"
       inkscape:transform-center-x="-3.0478657"
       inkscape:transform-center-y="1.5602249" />
    <path
       sodipodi:type="star"
       style="fill:#ffffff;fill-opacity:1;stroke-width:0.2"
       id="path25015"
       inkscape:flatsided="false"
       sodipodi:sides="5"
       sodipodi:cx="259.91675"
       sodipodi:cy="194.0509"
       sodipodi:r1="51.475296"
       sodipodi:r2="18.016352"
       sodipodi:arg1="1.0675219"
       sodipodi:arg2="1.6958404"
       inkscape:rounded="0.05"
       inkscape:randomized="0"
       d="m 284.74311,239.14368 c -1.68147,0.92575 -25.16886,-26.9777 -27.07333,-27.21709 -1.90448,-0.2394 -31.567,20.98311 -32.96704,19.67002 -1.40004,-1.3131 17.87971,-32.27357 17.51887,-34.15881 -0.36084,-1.88524 -29.71086,-23.53786 -28.89467,-25.27515 0.81619,-1.73729 36.21912,7.03154 37.90058,6.10579 1.68147,-0.92576 13.20467,-35.53031 15.10915,-35.29092 1.90448,0.23939 4.50494,36.61929 5.90498,37.93239 1.40004,1.31309 37.8718,1.57892 38.23264,3.46416 0.36084,1.88524 -33.43492,15.60043 -34.25111,17.33772 -0.81619,1.73729 10.20139,36.50613 8.51993,37.43189 z"
       inkscape:transform-center-x="-1.9769399"
       inkscape:transform-center-y="-2.9796599" />
    <path
       sodipodi:type="star"
       style="fill:#ffffff;fill-opacity:1;stroke-width:0.2"
       id="path25017"
       inkscape:flatsided="false"
       sodipodi:sides="5"
       sodipodi:cx="265.49002"
       sodipodi:cy="108.93197"
       sodipodi:r1="23.328394"
       sodipodi:r2="8.164937"
       sodipodi:arg1="0.60005021"
       sodipodi:arg2="1.2283687"
       inkscape:rounded="0.05"
       inkscape:randomized="0"
       d="m 284.74311,122.10514 c -0.49121,0.71793 -15.69212,-5.77436 -16.51151,-5.48227 -0.81939,0.29209 -8.48589,14.93593 -9.32047,14.69061 -0.83459,-0.24532 0.6426,-16.70847 0.11161,-17.3975 -0.531,-0.68902 -16.82721,-3.4551 -16.85179,-4.32464 -0.0246,-0.86955 16.08927,-4.55205 16.58049,-5.26998 0.49121,-0.71793 -1.91389,-17.071305 -1.0945,-17.363393 0.81938,-0.292088 9.30111,13.895153 10.13569,14.140473 0.83459,0.24532 15.64435,-7.095543 16.17535,-6.406518 0.531,0.689025 -10.34087,13.139718 -10.31628,14.009268 0.0246,0.86955 11.58263,12.68602 11.09141,13.40395 z"
       inkscape:transform-center-x="2.0253953"
       inkscape:transform-center-y="0.20305376" />
    <path
       sodipodi:type="star"
       style="fill:#ffffff;fill-opacity:1;stroke-width:0.2"
       id="path25019"
       inkscape:flatsided="false"
       sodipodi:sides="5"
       sodipodi:cx="315.64941"
       sodipodi:cy="102.85205"
       sodipodi:r1="34.757046"
       sodipodi:r2="12.164965"
       sodipodi:arg1="0.53541954"
       sodipodi:arg2="1.1637381"
       inkscape:rounded="0.05"
       inkscape:randomized="0"
       d="m 345.54237,120.58516 c -0.66125,1.11468 -23.88657,-7.07527 -25.07673,-6.56215 -1.19015,0.51312 -11.17952,23.0232 -12.44398,22.73877 -1.26446,-0.28443 -0.65238,-24.90387 -1.50816,-25.87721 -0.85579,-0.97334 -25.35103,-3.5178 -25.47126,-4.80827 -0.12023,-1.29046 23.48339,-8.316159 24.14464,-9.430838 0.66125,-1.114679 -4.48827,-25.197319 -3.29812,-25.71044 1.19016,-0.513121 15.16591,19.764194 16.43037,20.048626 1.26446,0.284432 22.57712,-12.054999 23.43291,-11.081658 0.85578,0.973341 -14.11035,20.53111 -13.99012,21.82157 0.12023,1.29047 18.4417,17.74692 17.78045,18.8616 z"
       inkscape:transform-center-x="2.3486013"
       inkscape:transform-center-y="0.99289576" />
    <path
       sodipodi:type="star"
       style="fill:#ffffff;fill-opacity:1;stroke-width:0.2"
       id="path25021"
       inkscape:flatsided="false"
       sodipodi:sides="5"
       sodipodi:cx="363.78214"
       sodipodi:cy="57.759281"
       sodipodi:r1="33.749058"
       sodipodi:r2="11.812168"
       sodipodi:arg1="1.4352686"
       sodipodi:arg2="2.0635871"
       inkscape:rounded="0.05"
       inkscape:randomized="0"
       d="m 368.34208,91.198866 c -1.24693,0.170036 -9.03939,-22.437511 -10.14812,-23.032876 -1.10873,-0.595364 -24.25862,5.396811 -24.80566,4.263455 -0.54704,-1.133356 18.54602,-15.530542 18.76962,-16.768986 0.22361,-1.238444 -12.62899,-21.403614 -11.72015,-22.274102 0.90884,-0.870489 20.50146,12.839107 21.74838,12.669072 1.24693,-0.170036 16.45348,-18.624972 17.56221,-18.029608 1.10873,0.595365 -5.87542,23.465547 -5.32838,24.598903 0.54703,1.133356 22.7978,9.892749 22.57419,11.131193 -0.22361,1.238444 -24.13267,1.663398 -25.04151,2.533886 -0.90884,0.870488 -2.36365,24.739027 -3.61058,24.909063 z"
       inkscape:transform-center-x="-1.4041655"
       inkscape:transform-center-y="1.8464884" />
    <path
       sodipodi:type="star"
       style="fill:#ffffff;fill-opacity:1;stroke-width:0.2"
       id="path25023"
       inkscape:flatsided="false"
       sodipodi:sides="5"
       sodipodi:cx="444.84778"
       sodipodi:cy="106.39867"
       sodipodi:r1="38.036663"
       sodipodi:r2="13.31283"
       sodipodi:arg1="0.8419416"
       sodipodi:arg2="1.4702601"
       inkscape:rounded="0.05"
       inkscape:randomized="0"
       d="m 470.1808,134.77165 c -1.058,0.94464 -22.58567,-15.26973 -23.99685,-15.12738 -1.41119,0.14236 -19.2668,20.32957 -20.49215,19.61526 -1.22534,-0.71431 7.54303,-26.19885 6.97156,-27.49697 -0.57147,-1.29813 -25.28834,-12.041633 -24.98764,-13.427742 0.30069,-1.38611 27.2475,-0.922049 28.3055,-1.866693 1.058,-0.944643 3.63775,-27.7717 5.04894,-27.914055 1.41118,-0.142356 9.29686,25.628988 10.52221,26.343296 1.22535,0.714307 27.53658,-5.122227 28.10805,-3.824098 0.57147,1.298129 -21.50173,16.761632 -21.80242,18.147742 -0.3007,1.38611 13.3808,24.60599 12.3228,25.55064 z"
       inkscape:transform-center-x="1.1756229"
       inkscape:transform-center-y="-2.4829023" />
    <path
       sodipodi:type="star"
       style="fill:#ffffff;fill-opacity:1;stroke-width:0.2"
       id="path25029"
       inkscape:flatsided="false"
       sodipodi:sides="5"
       sodipodi:cx="441.30115"
       sodipodi:cy="54.212654"
       sodipodi:r1="34.579338"
       sodipodi:r2="12.102767"
       sodipodi:arg1="1.7624448"
       sodipodi:arg2="2.3907634"
       inkscape:rounded="0.05"
       inkscape:randomized="0"
       d="m 434.71456,88.158899 c -1.26582,-0.245607 -1.38232,-24.746457 -2.26203,-25.689189 -0.87971,-0.942732 -25.31397,-2.751538 -25.47155,-4.031303 -0.15757,-1.279765 23.10812,-8.961745 23.73287,-10.089716 0.62475,-1.127971 -5.20558,-24.925292 -4.03715,-25.470623 1.16844,-0.545331 15.66393,19.207795 16.92975,19.453402 1.26582,0.245607 22.09675,-12.65314 22.97646,-11.710408 0.8797,0.942732 -13.42728,20.832815 -13.26971,22.11258 0.15758,1.279765 18.86213,17.105221 18.23738,18.233192 -0.62475,1.127972 -23.96244,-6.332407 -25.13088,-5.787076 -1.16843,0.545331 -10.43931,23.224748 -11.70514,22.979141 z"
       inkscape:transform-center-x="2.0281164"
       inkscape:transform-center-y="1.3012755" />
    <path
       sodipodi:type="star"
       style="fill:#ffffff;fill-opacity:1;stroke-width:0.2"
       id="path25031"
       inkscape:flatsided="false"
       sodipodi:sides="5"
       sodipodi:cx="407.86157"
       sodipodi:cy="177.83778"
       sodipodi:r1="9.6797323"
       sodipodi:r2="3.3879058"
       sodipodi:arg1="0.82241828"
       sodipodi:arg2="1.4507368"
       inkscape:rounded="0.05"
       inkscape:randomized="0"
       d="m 414.44816,184.93103 c -0.2645,0.24561 -5.82246,-3.77296 -6.18081,-3.72973 -0.35835,0.0432 -4.80117,5.26829 -5.11649,5.09263 -0.31532,-0.17566 1.78906,-6.7034 1.63721,-7.03085 -0.15185,-0.32745 -6.49408,-2.93818 -6.42446,-3.29235 0.0696,-0.35417 6.92816,-0.36997 7.19266,-0.61558 0.2645,-0.24561 0.7876,-7.08419 1.14595,-7.12742 0.35835,-0.0432 2.49278,6.47474 2.8081,6.6504 0.31532,0.17566 6.98084,-1.44008 7.1327,-1.11263 0.15185,0.32745 -5.38754,4.37158 -5.45716,4.72575 -0.0696,0.35417 3.5268,6.19417 3.2623,6.43978 z"
       inkscape:transform-center-x="0.35701687"
       inkscape:transform-center-y="-0.57489627" />
    <path
       sodipodi:type="star"
       style="fill:#ffffff;fill-opacity:1;stroke-width:0.2"
       id="path25033"
       inkscape:flatsided="false"
       sodipodi:sides="5"
       sodipodi:cx="511.72693"
       sodipodi:cy="188.98431"
       sodipodi:r1="24.472269"
       sodipodi:r2="8.5652943"
       sodipodi:arg1="0.4729066"
       sodipodi:arg2="1.1012251"
       inkscape:rounded="0.05"
       inkscape:randomized="0"
       d="m 533.51332,200.13084 c -0.41564,0.81239 -17.09679,-3.92125 -17.91056,-3.50832 -0.81378,0.41293 -6.84337,16.67061 -7.74444,16.52635 -0.90107,-0.14426 -1.55387,-17.47174 -2.19806,-18.11809 -0.64419,-0.64634 -17.96941,-1.35693 -18.11066,-2.25848 -0.14125,-0.90154 16.13645,-6.87688 16.55209,-7.68927 0.41564,-0.81239 -4.26233,-17.50923 -3.44856,-17.92217 0.81378,-0.41293 11.52674,13.2216 12.42781,13.36586 0.90107,0.14426 15.33514,-9.46437 15.97933,-8.81803 0.64419,0.64634 -9.01253,15.04828 -8.87128,15.94983 0.14125,0.90155 13.73997,11.65993 13.32433,12.47232 z"
       inkscape:transform-center-x="1.1912616"
       inkscape:transform-center-y="1.1664319" />
    <path
       sodipodi:type="star"
       style="fill:#ffffff;fill-opacity:1;stroke-width:0.2"
       id="path25035"
       inkscape:flatsided="false"
       sodipodi:sides="5"
       sodipodi:cx="574.04614"
       sodipodi:cy="195.57089"
       sodipodi:r1="46.999405"
       sodipodi:r2="16.449791"
       sodipodi:arg1="0.73201382"
       sodipodi:arg2="1.3603324"
       inkscape:rounded="0.05"
       inkscape:randomized="0"
       d="m 609.00571,226.98383 c -1.17136,1.30361 -29.80909,-15.69226 -31.52298,-15.32613 -1.71389,0.36614 -20.9072,27.58004 -22.50897,26.86885 -1.60177,-0.71119 5.71271,-33.19931 4.83488,-34.71617 -0.87784,-1.51687 -32.69085,-11.36123 -32.50944,-13.10438 0.1814,-1.74314 33.33974,-4.82603 34.5111,-6.12964 1.17135,-1.3036 0.70314,-34.60165 2.41702,-34.96779 1.71389,-0.36613 14.89238,30.21665 16.49416,30.92784 1.60177,0.71119 33.12541,-10.02377 34.00325,-8.50691 0.87783,1.51687 -24.13575,23.50096 -24.31716,25.2441 -0.1814,1.74315 19.76949,28.40663 18.59814,29.71023 z"
       inkscape:transform-center-x="3.0232874"
       inkscape:transform-center-y="-1.4981162" />
    <path
       sodipodi:type="star"
       style="fill:#ffffff;fill-opacity:1;stroke-width:0.2"
       id="path25041"
       inkscape:flatsided="false"
       sodipodi:sides="10"
       sodipodi:cx="469.16748"
       sodipodi:cy="244.21028"
       sodipodi:r1="23.791466"
       sodipodi:r2="8.327013"
       sodipodi:arg1="-1.1071487"
       sodipodi:arg2="-0.79298943"
       inkscape:rounded="0.05"
       inkscape:randomized="0"
       d="m 479.80735,222.93055 c 0.71908,0.35954 -5.36944,14.78296 -4.79665,15.34712 0.57279,0.56415 14.90211,-5.74264 15.27253,-5.0291 0.37042,0.71355 -13.03317,8.8036 -12.90138,9.59668 0.13179,0.79309 15.4315,4.11335 15.31176,4.90835 -0.11974,0.79499 -15.71868,-0.53845 -16.07822,0.18063 -0.35955,0.71909 10.06658,12.39818 9.50242,12.97097 -0.56415,0.57278 -12.40019,-9.67483 -13.11373,-9.30441 -0.71355,0.37042 0.85657,15.94732 0.0635,16.07911 -0.79309,0.1318 -4.34524,-15.11574 -5.14024,-15.23547 -0.795,-0.11974 -8.68062,13.40513 -9.39971,13.04559 -0.71908,-0.35955 5.36944,-14.78297 4.79665,-15.34712 -0.57279,-0.56416 -14.90211,5.74263 -15.27253,5.02909 -0.37042,-0.71354 13.03317,-8.80359 12.90138,-9.59668 -0.13179,-0.79309 -15.43149,-4.11335 -15.31176,-4.90834 0.11974,-0.795 15.71868,0.53844 16.07822,-0.18064 0.35955,-0.71909 -10.06657,-12.39818 -9.50242,-12.97096 0.56416,-0.57279 12.40019,9.67482 13.11373,9.3044 0.71355,-0.37042 -0.85657,-15.94732 -0.0635,-16.07911 0.79309,-0.13179 4.34525,15.11574 5.14024,15.23548 0.795,0.11973 8.68062,-13.40514 9.39971,-13.04559 z"
       inkscape:transform-center-x="-1.2009312"
       inkscape:transform-center-y="1.0910954" />
    <path
       sodipodi:type="star"
       style="fill:#ffffff;fill-opacity:1;stroke-width:0.2"
       id="path25045"
       inkscape:flatsided="false"
       sodipodi:sides="10"
       sodipodi:cx="424.58139"
       sodipodi:cy="280.68985"
       sodipodi:r1="38.335815"
       sodipodi:r2="13.417534"
       sodipodi:arg1="0.79474369"
       sodipodi:arg2="1.108903"
       inkscape:rounded="0.05"
       inkscape:randomized="0"
       d="m 451.43439,308.04951 c -0.92454,0.90742 -19.71386,-15.92545 -20.87356,-15.34814 -1.15969,0.5773 0.94482,25.71602 -0.33651,25.90671 -1.28133,0.19068 -6.58811,-24.47148 -7.86565,-24.68608 -1.27755,-0.2146 -14.35113,21.36005 -15.49983,20.76117 -1.1487,-0.59888 9.05409,-23.67023 8.14667,-24.59477 -0.90742,-0.92454 -24.16543,8.84527 -24.74274,7.68557 -0.5773,-1.15969 21.23793,-13.82776 21.04724,-15.1091 -0.19068,-1.28133 -24.74936,-7.04811 -24.53476,-8.32565 0.2146,-1.27755 25.3096,1.29644 25.90848,0.14774 0.59888,-1.14871 -15.87988,-20.24935 -14.95534,-21.15677 0.92454,-0.90742 19.71386,15.92545 20.87356,15.34814 1.15969,-0.5773 -0.94482,-25.71602 0.33651,-25.90671 1.28134,-0.19069 6.58811,24.47148 7.86565,24.68608 1.27755,0.2146 14.35113,-21.36005 15.49983,-20.76117 1.1487,0.59888 -9.05409,23.67023 -8.14667,24.59477 0.90742,0.92454 24.16543,-8.84527 24.74274,-7.68557 0.57731,1.15969 -21.23793,13.82776 -21.04724,15.1091 0.19069,1.28133 24.74936,7.04811 24.53476,8.32565 -0.2146,1.27755 -25.3096,-1.29644 -25.90848,-0.14774 -0.59888,1.14871 15.87988,20.24935 14.95534,21.15677 z"
       inkscape:transform-center-x="5.3490566e-06"
       inkscape:transform-center-y="-3.5362498e-06" />
    <path
       sodipodi:type="star"
       style="fill:#ffffff;fill-opacity:1;stroke-width:0.2"
       id="path25047"
       inkscape:flatsided="false"
       sodipodi:sides="10"
       sodipodi:cx="508.18033"
       sodipodi:cy="261.43674"
       sodipodi:r1="47.239113"
       sodipodi:r2="16.533689"
       sodipodi:arg1="0.67139087"
       sodipodi:arg2="0.98555014"
       inkscape:rounded="0.05"
       inkscape:randomized="0"
       d="m 545.16653,290.82304 c -0.99302,1.24983 -26.52227,-16.48602 -27.85292,-15.60421 -1.33064,0.8818 5.05436,31.30441 3.51635,31.73187 -1.53801,0.42745 -11.76673,-28.92687 -13.36156,-28.99561 -1.59482,-0.0687 -14.31121,28.29668 -15.80674,27.73848 -1.49553,-0.5582 7.4833,-30.31864 6.23346,-31.31166 -1.24983,-0.99302 -28.21038,14.48057 -29.09219,13.14993 -0.8818,-1.33064 23.87497,-20.12972 23.44751,-21.66773 -0.42745,-1.53801 -31.33415,-4.86662 -31.26541,-6.46144 0.0687,-1.59483 31.14721,-2.25194 31.70541,-3.74747 0.5582,-1.49552 -22.48934,-22.35492 -21.49632,-23.60476 0.99303,-1.24984 26.52228,16.48601 27.85292,15.60421 1.33064,-0.88181 -5.05435,-31.30442 -3.51635,-31.73187 1.53801,-0.42746 11.76674,28.92687 13.36156,28.9956 1.59483,0.0687 14.31122,-28.29668 15.80674,-27.73848 1.49553,0.5582 -7.4833,30.31864 -6.23346,31.31167 1.24984,0.99302 28.21039,-14.48058 29.09219,-13.14994 0.88181,1.33064 -23.87496,20.12973 -23.44751,21.66774 0.42746,1.538 31.33415,4.86661 31.26542,6.46144 -0.0687,1.59482 -31.14721,2.25193 -31.70541,3.74746 -0.5582,1.49553 22.48933,22.35493 21.49631,23.60477 z"
       inkscape:transform-center-x="6.4022717e-06"
       inkscape:transform-center-y="-3.2936911e-06" />
    <path
       sodipodi:type="star"
       style="fill:#ffffff;fill-opacity:1;stroke-width:0.2"
       id="path25049"
       inkscape:flatsided="false"
       sodipodi:sides="10"
       sodipodi:cx="502.60706"
       sodipodi:cy="123.11846"
       sodipodi:r1="21.644541"
       sodipodi:r2="7.5755887"
       sodipodi:arg1="1.0022718"
       sodipodi:arg2="1.316431"
       inkscape:rounded="0.05"
       inkscape:randomized="0"
       d="m 514.26024,141.35824 c -0.61635,0.39378 -9.03905,-11.09199 -9.74693,-10.90795 -0.70788,0.18405 -2.46959,14.31774 -3.1997,14.27403 -0.7301,-0.0437 -0.79304,-14.28663 -1.4739,-14.55381 -0.68087,-0.26719 -10.4137,10.1317 -10.97868,9.66719 -0.56497,-0.4645 7.75589,-12.02426 7.36211,-12.64062 -0.39379,-0.61636 -14.38013,2.0757 -14.56417,1.36782 -0.18405,-0.70788 13.34233,-5.16904 13.38604,-5.89914 0.0437,-0.73011 -12.85384,-6.77315 -12.58665,-7.45401 0.26718,-0.68087 13.83246,3.66058 14.29696,3.0956 0.46451,-0.56497 -6.41781,-13.03488 -5.80145,-13.42866 0.61636,-0.39379 9.03905,11.09199 9.74693,10.90794 0.70788,-0.18405 2.46959,-14.31774 3.1997,-14.27403 0.7301,0.0437 0.79304,14.28663 1.47391,14.55382 0.68086,0.26718 10.41369,-10.13171 10.97867,-9.6672 0.56498,0.46451 -7.75589,12.02427 -7.3621,12.64063 0.39378,0.61635 14.38012,-2.07571 14.56416,-1.36783 0.18405,0.70788 -13.34233,5.16904 -13.38603,5.89915 -0.0437,0.7301 12.85383,6.77314 12.58664,7.45401 -0.26718,0.68086 -13.83245,-3.66059 -14.29696,-3.09561 -0.46451,0.56498 6.41781,13.03488 5.80145,13.42867 z"
       inkscape:transform-center-x="6.3320574e-06"
       inkscape:transform-center-y="-1.5510987e-06" />
    <path
       sodipodi:type="star"
       style="fill:#ffffff;fill-opacity:1;stroke-width:0.2"
       id="path25051"
       inkscape:flatsided="false"
       sodipodi:sides="10"
       sodipodi:cx="500.07376"
       sodipodi:cy="61.305904"
       sodipodi:r1="19.152834"
       sodipodi:r2="6.7034907"
       sodipodi:arg1="0.9167136"
       sodipodi:arg2="1.2308729"
       inkscape:rounded="0.05"
       inkscape:randomized="0"
       d="m 511.72695,76.505715 c -0.51363,0.393785 -8.80797,-9.095683 -9.41815,-8.879892 -0.61018,0.21579 -1.09464,12.809886 -1.74164,12.826559 -0.64699,0.01667 -1.77948,-12.535754 -2.39997,-12.719831 -0.62048,-0.184076 -8.41504,9.720001 -8.94827,9.353194 -0.53324,-0.366807 5.92869,-11.187593 5.53491,-11.701226 -0.39379,-0.513632 -12.52119,2.917406 -12.73698,2.307226 -0.21579,-0.610179 11.37232,-5.566152 11.35564,-6.21315 -0.0167,-0.646998 -11.84466,-4.999539 -11.66058,-5.620024 0.18408,-0.620484 12.4721,2.181371 12.83891,1.648138 0.36681,-0.533233 -6.64388,-11.006831 -6.13025,-11.400615 0.51364,-0.393785 8.80797,9.095683 9.41815,8.879892 0.61018,-0.21579 1.09464,-12.809886 1.74164,-12.826559 0.647,-0.01667 1.77948,12.535754 2.39997,12.71983 0.62048,0.184077 8.41504,-9.72 8.94828,-9.353193 0.53323,0.366807 -5.9287,11.187593 -5.53492,11.701225 0.39379,0.513633 12.52119,-2.917405 12.73698,-2.307225 0.21579,0.610179 -11.37232,5.566151 -11.35564,6.21315 0.0167,0.646998 11.84466,4.999539 11.66058,5.620023 -0.18407,0.620485 -12.4721,-2.18137 -12.83891,-1.648137 -0.3668,0.533233 6.64388,11.00683 6.13025,11.400615 z"
       inkscape:transform-center-x="6.3001418e-06" />
    <path
       sodipodi:type="star"
       style="fill:#ffffff;fill-opacity:1;stroke-width:0.2"
       id="path25053"
       inkscape:flatsided="false"
       sodipodi:sides="10"
       sodipodi:cx="543.13989"
       sodipodi:cy="10.639867"
       sodipodi:r1="25.499666"
       sodipodi:r2="8.9248819"
       sodipodi:arg1="0.7150917"
       sodipodi:arg2="1.029251"
       inkscape:rounded="0.05"
       inkscape:randomized="0"
       d="m 562.39299,27.359658 c -0.565,0.650601 -13.91428,-9.516108 -14.65267,-9.071942 -0.73839,0.444165 1.98751,17.001178 1.14801,17.19543 -0.83951,0.194251 -5.66346,-15.877299 -6.52191,-15.951977 -0.85844,-0.07468 -8.38511,14.922472 -9.17846,14.586176 -0.79335,-0.336296 4.75061,-16.173901 4.10001,-16.738897 -0.6506,-0.564996 -15.55491,7.143888 -15.99908,6.405498 C 520.84473,23.045557 534.639,13.491322 534.44475,12.651818 534.25049,11.812313 517.66149,9.2883991 517.73617,8.4299557 517.81084,7.5715123 534.58648,7.950042 534.92278,7.1566904 535.25907,6.3633387 523.3218,-5.429323 523.8868,-6.079924 c 0.565,-0.6506011 13.91428,9.5161073 14.65267,9.0719421 0.73839,-0.4441651 -1.98751,-17.0011791 -1.14801,-17.1954301 0.8395,-0.194251 5.66346,15.8772988 6.5219,15.9519762 0.85845,0.074677 8.38511,-14.9224722 9.17847,-14.5861762 0.79335,0.336296 -4.75061,16.1739019 -4.10001,16.7388976 0.6506,0.5649957 15.55491,-7.1438879 15.99907,-6.4054983 0.44417,0.7383896 -13.3501,10.2926239 -13.15585,11.1321287 0.19425,0.8395048 16.78326,3.363419 16.70858,4.221862 -0.0747,0.858443 -16.85032,0.479914 -17.18661,1.273265 -0.3363,0.793352 11.60097,12.586014 11.03598,13.236615 z"
       inkscape:transform-center-x="6.8427073e-06" />
    <path
       sodipodi:type="star"
       style="fill:#ffffff;fill-opacity:1;stroke-width:0.2"
       id="path25055"
       inkscape:flatsided="false"
       sodipodi:sides="10"
       sodipodi:cx="274.10327"
       sodipodi:cy="41.03949"
       sodipodi:r1="43.351299"
       sodipodi:r2="15.172952"
       sodipodi:arg1="0.79366244"
       sodipodi:arg2="1.1078217"
       inkscape:rounded="0.05"
       inkscape:randomized="0"
       d="m 304.50289,71.945771 c -1.04438,1.027265 -22.31249,-17.984871 -23.6232,-17.330617 -1.31072,0.654254 1.09987,29.079291 -0.34887,29.296491 -1.44873,0.2172 -7.47994,-27.66502 -8.92489,-27.906135 -1.44495,-0.241115 -16.20256,24.172131 -17.50228,23.496303 -1.29972,-0.675828 10.20969,-26.778072 9.18243,-27.822458 -1.02727,-1.044386 -27.31617,10.032038 -27.97043,8.721326 -0.65425,-1.310712 23.99957,-15.662811 23.78237,-17.111548 -0.2172,-1.448737 -27.99593,-7.939952 -27.75481,-9.384901 0.24111,-1.44495 28.62242,1.435112 29.29825,0.135392 0.67583,-1.29972 -17.9822,-22.87915 -16.93781,-23.906415 1.04439,-1.0272653 22.31249,17.984871 23.62321,17.330617 1.31071,-0.654254 -1.09988,-29.0792915 0.34886,-29.2964916 1.44874,-0.2172001 7.47994,27.6650206 8.92489,27.9061356 1.44495,0.241114 16.20256,-24.1721315 17.50228,-23.4963037 1.29972,0.6758278 -10.20969,26.7780727 -9.18242,27.8224587 1.02726,1.044386 27.31617,-10.032039 27.97042,-8.721326 0.65425,1.310712 -23.99957,15.66281 -23.78237,17.111547 0.2172,1.448738 27.99593,7.939952 27.75482,9.384902 -0.24112,1.444949 -28.62243,-1.435112 -29.29826,-0.135393 -0.67583,1.29972 17.9822,22.879151 16.93781,23.906416 z"
       inkscape:transform-center-x="3.4532692e-06"
       transform="translate(7.0932449,-0.50666031)" />
    <path
       sodipodi:type="star"
       style="fill:#ffffff;fill-opacity:1;stroke-width:0.2"
       id="path25057"
       inkscape:flatsided="false"
       sodipodi:sides="10"
       sodipodi:cx="46.106091"
       sodipodi:cy="82.078979"
       sodipodi:r1="20.113842"
       sodipodi:r2="7.0398436"
       sodipodi:arg1="0.85670563"
       sodipodi:arg2="1.1708649"
       inkscape:rounded="0.05"
       inkscape:randomized="0"
       d="m 59.27926,97.27879 c -0.513633,0.445148 -9.806118,-8.980137 -10.43217,-8.715497 -0.626052,0.26464 -0.340717,13.497357 -1.017906,13.555587 -0.677189,0.0582 -2.654924,-13.028976 -3.316962,-13.182862 -0.662038,-0.153886 -8.209195,10.719325 -8.791277,10.36839 -0.582083,-0.350935 5.510361,-12.101188 5.065213,-12.61482 -0.445149,-0.513632 -12.94204,3.846872 -13.20668,3.22082 -0.26464,-0.626052 11.570876,-6.551157 11.512649,-7.228346 -0.05823,-0.677189 -12.731465,-4.494955 -12.577579,-5.156993 0.153886,-0.662038 13.211708,1.501192 13.562644,0.91911 0.350935,-0.582082 -7.657903,-11.119862 -7.144271,-11.56501 0.513633,-0.445148 9.806118,8.980137 10.43217,8.715497 0.626052,-0.26464 0.340717,-13.49736 1.017906,-13.555586 0.677189,-0.05823 2.654924,13.028975 3.316962,13.182861 0.662038,0.153886 8.209195,-10.719325 8.791277,-10.36839 0.582083,0.350935 -5.510361,12.101188 -5.065213,12.61482 0.445149,0.513632 12.94204,-3.846872 13.20668,-3.22082 0.26464,0.626052 -11.570875,6.551157 -11.512649,7.228346 0.05823,0.677189 12.731465,4.494955 12.577579,5.156993 -0.153886,0.662038 -13.211708,-1.501192 -13.562644,-0.91911 -0.350935,0.582082 7.657903,11.119862 7.144271,11.56501 z"
       inkscape:transform-center-y="-1.0340658e-06" />
    <rect
       style="fill:#ffffff;fill-opacity:1;stroke-width:0.2"
       id="rect25059"
       width="33.946243"
       height="25.839678"
       x="410.39487"
       y="163.14462" />
    <rect
       style="fill:#ffffff;fill-opacity:1;stroke-width:0.2"
       id="rect25061"
       width="18.239773"
       height="18.239773"
       x="504.6337"
       y="166.69124" />
    <rect
       style="fill:#ffffff;fill-opacity:1;stroke-width:0.2"
       id="rect25063"
       width="23.813036"
       height="26.346338"
       x="394.68842"
       y="276.63654" />
    <rect
       style="fill:#ffffff;fill-opacity:1;stroke-width:0.2"
       id="rect25065"
       width="25.839678"
       height="15.706471"
       x="493.99384"
       y="232.05043" />
    <rect
       style="fill:#ffffff;fill-opacity:1;stroke-width:0.2"
       id="rect25067"
       width="17.733112"
       height="36.986206"
       x="508.68698"
       y="224.45053" />
    <rect
       style="fill:#ffffff;fill-opacity:1;stroke-width:0.2"
       id="rect25069"
       width="27.359661"
       height="18.746433"
       x="474.23407"
       y="230.02379" />
    <rect
       style="fill:#ffffff;fill-opacity:1;stroke-width:0.2"
       id="rect25071"
       width="15.19981"
       height="67.385826"
       x="426.81815"
       y="-62.493172"
       transform="rotate(38.195009)" />
  </g>
</svg>
