<?xml version="1.0" encoding="UTF-8" standalone="no"?>
<!-- Created with Inkscape (http://www.inkscape.org/) -->

<svg
   width="300mm"
   height="300mm"
   viewBox="0 0 300 300"
   version="1.1"
   id="svg5"
   inkscape:version="1.2.2 (732a01da63, 2022-12-09)"
   sodipodi:docname="multishape.svg"
   inkscape:export-filename="base_circle.png"
   inkscape:export-xdpi="96"
   inkscape:export-ydpi="96"
   xmlns:inkscape="http://www.inkscape.org/namespaces/inkscape"
   xmlns:sodipodi="http://sodipodi.sourceforge.net/DTD/sodipodi-0.dtd"
   xmlns="http://www.w3.org/2000/svg"
   xmlns:svg="http://www.w3.org/2000/svg">
  <sodipodi:namedview
     id="namedview7"
     pagecolor="#ffffff"
     bordercolor="#000000"
     borderopacity="0.25"
     inkscape:showpageshadow="2"
     inkscape:pageopacity="0.0"
     inkscape:pagecheckerboard="0"
     inkscape:deskcolor="#d1d1d1"
     inkscape:document-units="mm"
     showgrid="false"
     inkscape:zoom="0.52221046"
     inkscape:cx="331.28406"
     inkscape:cy="515.11798"
     inkscape:window-width="1920"
     inkscape:window-height="1009"
     inkscape:window-x="-8"
     inkscape:window-y="-8"
     inkscape:window-maximized="1"
     inkscape:current-layer="layer1" />
  <defs
     id="defs2" />
  <g
     inkscape:label="Layer 1"
     inkscape:groupmode="layer"
     id="layer1">
    <rect
       style="opacity:1;mix-blend-mode:normal;fill:#000000;fill-opacity:1;stroke:#000000;stroke-width:0.200923"
       id="rect234"
       width="299.79907"
       height="299.79907"
       x="0.1181244"
       y="0.29725587" />
    <path
       sodipodi:type="star"
       style="fill:#ffffff;fill-opacity:1;stroke:#000000;stroke-width:0.2"
       id="path22769-1-0"
       inkscape:flatsided="true"
       sodipodi:sides="3"
       sodipodi:cx="23.813034"
       sodipodi:cy="120.0785"
       sodipodi:r1="21.485327"
       sodipodi:r2="6.4455986"
       sodipodi:arg1="0.91078728"
       sodipodi:arg2="1.9579848"
       inkscape:rounded="0.1"
       inkscape:randomized="0"
       d="M 36.986204,137.05162 C 34.046373,139.33328 3.0333544,126.68704 2.5272944,123.00024 2.0212345,119.31344 28.479713,98.7785 31.925604,100.18364 c 3.445891,1.40514 8.00043,34.58632 5.0606,36.86798 z"
       inkscape:transform-center-x="0.22463757"
       inkscape:transform-center-y="-1.8799791"
       transform="matrix(1.1234084,0,0,1.0688741,157.27633,3.103439)" />
    <path
       sodipodi:type="star"
       style="fill:#ffffff;fill-opacity:1;stroke:#000000;stroke-width:0.2"
       id="path22769-1-9"
       inkscape:flatsided="true"
       sodipodi:sides="3"
       sodipodi:cx="23.813034"
       sodipodi:cy="120.0785"
       sodipodi:r1="21.485327"
       sodipodi:r2="6.4455986"
       sodipodi:arg1="0.91078728"
       sodipodi:arg2="1.9579848"
       inkscape:rounded="0.1"
       inkscape:randomized="0"
       d="M 36.986204,137.05162 C 34.046373,139.33328 3.0333544,126.68704 2.5272944,123.00024 2.0212345,119.31344 28.479713,98.7785 31.925604,100.18364 c 3.445891,1.40514 8.00043,34.58632 5.0606,36.86798 z"
       inkscape:transform-center-x="0.22463757"
       inkscape:transform-center-y="-1.8799791"
       transform="matrix(1.1234084,0,0,1.0688741,197.27633,3.103439)" />
    <path
       sodipodi:type="star"
       style="fill:#ffffff;fill-opacity:1;stroke:#000000;stroke-width:0.2"
       id="path22769-1-3"
       inkscape:flatsided="true"
       sodipodi:sides="3"
       sodipodi:cx="23.813034"
       sodipodi:cy="120.0785"
       sodipodi:r1="21.485327"
       sodipodi:r2="6.4455986"
       sodipodi:arg1="0.91078728"
       sodipodi:arg2="1.9579848"
       inkscape:rounded="0.1"
       inkscape:randomized="0"
       d="M 36.986204,137.05162 C 34.046373,139.33328 3.0333544,126.68704 2.5272944,123.00024 2.0212345,119.31344 28.479713,98.7785 31.925604,100.18364 c 3.445891,1.40514 8.00043,34.58632 5.0606,36.86798 z"
       inkscape:transform-center-x="0.22463757"
       inkscape:transform-center-y="-1.8799791"
       transform="matrix(1.1234084,0,0,1.0688741,237.27633,3.103439)" />
    <path
       sodipodi:type="star"
       style="fill:#ffffff;fill-opacity:1;stroke:#000000;stroke-width:0.2"
       id="path22765-5"
       inkscape:flatsided="false"
       sodipodi:sides="5"
       sodipodi:cx="20.266415"
       sodipodi:cy="21.533064"
       sodipodi:r1="28.374109"
       sodipodi:r2="8.5122328"
       sodipodi:arg1="0.91836688"
       sodipodi:arg2="1.5466854"
       inkscape:rounded="0.2"
       inkscape:randomized="0"
       d="M 37.492866,44.079448 C 33.986661,46.758347 24.882829,29.936444 20.471633,30.042823 16.060436,30.149201 7.7780556,47.390383 4.1467949,44.883609 0.51553427,42.376835 13.700876,28.520322 12.236569,24.357898 10.772262,20.195473 -8.184472,17.64628 -6.9225095,13.41811 -5.6605469,9.1899398 11.592274,17.448047 15.098479,14.769149 18.604684,12.09025 15.171159,-6.7264197 19.582355,-6.8327983 23.993552,-6.939177 21.47104,12.021126 25.1023,14.5279 c 3.631261,2.506775 20.46596,-6.5733731 21.930267,-2.410949 1.464306,4.162424 -17.347513,7.622429 -18.609475,11.850599 -1.261963,4.22817 12.575979,17.433 9.069774,20.111898 z"
       inkscape:transform-center-x="0.14801794"
       inkscape:transform-center-y="-1.8277216"
       transform="matrix(0.73666902,0,0,0.76686697,45.216975,165.31687)" />
    <path
       sodipodi:type="star"
       style="fill:#ffffff;fill-opacity:1;stroke:#000000;stroke-width:0.2"
       id="path22765-3"
       inkscape:flatsided="false"
       sodipodi:sides="5"
       sodipodi:cx="20.266415"
       sodipodi:cy="21.533064"
       sodipodi:r1="28.374109"
       sodipodi:r2="8.5122328"
       sodipodi:arg1="0.91836688"
       sodipodi:arg2="1.5466854"
       inkscape:rounded="0.2"
       inkscape:randomized="0"
       d="M 37.492866,44.079448 C 33.986661,46.758347 24.882829,29.936444 20.471633,30.042823 16.060436,30.149201 7.7780556,47.390383 4.1467949,44.883609 0.51553427,42.376835 13.700876,28.520322 12.236569,24.357898 10.772262,20.195473 -8.184472,17.64628 -6.9225095,13.41811 -5.6605469,9.1899398 11.592274,17.448047 15.098479,14.769149 18.604684,12.09025 15.171159,-6.7264197 19.582355,-6.8327983 23.993552,-6.939177 21.47104,12.021126 25.1023,14.5279 c 3.631261,2.506775 20.46596,-6.5733731 21.930267,-2.410949 1.464306,4.162424 -17.347513,7.622429 -18.609475,11.850599 -1.261963,4.22817 12.575979,17.433 9.069774,20.111898 z"
       inkscape:transform-center-x="0.14801794"
       inkscape:transform-center-y="-1.8277216"
       transform="matrix(0.73666902,0,0,0.76686697,85.216975,165.31687)" />
    <path
       sodipodi:type="star"
       style="fill:#ffffff;fill-opacity:1;stroke:#000000;stroke-width:0.2"
       id="path22765-4"
       inkscape:flatsided="false"
       sodipodi:sides="5"
       sodipodi:cx="20.266415"
       sodipodi:cy="21.533064"
       sodipodi:r1="28.374109"
       sodipodi:r2="8.5122328"
       sodipodi:arg1="0.91836688"
       sodipodi:arg2="1.5466854"
       inkscape:rounded="0.2"
       inkscape:randomized="0"
       d="M 37.492866,44.079448 C 33.986661,46.758347 24.882829,29.936444 20.471633,30.042823 16.060436,30.149201 7.7780556,47.390383 4.1467949,44.883609 0.51553427,42.376835 13.700876,28.520322 12.236569,24.357898 10.772262,20.195473 -8.184472,17.64628 -6.9225095,13.41811 -5.6605469,9.1899398 11.592274,17.448047 15.098479,14.769149 18.604684,12.09025 15.171159,-6.7264197 19.582355,-6.8327983 23.993552,-6.939177 21.47104,12.021126 25.1023,14.5279 c 3.631261,2.506775 20.46596,-6.5733731 21.930267,-2.410949 1.464306,4.162424 -17.347513,7.622429 -18.609475,11.850599 -1.261963,4.22817 12.575979,17.433 9.069774,20.111898 z"
       inkscape:transform-center-x="0.14801794"
       inkscape:transform-center-y="-1.8277216"
       transform="matrix(0.73666902,0,0,0.76686697,125.21697,165.31687)" />
    <path
       sodipodi:type="star"
       style="fill:#ffffff;fill-opacity:1;stroke:#000000;stroke-width:0.2"
       id="path22765-4-5"
       inkscape:flatsided="false"
       sodipodi:sides="5"
       sodipodi:cx="20.266415"
       sodipodi:cy="21.533064"
       sodipodi:r1="28.374109"
       sodipodi:r2="8.5122328"
       sodipodi:arg1="0.91836688"
       sodipodi:arg2="1.5466854"
       inkscape:rounded="0.2"
       inkscape:randomized="0"
       d="M 37.492866,44.079448 C 33.986661,46.758347 24.882829,29.936444 20.471633,30.042823 16.060436,30.149201 7.7780556,47.390383 4.1467949,44.883609 0.51553427,42.376835 13.700876,28.520322 12.236569,24.357898 10.772262,20.195473 -8.184472,17.64628 -6.9225095,13.41811 -5.6605469,9.1899398 11.592274,17.448047 15.098479,14.769149 18.604684,12.09025 15.171159,-6.7264197 19.582355,-6.8327983 23.993552,-6.939177 21.47104,12.021126 25.1023,14.5279 c 3.631261,2.506775 20.46596,-6.5733731 21.930267,-2.410949 1.464306,4.162424 -17.347513,7.622429 -18.609475,11.850599 -1.261963,4.22817 12.575979,17.433 9.069774,20.111898 z"
       inkscape:transform-center-x="0.14801794"
       inkscape:transform-center-y="-1.8277216"
       transform="matrix(0.73666902,0,0,0.76686697,165.21993,165.31536)" />
    <path
       sodipodi:type="star"
       style="fill:#ffffff;fill-opacity:1;stroke:#000000;stroke-width:0.2"
       id="path22765-4-1"
       inkscape:flatsided="false"
       sodipodi:sides="5"
       sodipodi:cx="20.266415"
       sodipodi:cy="21.533064"
       sodipodi:r1="28.374109"
       sodipodi:r2="8.5122328"
       sodipodi:arg1="0.91836688"
       sodipodi:arg2="1.5466854"
       inkscape:rounded="0.2"
       inkscape:randomized="0"
       d="M 37.492866,44.079448 C 33.986661,46.758347 24.882829,29.936444 20.471633,30.042823 16.060436,30.149201 7.7780556,47.390383 4.1467949,44.883609 0.51553427,42.376835 13.700876,28.520322 12.236569,24.357898 10.772262,20.195473 -8.184472,17.64628 -6.9225095,13.41811 -5.6605469,9.1899398 11.592274,17.448047 15.098479,14.769149 18.604684,12.09025 15.171159,-6.7264197 19.582355,-6.8327983 23.993552,-6.939177 21.47104,12.021126 25.1023,14.5279 c 3.631261,2.506775 20.46596,-6.5733731 21.930267,-2.410949 1.464306,4.162424 -17.347513,7.622429 -18.609475,11.850599 -1.261963,4.22817 12.575979,17.433 9.069774,20.111898 z"
       inkscape:transform-center-x="0.14801794"
       inkscape:transform-center-y="-1.8277216"
       transform="matrix(0.73666902,0,0,0.76686697,205.21993,165.31536)" />
    <path
       sodipodi:type="star"
       style="fill:#ffffff;fill-opacity:1;stroke:#000000;stroke-width:0.2"
       id="path22765-4-6"
       inkscape:flatsided="false"
       sodipodi:sides="5"
       sodipodi:cx="20.266415"
       sodipodi:cy="21.533064"
       sodipodi:r1="28.374109"
       sodipodi:r2="8.5122328"
       sodipodi:arg1="0.91836688"
       sodipodi:arg2="1.5466854"
       inkscape:rounded="0.2"
       inkscape:randomized="0"
       d="M 37.492866,44.079448 C 33.986661,46.758347 24.882829,29.936444 20.471633,30.042823 16.060436,30.149201 7.7780556,47.390383 4.1467949,44.883609 0.51553427,42.376835 13.700876,28.520322 12.236569,24.357898 10.772262,20.195473 -8.184472,17.64628 -6.9225095,13.41811 -5.6605469,9.1899398 11.592274,17.448047 15.098479,14.769149 18.604684,12.09025 15.171159,-6.7264197 19.582355,-6.8327983 23.993552,-6.939177 21.47104,12.021126 25.1023,14.5279 c 3.631261,2.506775 20.46596,-6.5733731 21.930267,-2.410949 1.464306,4.162424 -17.347513,7.622429 -18.609475,11.850599 -1.261963,4.22817 12.575979,17.433 9.069774,20.111898 z"
       inkscape:transform-center-x="0.14801794"
       inkscape:transform-center-y="-1.8277216"
       transform="matrix(0.73666902,0,0,0.76686697,245.21993,165.31536)" />
    <path
       sodipodi:type="star"
       style="fill:#ffffff;fill-opacity:1;stroke:#000000;stroke-width:0.2"
       id="path22769-9"
       inkscape:flatsided="true"
       sodipodi:sides="3"
       sodipodi:cx="23.813034"
       sodipodi:cy="120.0785"
       sodipodi:r1="21.485327"
       sodipodi:r2="6.4455986"
       sodipodi:arg1="0.91078728"
       sodipodi:arg2="1.9579848"
       inkscape:rounded="0.1"
       inkscape:randomized="0"
       d="M 36.986204,137.05162 C 34.046373,139.33328 3.0333544,126.68704 2.5272944,123.00024 2.0212345,119.31344 28.479713,98.7785 31.925604,100.18364 c 3.445891,1.40514 8.00043,34.58632 5.0606,36.86798 z"
       inkscape:transform-center-x="0.22463757"
       inkscape:transform-center-y="-1.8799791"
       transform="matrix(1.1234084,0,0,1.0688741,37.281868,3.1006497)" />
    <path
       sodipodi:type="star"
       style="fill:#ffffff;fill-opacity:1;stroke:#000000;stroke-width:0.2"
       id="path22769-0"
       inkscape:flatsided="true"
       sodipodi:sides="3"
       sodipodi:cx="23.813034"
       sodipodi:cy="120.0785"
       sodipodi:r1="21.485327"
       sodipodi:r2="6.4455986"
       sodipodi:arg1="0.91078728"
       sodipodi:arg2="1.9579848"
       inkscape:rounded="0.1"
       inkscape:randomized="0"
       d="M 36.986204,137.05162 C 34.046373,139.33328 3.0333544,126.68704 2.5272944,123.00024 2.0212345,119.31344 28.479713,98.7785 31.925604,100.18364 c 3.445891,1.40514 8.00043,34.58632 5.0606,36.86798 z"
       inkscape:transform-center-x="0.22463757"
       inkscape:transform-center-y="-1.8799791"
       transform="matrix(1.1234084,0,0,1.0688741,77.281868,3.1006497)" />
    <path
       sodipodi:type="star"
       style="fill:#ffffff;fill-opacity:1;stroke:#000000;stroke-width:0.2"
       id="path22769-1"
       inkscape:flatsided="true"
       sodipodi:sides="3"
       sodipodi:cx="23.813034"
       sodipodi:cy="120.0785"
       sodipodi:r1="21.485327"
       sodipodi:r2="6.4455986"
       sodipodi:arg1="0.91078728"
       sodipodi:arg2="1.9579848"
       inkscape:rounded="0.1"
       inkscape:randomized="0"
       d="M 36.986204,137.05162 C 34.046373,139.33328 3.0333544,126.68704 2.5272944,123.00024 2.0212345,119.31344 28.479713,98.7785 31.925604,100.18364 c 3.445891,1.40514 8.00043,34.58632 5.0606,36.86798 z"
       inkscape:transform-center-x="0.22463757"
       inkscape:transform-center-y="-1.8799791"
       transform="matrix(1.1234084,0,0,1.0688741,117.28187,3.1006497)" />
    <circle
       style="opacity:1;fill:#ffffff;fill-opacity:1;stroke:#000000;stroke-width:0.0313387"
       id="path6457"
       cx="20"
       cy="280"
       r="19.984331" />
    <circle
       style="fill:#ffffff;fill-opacity:1;stroke:#000000;stroke-width:0.0313387"
       id="path6457-8"
       cx="60"
       cy="280"
       r="19.984331" />
    <circle
       style="fill:#ffffff;fill-opacity:1;stroke:#000000;stroke-width:0.0313387"
       id="path6457-3"
       cx="100"
       cy="280"
       r="19.984331" />
    <circle
       style="fill:#ffffff;fill-opacity:1;stroke:#000000;stroke-width:0.0313387"
       id="path6457-9"
       cx="140"
       cy="280"
       r="19.984331" />
    <circle
       style="fill:#ffffff;fill-opacity:1;stroke:#000000;stroke-width:0.0313387"
       id="path6457-9-0"
       cx="180"
       cy="280"
       r="19.984331" />
    <circle
       style="fill:#ffffff;fill-opacity:1;stroke:#000000;stroke-width:0.0313387"
       id="path6457-9-8"
       cx="220"
       cy="280"
       r="19.984331" />
    <circle
       style="fill:#ffffff;fill-opacity:1;stroke:#000000;stroke-width:0.0313387"
       id="path6457-9-9"
       cx="260"
       cy="280"
       r="19.984331" />
    <rect
       style="opacity:1;fill:#ffffff;fill-opacity:1;stroke:#000000;stroke-width:0.189055"
       id="rect22615"
       width="37.810947"
       height="37.810944"
       x="0.094527453"
       y="5.0945277" />
    <rect
       style="fill:#ffffff;fill-opacity:1;stroke:#000000;stroke-width:0.189055"
       id="rect22615-1"
       width="37.810947"
       height="37.810944"
       x="40.094528"
       y="5.0945277" />
    <rect
       style="fill:#ffffff;fill-opacity:1;stroke:#000000;stroke-width:0.189055"
       id="rect22615-5"
       width="37.810947"
       height="37.810944"
       x="80.094528"
       y="5.0945277" />
    <rect
       style="fill:#ffffff;fill-opacity:1;stroke:#000000;stroke-width:0.189055"
       id="rect22615-7"
       width="37.810947"
       height="37.810944"
       x="120.09454"
       y="5.0945277" />
    <rect
       style="fill:#ffffff;fill-opacity:1;stroke:#000000;stroke-width:0.189055"
       id="rect22615-7-1"
       width="37.810947"
       height="37.810944"
       x="160.09453"
       y="5.0945277" />
    <rect
       style="fill:#ffffff;fill-opacity:1;stroke:#000000;stroke-width:0.189055"
       id="rect22615-7-17"
       width="37.810947"
       height="37.810944"
       x="200.09453"
       y="5.0945277" />
    <rect
       style="fill:#ffffff;fill-opacity:1;stroke:#000000;stroke-width:0.189055"
       id="rect22615-7-9"
       width="37.810947"
       height="37.810944"
       x="240.09453"
       y="5.0945277" />
    <rect
       style="fill:#ffffff;fill-opacity:1;stroke:#000000;stroke-width:0.140784"
       id="rect22615-9"
       width="28.15679"
       height="28.15679"
       x="-55.357536"
       y="-167.44408"
       transform="rotate(133.24303)" />
    <rect
       style="fill:#ffffff;fill-opacity:1;stroke:#000000;stroke-width:0.140784"
       id="rect22615-9-48"
       width="28.15679"
       height="28.15679"
       x="-82.761307"
       y="-196.58224"
       transform="rotate(133.24303)" />
    <rect
       style="fill:#ffffff;fill-opacity:1;stroke:#000000;stroke-width:0.140784"
       id="rect22615-9-9"
       width="28.15679"
       height="28.15679"
       x="-110.16508"
       y="-225.72043"
       transform="rotate(133.24303)" />
    <rect
       style="fill:#ffffff;fill-opacity:1;stroke:#000000;stroke-width:0.140784"
       id="rect22615-9-12"
       width="28.15679"
       height="28.15679"
       x="-137.56886"
       y="-254.8586"
       transform="rotate(133.24303)" />
    <rect
       style="fill:#ffffff;fill-opacity:1;stroke:#000000;stroke-width:0.140784"
       id="rect22615-9-4"
       width="28.15679"
       height="28.15679"
       x="26.85379"
       y="-80.029564"
       transform="rotate(133.24303)" />
    <rect
       style="fill:#ffffff;fill-opacity:1;stroke:#000000;stroke-width:0.140784"
       id="rect22615-9-45"
       width="28.15679"
       height="28.15679"
       x="-27.953764"
       y="-138.30591"
       transform="rotate(133.24303)" />
    <rect
       style="fill:#ffffff;fill-opacity:1;stroke:#000000;stroke-width:0.140784"
       id="rect22615-9-1"
       width="28.15679"
       height="28.15679"
       x="-0.54998595"
       y="-109.16773"
       transform="rotate(133.24303)" />
    <path
       sodipodi:type="star"
       style="opacity:1;fill:#ffffff;fill-opacity:1;stroke:#000000;stroke-width:0.2"
       id="path22765"
       inkscape:flatsided="false"
       sodipodi:sides="5"
       sodipodi:cx="20.266415"
       sodipodi:cy="21.533064"
       sodipodi:r1="28.374109"
       sodipodi:r2="8.5122328"
       sodipodi:arg1="0.91836688"
       sodipodi:arg2="1.5466854"
       inkscape:rounded="0.2"
       inkscape:randomized="0"
       d="M 37.492866,44.079448 C 33.986661,46.758347 24.882829,29.936444 20.471633,30.042823 16.060436,30.149201 7.7780556,47.390383 4.1467949,44.883609 0.51553427,42.376835 13.700876,28.520322 12.236569,24.357898 10.772262,20.195473 -8.184472,17.64628 -6.9225095,13.41811 -5.6605469,9.1899398 11.592274,17.448047 15.098479,14.769149 18.604684,12.09025 15.171159,-6.7264197 19.582355,-6.8327983 23.993552,-6.939177 21.47104,12.021126 25.1023,14.5279 c 3.631261,2.506775 20.46596,-6.5733731 21.930267,-2.410949 1.464306,4.162424 -17.347513,7.622429 -18.609475,11.850599 -1.261963,4.22817 12.575979,17.433 9.069774,20.111898 z"
       inkscape:transform-center-x="0.14801794"
       inkscape:transform-center-y="-1.8277216"
       transform="matrix(0.73666902,0,0,0.76686697,5.2169746,165.31687)" />
    <path
       sodipodi:type="star"
       style="opacity:1;fill:#ffffff;fill-opacity:1;stroke:#000000;stroke-width:0.2"
       id="path22769"
       inkscape:flatsided="true"
       sodipodi:sides="3"
       sodipodi:cx="23.813034"
       sodipodi:cy="120.0785"
       sodipodi:r1="21.485327"
       sodipodi:r2="6.4455986"
       sodipodi:arg1="0.91078728"
       sodipodi:arg2="1.9579848"
       inkscape:rounded="0.1"
       inkscape:randomized="0"
       d="M 36.986204,137.05162 C 34.046373,139.33328 3.0333544,126.68704 2.5272944,123.00024 2.0212345,119.31344 28.479713,98.7785 31.925604,100.18364 c 3.445891,1.40514 8.00043,34.58632 5.0606,36.86798 z"
       inkscape:transform-center-x="0.22463962"
       inkscape:transform-center-y="-1.8799748"
       transform="matrix(1.1234214,0,0,1.0688741,-2.7181639,3.1006497)" />
    <path
       sodipodi:type="star"
       style="opacity:1;fill:#ffffff;fill-opacity:1;stroke:#000000;stroke-width:0.2"
       id="path22771"
       inkscape:flatsided="false"
       sodipodi:sides="15"
       sodipodi:cx="10.893197"
       sodipodi:cy="61.559231"
       sodipodi:r1="18.877771"
       sodipodi:r2="6.6072197"
       sodipodi:arg1="0.69989287"
       sodipodi:arg2="0.90933238"
       inkscape:rounded="0.05"
       inkscape:randomized="0"
       d="m 25.333016,73.719078 c -0.402286,0.477714 -9.888367,-7.329766 -10.381184,-6.946131 -0.492817,0.383635 4.74875,11.495271 4.18694,11.768061 -0.56181,0.272789 -6.052188,-10.718036 -6.658437,-10.568015 -0.606249,0.150021 -0.337349,12.432944 -0.961541,12.45364 C 10.894602,80.44733 10.349263,68.173574 9.7344075,68.064041 9.1195523,67.954509 4.3692905,79.284888 3.7906444,79.049914 3.2119983,78.814939 7.7059927,67.380496 7.1888454,67.030349 6.6716981,66.680202 -2.2763627,75.098913 -2.7094094,74.648897 -3.1424562,74.19888 5.6138193,65.580868 5.2837993,65.05065 4.9537793,64.520432 -6.6448793,68.571803 -6.857449,67.984557 -7.0700187,67.397311 4.4344982,63.085863 4.348669,62.467253 4.2628399,61.848644 -7.9809032,60.832156 -7.9362406,60.20922 -7.8915781,59.586284 4.3719448,60.326889 4.5451471,59.726851 4.7183494,59.126814 -6.0534237,53.218227 -5.7592514,52.667312 -5.4650791,52.116398 5.4369752,57.780998 5.8392607,57.303284 6.2415462,56.82557 -1.1957195,47.046533 -0.70290255,46.662898 -0.21008564,46.279263 7.4454359,55.888398 8.0072458,55.615609 8.5690557,55.34282 5.7522682,43.384216 6.3585173,43.234195 c 0.606249,-0.150021 3.6915287,11.742142 4.3157207,11.721445 0.624192,-0.0207 2.914931,-12.091115 3.529786,-11.981583 0.614856,0.109533 -1.40358,12.22846 -0.824934,12.463435 0.578646,0.234974 7.580822,-9.860174 8.097969,-9.510027 0.517148,0.350147 -6.255997,10.600367 -5.82295,11.050383 0.433047,0.450016 10.93592,-5.924319 11.265939,-5.394101 0.33002,0.530218 -10.026695,7.139373 -9.814125,7.72662 0.21257,0.587246 12.400097,-0.964096 12.485926,-0.345487 0.08583,0.61861 -12.063686,2.443918 -12.108349,3.066855 -0.04466,0.622936 11.720186,4.162828 11.546983,4.762866 -0.173202,0.600037 -12.014757,-2.674114 -12.308929,-2.123199 -0.294172,0.550915 9.013747,8.569962 8.611462,9.047676 z"
       inkscape:transform-center-x="1.63045"
       inkscape:transform-center-y="-3.0663916"
       transform="matrix(1.0623227,0,0,1.0623227,8.5372134,164.4547)" />
    <path
       sodipodi:type="star"
       style="fill:#ffffff;fill-opacity:1;stroke:#000000;stroke-width:0.2"
       id="path22771-3"
       inkscape:flatsided="false"
       sodipodi:sides="15"
       sodipodi:cx="10.893197"
       sodipodi:cy="61.559231"
       sodipodi:r1="18.877771"
       sodipodi:r2="6.6072197"
       sodipodi:arg1="0.69989287"
       sodipodi:arg2="0.90933238"
       inkscape:rounded="0.05"
       inkscape:randomized="0"
       d="m 25.333016,73.719078 c -0.402286,0.477714 -9.888367,-7.329766 -10.381184,-6.946131 -0.492817,0.383635 4.74875,11.495271 4.18694,11.768061 -0.56181,0.272789 -6.052188,-10.718036 -6.658437,-10.568015 -0.606249,0.150021 -0.337349,12.432944 -0.961541,12.45364 C 10.894602,80.44733 10.349263,68.173574 9.7344075,68.064041 9.1195523,67.954509 4.3692905,79.284888 3.7906444,79.049914 3.2119983,78.814939 7.7059927,67.380496 7.1888454,67.030349 6.6716981,66.680202 -2.2763627,75.098913 -2.7094094,74.648897 -3.1424562,74.19888 5.6138193,65.580868 5.2837993,65.05065 4.9537793,64.520432 -6.6448793,68.571803 -6.857449,67.984557 -7.0700187,67.397311 4.4344982,63.085863 4.348669,62.467253 4.2628399,61.848644 -7.9809032,60.832156 -7.9362406,60.20922 -7.8915781,59.586284 4.3719448,60.326889 4.5451471,59.726851 4.7183494,59.126814 -6.0534237,53.218227 -5.7592514,52.667312 -5.4650791,52.116398 5.4369752,57.780998 5.8392607,57.303284 6.2415462,56.82557 -1.1957195,47.046533 -0.70290255,46.662898 -0.21008564,46.279263 7.4454359,55.888398 8.0072458,55.615609 8.5690557,55.34282 5.7522682,43.384216 6.3585173,43.234195 c 0.606249,-0.150021 3.6915287,11.742142 4.3157207,11.721445 0.624192,-0.0207 2.914931,-12.091115 3.529786,-11.981583 0.614856,0.109533 -1.40358,12.22846 -0.824934,12.463435 0.578646,0.234974 7.580822,-9.860174 8.097969,-9.510027 0.517148,0.350147 -6.255997,10.600367 -5.82295,11.050383 0.433047,0.450016 10.93592,-5.924319 11.265939,-5.394101 0.33002,0.530218 -10.026695,7.139373 -9.814125,7.72662 0.21257,0.587246 12.400097,-0.964096 12.485926,-0.345487 0.08583,0.61861 -12.063686,2.443918 -12.108349,3.066855 -0.04466,0.622936 11.720186,4.162828 11.546983,4.762866 -0.173202,0.600037 -12.014757,-2.674114 -12.308929,-2.123199 -0.294172,0.550915 9.013747,8.569962 8.611462,9.047676 z"
       inkscape:transform-center-x="1.63045"
       inkscape:transform-center-y="-3.0663916"
       transform="matrix(1.0623227,0,0,1.0623227,48.537213,164.4547)" />
    <path
       sodipodi:type="star"
       style="fill:#ffffff;fill-opacity:1;stroke:#000000;stroke-width:0.2"
       id="path22771-0"
       inkscape:flatsided="false"
       sodipodi:sides="15"
       sodipodi:cx="10.893197"
       sodipodi:cy="61.559231"
       sodipodi:r1="18.877771"
       sodipodi:r2="6.6072197"
       sodipodi:arg1="0.69989287"
       sodipodi:arg2="0.90933238"
       inkscape:rounded="0.05"
       inkscape:randomized="0"
       d="m 25.333016,73.719078 c -0.402286,0.477714 -9.888367,-7.329766 -10.381184,-6.946131 -0.492817,0.383635 4.74875,11.495271 4.18694,11.768061 -0.56181,0.272789 -6.052188,-10.718036 -6.658437,-10.568015 -0.606249,0.150021 -0.337349,12.432944 -0.961541,12.45364 C 10.894602,80.44733 10.349263,68.173574 9.7344075,68.064041 9.1195523,67.954509 4.3692905,79.284888 3.7906444,79.049914 3.2119983,78.814939 7.7059927,67.380496 7.1888454,67.030349 6.6716981,66.680202 -2.2763627,75.098913 -2.7094094,74.648897 -3.1424562,74.19888 5.6138193,65.580868 5.2837993,65.05065 4.9537793,64.520432 -6.6448793,68.571803 -6.857449,67.984557 -7.0700187,67.397311 4.4344982,63.085863 4.348669,62.467253 4.2628399,61.848644 -7.9809032,60.832156 -7.9362406,60.20922 -7.8915781,59.586284 4.3719448,60.326889 4.5451471,59.726851 4.7183494,59.126814 -6.0534237,53.218227 -5.7592514,52.667312 -5.4650791,52.116398 5.4369752,57.780998 5.8392607,57.303284 6.2415462,56.82557 -1.1957195,47.046533 -0.70290255,46.662898 -0.21008564,46.279263 7.4454359,55.888398 8.0072458,55.615609 8.5690557,55.34282 5.7522682,43.384216 6.3585173,43.234195 c 0.606249,-0.150021 3.6915287,11.742142 4.3157207,11.721445 0.624192,-0.0207 2.914931,-12.091115 3.529786,-11.981583 0.614856,0.109533 -1.40358,12.22846 -0.824934,12.463435 0.578646,0.234974 7.580822,-9.860174 8.097969,-9.510027 0.517148,0.350147 -6.255997,10.600367 -5.82295,11.050383 0.433047,0.450016 10.93592,-5.924319 11.265939,-5.394101 0.33002,0.530218 -10.026695,7.139373 -9.814125,7.72662 0.21257,0.587246 12.400097,-0.964096 12.485926,-0.345487 0.08583,0.61861 -12.063686,2.443918 -12.108349,3.066855 -0.04466,0.622936 11.720186,4.162828 11.546983,4.762866 -0.173202,0.600037 -12.014757,-2.674114 -12.308929,-2.123199 -0.294172,0.550915 9.013747,8.569962 8.611462,9.047676 z"
       inkscape:transform-center-x="1.63045"
       inkscape:transform-center-y="-3.0663916"
       transform="matrix(1.0623227,0,0,1.0623227,88.537213,164.4547)" />
    <path
       sodipodi:type="star"
       style="fill:#ffffff;fill-opacity:1;stroke:#000000;stroke-width:0.2"
       id="path22771-4"
       inkscape:flatsided="false"
       sodipodi:sides="15"
       sodipodi:cx="10.893197"
       sodipodi:cy="61.559231"
       sodipodi:r1="18.877771"
       sodipodi:r2="6.6072197"
       sodipodi:arg1="0.69989287"
       sodipodi:arg2="0.90933238"
       inkscape:rounded="0.05"
       inkscape:randomized="0"
       d="m 25.333016,73.719078 c -0.402286,0.477714 -9.888367,-7.329766 -10.381184,-6.946131 -0.492817,0.383635 4.74875,11.495271 4.18694,11.768061 -0.56181,0.272789 -6.052188,-10.718036 -6.658437,-10.568015 -0.606249,0.150021 -0.337349,12.432944 -0.961541,12.45364 C 10.894602,80.44733 10.349263,68.173574 9.7344075,68.064041 9.1195523,67.954509 4.3692905,79.284888 3.7906444,79.049914 3.2119983,78.814939 7.7059927,67.380496 7.1888454,67.030349 6.6716981,66.680202 -2.2763627,75.098913 -2.7094094,74.648897 -3.1424562,74.19888 5.6138193,65.580868 5.2837993,65.05065 4.9537793,64.520432 -6.6448793,68.571803 -6.857449,67.984557 -7.0700187,67.397311 4.4344982,63.085863 4.348669,62.467253 4.2628399,61.848644 -7.9809032,60.832156 -7.9362406,60.20922 -7.8915781,59.586284 4.3719448,60.326889 4.5451471,59.726851 4.7183494,59.126814 -6.0534237,53.218227 -5.7592514,52.667312 -5.4650791,52.116398 5.4369752,57.780998 5.8392607,57.303284 6.2415462,56.82557 -1.1957195,47.046533 -0.70290255,46.662898 -0.21008564,46.279263 7.4454359,55.888398 8.0072458,55.615609 8.5690557,55.34282 5.7522682,43.384216 6.3585173,43.234195 c 0.606249,-0.150021 3.6915287,11.742142 4.3157207,11.721445 0.624192,-0.0207 2.914931,-12.091115 3.529786,-11.981583 0.614856,0.109533 -1.40358,12.22846 -0.824934,12.463435 0.578646,0.234974 7.580822,-9.860174 8.097969,-9.510027 0.517148,0.350147 -6.255997,10.600367 -5.82295,11.050383 0.433047,0.450016 10.93592,-5.924319 11.265939,-5.394101 0.33002,0.530218 -10.026695,7.139373 -9.814125,7.72662 0.21257,0.587246 12.400097,-0.964096 12.485926,-0.345487 0.08583,0.61861 -12.063686,2.443918 -12.108349,3.066855 -0.04466,0.622936 11.720186,4.162828 11.546983,4.762866 -0.173202,0.600037 -12.014757,-2.674114 -12.308929,-2.123199 -0.294172,0.550915 9.013747,8.569962 8.611462,9.047676 z"
       inkscape:transform-center-x="1.63045"
       inkscape:transform-center-y="-3.0663916"
       transform="matrix(1.0623227,0,0,1.0623227,128.53721,164.4547)" />
    <path
       sodipodi:type="star"
       style="fill:#ffffff;fill-opacity:1;stroke:#000000;stroke-width:0.2"
       id="path22771-4-5"
       inkscape:flatsided="false"
       sodipodi:sides="15"
       sodipodi:cx="10.893197"
       sodipodi:cy="61.559231"
       sodipodi:r1="18.877771"
       sodipodi:r2="6.6072197"
       sodipodi:arg1="0.69989287"
       sodipodi:arg2="0.90933238"
       inkscape:rounded="0.05"
       inkscape:randomized="0"
       d="m 25.333016,73.719078 c -0.402286,0.477714 -9.888367,-7.329766 -10.381184,-6.946131 -0.492817,0.383635 4.74875,11.495271 4.18694,11.768061 -0.56181,0.272789 -6.052188,-10.718036 -6.658437,-10.568015 -0.606249,0.150021 -0.337349,12.432944 -0.961541,12.45364 C 10.894602,80.44733 10.349263,68.173574 9.7344075,68.064041 9.1195523,67.954509 4.3692905,79.284888 3.7906444,79.049914 3.2119983,78.814939 7.7059927,67.380496 7.1888454,67.030349 6.6716981,66.680202 -2.2763627,75.098913 -2.7094094,74.648897 -3.1424562,74.19888 5.6138193,65.580868 5.2837993,65.05065 4.9537793,64.520432 -6.6448793,68.571803 -6.857449,67.984557 -7.0700187,67.397311 4.4344982,63.085863 4.348669,62.467253 4.2628399,61.848644 -7.9809032,60.832156 -7.9362406,60.20922 -7.8915781,59.586284 4.3719448,60.326889 4.5451471,59.726851 4.7183494,59.126814 -6.0534237,53.218227 -5.7592514,52.667312 -5.4650791,52.116398 5.4369752,57.780998 5.8392607,57.303284 6.2415462,56.82557 -1.1957195,47.046533 -0.70290255,46.662898 -0.21008564,46.279263 7.4454359,55.888398 8.0072458,55.615609 8.5690557,55.34282 5.7522682,43.384216 6.3585173,43.234195 c 0.606249,-0.150021 3.6915287,11.742142 4.3157207,11.721445 0.624192,-0.0207 2.914931,-12.091115 3.529786,-11.981583 0.614856,0.109533 -1.40358,12.22846 -0.824934,12.463435 0.578646,0.234974 7.580822,-9.860174 8.097969,-9.510027 0.517148,0.350147 -6.255997,10.600367 -5.82295,11.050383 0.433047,0.450016 10.93592,-5.924319 11.265939,-5.394101 0.33002,0.530218 -10.026695,7.139373 -9.814125,7.72662 0.21257,0.587246 12.400097,-0.964096 12.485926,-0.345487 0.08583,0.61861 -12.063686,2.443918 -12.108349,3.066855 -0.04466,0.622936 11.720186,4.162828 11.546983,4.762866 -0.173202,0.600037 -12.014757,-2.674114 -12.308929,-2.123199 -0.294172,0.550915 9.013747,8.569962 8.611462,9.047676 z"
       inkscape:transform-center-x="1.63045"
       inkscape:transform-center-y="-3.0663916"
       transform="matrix(1.0623227,0,0,1.0623227,168.45719,164.4547)" />
    <path
       sodipodi:type="star"
       style="fill:#ffffff;fill-opacity:1;stroke:#000000;stroke-width:0.2"
       id="path22771-4-2"
       inkscape:flatsided="false"
       sodipodi:sides="15"
       sodipodi:cx="10.893197"
       sodipodi:cy="61.559231"
       sodipodi:r1="18.877771"
       sodipodi:r2="6.6072197"
       sodipodi:arg1="0.69989287"
       sodipodi:arg2="0.90933238"
       inkscape:rounded="0.05"
       inkscape:randomized="0"
       d="m 25.333016,73.719078 c -0.402286,0.477714 -9.888367,-7.329766 -10.381184,-6.946131 -0.492817,0.383635 4.74875,11.495271 4.18694,11.768061 -0.56181,0.272789 -6.052188,-10.718036 -6.658437,-10.568015 -0.606249,0.150021 -0.337349,12.432944 -0.961541,12.45364 C 10.894602,80.44733 10.349263,68.173574 9.7344075,68.064041 9.1195523,67.954509 4.3692905,79.284888 3.7906444,79.049914 3.2119983,78.814939 7.7059927,67.380496 7.1888454,67.030349 6.6716981,66.680202 -2.2763627,75.098913 -2.7094094,74.648897 -3.1424562,74.19888 5.6138193,65.580868 5.2837993,65.05065 4.9537793,64.520432 -6.6448793,68.571803 -6.857449,67.984557 -7.0700187,67.397311 4.4344982,63.085863 4.348669,62.467253 4.2628399,61.848644 -7.9809032,60.832156 -7.9362406,60.20922 -7.8915781,59.586284 4.3719448,60.326889 4.5451471,59.726851 4.7183494,59.126814 -6.0534237,53.218227 -5.7592514,52.667312 -5.4650791,52.116398 5.4369752,57.780998 5.8392607,57.303284 6.2415462,56.82557 -1.1957195,47.046533 -0.70290255,46.662898 -0.21008564,46.279263 7.4454359,55.888398 8.0072458,55.615609 8.5690557,55.34282 5.7522682,43.384216 6.3585173,43.234195 c 0.606249,-0.150021 3.6915287,11.742142 4.3157207,11.721445 0.624192,-0.0207 2.914931,-12.091115 3.529786,-11.981583 0.614856,0.109533 -1.40358,12.22846 -0.824934,12.463435 0.578646,0.234974 7.580822,-9.860174 8.097969,-9.510027 0.517148,0.350147 -6.255997,10.600367 -5.82295,11.050383 0.433047,0.450016 10.93592,-5.924319 11.265939,-5.394101 0.33002,0.530218 -10.026695,7.139373 -9.814125,7.72662 0.21257,0.587246 12.400097,-0.964096 12.485926,-0.345487 0.08583,0.61861 -12.063686,2.443918 -12.108349,3.066855 -0.04466,0.622936 11.720186,4.162828 11.546983,4.762866 -0.173202,0.600037 -12.014757,-2.674114 -12.308929,-2.123199 -0.294172,0.550915 9.013747,8.569962 8.611462,9.047676 z"
       inkscape:transform-center-x="1.63045"
       inkscape:transform-center-y="-3.0663916"
       transform="matrix(1.0623227,0,0,1.0623227,208.45719,164.4547)" />
    <path
       sodipodi:type="star"
       style="fill:#ffffff;fill-opacity:1;stroke:#000000;stroke-width:0.2"
       id="path22771-4-4"
       inkscape:flatsided="false"
       sodipodi:sides="15"
       sodipodi:cx="10.893197"
       sodipodi:cy="61.559231"
       sodipodi:r1="18.877771"
       sodipodi:r2="6.6072197"
       sodipodi:arg1="0.69989287"
       sodipodi:arg2="0.90933238"
       inkscape:rounded="0.05"
       inkscape:randomized="0"
       d="m 25.333016,73.719078 c -0.402286,0.477714 -9.888367,-7.329766 -10.381184,-6.946131 -0.492817,0.383635 4.74875,11.495271 4.18694,11.768061 -0.56181,0.272789 -6.052188,-10.718036 -6.658437,-10.568015 -0.606249,0.150021 -0.337349,12.432944 -0.961541,12.45364 C 10.894602,80.44733 10.349263,68.173574 9.7344075,68.064041 9.1195523,67.954509 4.3692905,79.284888 3.7906444,79.049914 3.2119983,78.814939 7.7059927,67.380496 7.1888454,67.030349 6.6716981,66.680202 -2.2763627,75.098913 -2.7094094,74.648897 -3.1424562,74.19888 5.6138193,65.580868 5.2837993,65.05065 4.9537793,64.520432 -6.6448793,68.571803 -6.857449,67.984557 -7.0700187,67.397311 4.4344982,63.085863 4.348669,62.467253 4.2628399,61.848644 -7.9809032,60.832156 -7.9362406,60.20922 -7.8915781,59.586284 4.3719448,60.326889 4.5451471,59.726851 4.7183494,59.126814 -6.0534237,53.218227 -5.7592514,52.667312 -5.4650791,52.116398 5.4369752,57.780998 5.8392607,57.303284 6.2415462,56.82557 -1.1957195,47.046533 -0.70290255,46.662898 -0.21008564,46.279263 7.4454359,55.888398 8.0072458,55.615609 8.5690557,55.34282 5.7522682,43.384216 6.3585173,43.234195 c 0.606249,-0.150021 3.6915287,11.742142 4.3157207,11.721445 0.624192,-0.0207 2.914931,-12.091115 3.529786,-11.981583 0.614856,0.109533 -1.40358,12.22846 -0.824934,12.463435 0.578646,0.234974 7.580822,-9.860174 8.097969,-9.510027 0.517148,0.350147 -6.255997,10.600367 -5.82295,11.050383 0.433047,0.450016 10.93592,-5.924319 11.265939,-5.394101 0.33002,0.530218 -10.026695,7.139373 -9.814125,7.72662 0.21257,0.587246 12.400097,-0.964096 12.485926,-0.345487 0.08583,0.61861 -12.063686,2.443918 -12.108349,3.066855 -0.04466,0.622936 11.720186,4.162828 11.546983,4.762866 -0.173202,0.600037 -12.014757,-2.674114 -12.308929,-2.123199 -0.294172,0.550915 9.013747,8.569962 8.611462,9.047676 z"
       inkscape:transform-center-x="1.63045"
       inkscape:transform-center-y="-3.0663916"
       transform="matrix(1.0623227,0,0,1.0623227,248.45719,164.4547)" />
  </g>
</svg>
