<?xml version="1.0" encoding="UTF-8" standalone="no"?>
<!-- Created with Inkscape (http://www.inkscape.org/) -->

<svg
   width="300mm"
   height="300mm"
   viewBox="0 0 300 300"
   version="1.1"
   id="svg9486"
   inkscape:version="1.2.2 (732a01da63, 2022-12-09)"
   sodipodi:docname="star_100.svg"
   inkscape:export-filename="double_circle.png"
   inkscape:export-xdpi="25.38308"
   inkscape:export-ydpi="25.38308"
   xmlns:inkscape="http://www.inkscape.org/namespaces/inkscape"
   xmlns:sodipodi="http://sodipodi.sourceforge.net/DTD/sodipodi-0.dtd"
   xmlns="http://www.w3.org/2000/svg"
   xmlns:svg="http://www.w3.org/2000/svg">
  <sodipodi:namedview
     id="namedview9488"
     pagecolor="#ffffff"
     bordercolor="#000000"
     borderopacity="0.25"
     inkscape:showpageshadow="2"
     inkscape:pageopacity="0.0"
     inkscape:pagecheckerboard="0"
     inkscape:deskcolor="#d1d1d1"
     inkscape:document-units="mm"
     showgrid="false"
     inkscape:zoom="0.52221046"
     inkscape:cx="440.43545"
     inkscape:cy="605.12001"
     inkscape:window-width="1920"
     inkscape:window-height="1009"
     inkscape:window-x="-8"
     inkscape:window-y="-8"
     inkscape:window-maximized="1"
     inkscape:current-layer="layer1" />
  <defs
     id="defs9483" />
  <g
     inkscape:label="Layer 1"
     inkscape:groupmode="layer"
     id="layer1">
    <rect
       style="fill:#000000;fill-opacity:1;stroke:#000000;stroke-width:0.2"
       id="rect9607"
       width="300"
       height="300"
       x="0.31479841"
       y="0.46319574" />
    <path
       sodipodi:type="star"
       style="fill:#ffffff;fill-opacity:1;stroke:#000000;stroke-width:0.2;image-rendering:auto"
       id="path16899"
       inkscape:flatsided="false"
       sodipodi:sides="5"
       sodipodi:cx="55.889023"
       sodipodi:cy="76.668274"
       sodipodi:r1="194.16266"
       sodipodi:r2="58.248798"
       sodipodi:arg1="2.390124"
       sodipodi:arg2="3.0184425"
       inkscape:rounded="0.2"
       inkscape:randomized="0"
       d="M -85.983106,209.22557 C -106.59719,187.16293 1.7904157,113.78921 -1.918634,83.823504 -5.6276838,53.857798 -128.63407,9.1252101 -114.02136,-17.297681 -99.408643,-43.720571 3.8675259,36.688441 31.220446,23.901013 58.573367,11.113585 63.105521,-119.69557 92.750761,-113.96318 122.396,-108.23078 77.836577,14.838442 98.450661,36.901083 119.06475,58.963723 244.87216,22.851806 248.58121,52.817512 252.29026,82.783217 121.47485,78.435169 106.86214,104.85806 92.249423,131.28095 165.47053,239.77171 138.11761,252.55914 110.76469,265.34657 74.475742,139.59011 44.830503,133.85771 c -29.645239,-5.7324 -110.199524,97.4305 -130.813609,75.36786 z"
       inkscape:transform-center-x="0.06596781"
       inkscape:transform-center-y="-5.1297548"
       transform="matrix(0.26532622,-0.05607732,0.05242504,0.27806187,131.31343,136.91849)" />
  </g>
</svg>
