<?xml version="1.0" encoding="UTF-8" standalone="no"?>
<!-- Created with Inkscape (http://www.inkscape.org/) -->

<svg
   width="120.61619mm"
   height="84.089607mm"
   viewBox="0 0 120.61619 84.089607"
   version="1.1"
   id="svg5"
   sodipodi:docname="mipi.svg"
   inkscape:version="1.2.2 (b0a8486541, 2022-12-01)"
   xmlns:inkscape="http://www.inkscape.org/namespaces/inkscape"
   xmlns:sodipodi="http://sodipodi.sourceforge.net/DTD/sodipodi-0.dtd"
   xmlns="http://www.w3.org/2000/svg"
   xmlns:svg="http://www.w3.org/2000/svg"
   xmlns:ns7="http://www.iki.fi/pav/software/textext/">
  <sodipodi:namedview
     id="namedview7"
     pagecolor="#ffffff"
     bordercolor="#666666"
     borderopacity="1.0"
     inkscape:showpageshadow="2"
     inkscape:pageopacity="0.0"
     inkscape:pagecheckerboard="0"
     inkscape:deskcolor="#d1d1d1"
     inkscape:document-units="mm"
     showgrid="false"
     inkscape:zoom="2.3786088"
     inkscape:cx="266.33215"
     inkscape:cy="159.54704"
     inkscape:window-width="2560"
     inkscape:window-height="1351"
     inkscape:window-x="2560"
     inkscape:window-y="28"
     inkscape:window-maximized="1"
     inkscape:current-layer="layer1" />
  <defs
     id="defs2">
    <marker
       style="overflow:visible"
       id="Arrow2"
       refX="0"
       refY="0"
       orient="auto-start-reverse"
       inkscape:stockid="Arrow2"
       markerWidth="7.6999998"
       markerHeight="5.5999999"
       viewBox="0 0 7.7 5.6"
       inkscape:isstock="true"
       inkscape:collect="always"
       preserveAspectRatio="xMidYMid">
      <path
         transform="scale(0.7)"
         d="M -2,-4 9,0 -2,4 c 2,-2.33 2,-5.66 0,-8 z"
         style="fill:context-stroke;fill-rule:evenodd;stroke:none"
         id="arrow2L" />
    </marker>
  </defs>
  <g
     inkscape:label="Layer 1"
     inkscape:groupmode="layer"
     id="layer1"
     transform="translate(-27.477245,-9.7388039)">
    <rect
       style="fill:#e6e6e6;fill-opacity:1;stroke-width:1.465;stroke-linecap:round;stroke-linejoin:round;paint-order:stroke fill markers"
       id="rect111"
       width="57.67234"
       height="20.428829"
       x="57.646339"
       y="9.7388039"
       rx="1.6964712"
       ry="1.6964712" />
    <text
       xml:space="preserve"
       style="font-size:4.23333px;line-height:1.25;font-family:'Open Sans';-inkscape-font-specification:'Open Sans';stroke-width:0.264583"
       x="70.865723"
       y="14.73865"
       id="text1623"><tspan
         sodipodi:role="line"
         id="tspan1621"
         style="font-weight:bold;stroke-width:0.264583"
         x="70.865723"
         y="14.73865">ThermalElastic</tspan></text>
    <path
       style="fill:none;stroke:#000000;stroke-width:0.264583px;stroke-linecap:butt;stroke-linejoin:miter;stroke-opacity:1"
       d="M 57.646852,16.787894 H 115.36991"
       id="path1738" />
    <g
       transform="matrix(0.352778,0,0,0.352778,77.530977,21.722123)"
       ns7:version="1.8.2"
       ns7:texconverter="pdflatex"
       ns7:pdfconverter="inkscape"
       ns7:text="$$\\boldsymbol{\\varepsilon}_0 = \\alpha \\Delta T \\mathbf{I}$$"
       ns7:preamble="/home/brunnels/.config/inkscape/extensions/textext/default_packages.tex"
       ns7:scale="1.0"
       ns7:alignment="middle center"
       ns7:stroke-to-path="0"
       ns7:jacobian_sqrt="0.352778"
       id="g2161">
      <defs
         id="id-b107c889-440c-4817-8325-e2e4cb888161">
        <g
           id="id-08f9f2d7-31f8-4144-90f2-33a1920609da">
          <g
             id="id-67564677-4d5b-4be8-a3af-1aa4ec3f7d1c">
            <path
               d="M 4.109375,-1.078125 C 3.875,-0.625 3.265625,-0.59375 2.40625,-0.59375 c -0.625,0 -1.5625,0 -1.5625,-0.65625 0,-0.203125 0.140625,-0.578125 0.484375,-0.84375 C 1.75,-1.875 2.28125,-1.875 2.46875,-1.875 c 0.265625,0 1.015625,0 1.015625,-0.546875 0,-0.40625 -0.53125,-0.40625 -0.84375,-0.40625 -0.203125,0 -0.734375,0 -1.265625,0.25 C 1.296875,-2.6875 1.25,-2.828125 1.25,-2.9375 c 0,-0.546875 0.6875,-0.90625 1.875,-0.90625 0.28125,0 0.59375,0 1.015625,0.3125 0.09375,0.046875 0.15625,0.078125 0.21875,0.078125 0.21875,0 0.453125,-0.21875 0.453125,-0.453125 0,-0.1875 -0.15625,-0.3125 -0.53125,-0.484375 C 3.84375,-4.59375 3.46875,-4.59375 3.3125,-4.59375 c -1.703125,0 -2.53125,0.953125 -2.53125,1.65625 0,0.3125 0.15625,0.515625 0.21875,0.578125 -0.40625,0.34375 -0.65625,0.75 -0.65625,1.234375 0,0.6875 0.546875,1.296875 1.890625,1.296875 1.625,0 2.140625,-0.953125 2.140625,-1.109375 0,-0.09375 -0.0625,-0.171875 -0.171875,-0.171875 -0.046875,0 -0.09375,0.03125 -0.09375,0.03125 z M 1.765625,-2.34375 c 0.359375,-0.125 0.734375,-0.125 0.84375,-0.125 0.265625,0 0.296875,0 0.40625,0.046875 -0.03125,0.125 -0.0625,0.1875 -0.546875,0.1875 -0.171875,0 -0.421875,0 -0.703125,-0.109375 z m 0,0"
               id="id-3be9ac9c-dde4-43ea-b9f8-1af12e0be484" />
          </g>
          <g
             id="id-4a0e50cc-581e-4984-ae9d-d7fab1ffa497">
            <path
               d="M 3.59375,-2.21875 C 3.59375,-2.984375 3.5,-3.546875 3.1875,-4.03125 2.96875,-4.34375 2.53125,-4.625 1.984375,-4.625 c -1.625,0 -1.625,1.90625 -1.625,2.40625 0,0.5 0,2.359375 1.625,2.359375 1.609375,0 1.609375,-1.859375 1.609375,-2.359375 z M 1.984375,-0.0625 c -0.328125,0 -0.75,-0.1875 -0.890625,-0.75 C 1,-1.21875 1,-1.796875 1,-2.3125 1,-2.828125 1,-3.359375 1.09375,-3.734375 1.25,-4.28125 1.6875,-4.4375 1.984375,-4.4375 c 0.375,0 0.734375,0.234375 0.859375,0.640625 0.109375,0.375 0.125,0.875 0.125,1.484375 0,0.515625 0,1.03125 -0.09375,1.46875 -0.140625,0.640625 -0.609375,0.78125 -0.890625,0.78125 z m 0,0"
               id="id-151091f3-ece6-4ade-a84b-93594e9f610b" />
          </g>
          <g
             id="id-ca0d0049-9cf9-4801-bd15-3cec201d320e">
            <path
               d="m 6.84375,-3.265625 c 0.15625,0 0.34375,0 0.34375,-0.1875 C 7.1875,-3.65625 7,-3.65625 6.859375,-3.65625 h -5.96875 c -0.140625,0 -0.328125,0 -0.328125,0.203125 0,0.1875 0.1875,0.1875 0.328125,0.1875 z m 0.015625,1.9375 c 0.140625,0 0.328125,0 0.328125,-0.203125 0,-0.1875 -0.1875,-0.1875 -0.34375,-0.1875 H 0.890625 c -0.140625,0 -0.328125,0 -0.328125,0.1875 0,0.203125 0.1875,0.203125 0.328125,0.203125 z m 0,0"
               id="id-c8d0f3fd-41e0-4316-a34d-8e31bfdbdf33" />
          </g>
          <g
             id="id-469f03cf-d8bc-4e72-80fe-8d9aa48a5234">
            <path
               d="m 4.40625,-6.953125 c -0.0625,-0.140625 -0.09375,-0.1875 -0.265625,-0.1875 -0.15625,0 -0.1875,0.046875 -0.25,0.1875 l -3.375,6.75 C 0.46875,-0.109375 0.46875,-0.09375 0.46875,-0.078125 0.46875,0 0.53125,0 0.6875,0 h 6.921875 c 0.15625,0 0.21875,0 0.21875,-0.078125 0,-0.015625 0,-0.03125 -0.046875,-0.125 z m -0.578125,0.8125 2.6875,5.390625 h -5.375 z m 0,0"
               id="id-3e0387bc-7d44-4fdb-847e-0e21eee87f54" />
          </g>
          <g
             id="id-94e389a8-2151-475a-a018-996fa33e32dd">
            <path
               d="m 4.75,-2.359375 c 0,-1.5625 -0.921875,-2.046875 -1.65625,-2.046875 -1.375,0 -2.6875,1.421875 -2.6875,2.828125 0,0.9375 0.59375,1.6875 1.625,1.6875 0.625,0 1.34375,-0.234375 2.09375,-0.84375 0.125,0.53125 0.453125,0.84375 0.90625,0.84375 0.53125,0 0.84375,-0.546875 0.84375,-0.703125 0,-0.078125 -0.0625,-0.109375 -0.125,-0.109375 -0.0625,0 -0.09375,0.03125 -0.125,0.109375 -0.1875,0.484375 -0.546875,0.484375 -0.5625,0.484375 -0.3125,0 -0.3125,-0.78125 -0.3125,-1.015625 0,-0.203125 0,-0.234375 0.109375,-0.34375 C 5.796875,-2.65625 6,-3.8125 6,-3.8125 6,-3.84375 5.984375,-3.921875 5.875,-3.921875 c -0.09375,0 -0.09375,0.03125 -0.140625,0.21875 -0.1875,0.625 -0.515625,1.375 -0.984375,1.96875 z m -0.65625,1.375 c -0.890625,0.765625 -1.65625,0.875 -2.046875,0.875 -0.59375,0 -0.90625,-0.453125 -0.90625,-1.09375 0,-0.484375 0.265625,-1.5625 0.578125,-2.0625 C 2.1875,-4 2.734375,-4.1875 3.078125,-4.1875 c 0.984375,0 0.984375,1.3125 0.984375,2.078125 0,0.375 0,0.953125 0.03125,1.125 z m 0,0"
               id="id-b44b04e1-f959-4ec9-a88d-db15d0d0613c" />
          </g>
          <g
             id="id-ecc28fe8-05f4-4200-b685-180ef535598a">
            <path
               d="m 4.25,-6.046875 c 0.078125,-0.28125 0.109375,-0.34375 0.234375,-0.375 0.09375,-0.015625 0.421875,-0.015625 0.625,-0.015625 1.015625,0 1.453125,0.03125 1.453125,0.8125 0,0.15625 -0.03125,0.546875 -0.078125,0.796875 0,0.046875 -0.03125,0.15625 -0.03125,0.1875 0,0.0625 0.03125,0.140625 0.125,0.140625 0.109375,0 0.125,-0.078125 0.15625,-0.234375 L 7,-6.46875 C 7.015625,-6.515625 7.015625,-6.609375 7.015625,-6.640625 7.015625,-6.75 6.921875,-6.75 6.75,-6.75 H 1.21875 c -0.234375,0 -0.25,0.015625 -0.328125,0.203125 l -0.59375,1.75 c 0,0.015625 -0.0625,0.15625 -0.0625,0.1875 0,0.046875 0.0625,0.109375 0.125,0.109375 0.09375,0 0.109375,-0.0625 0.171875,-0.21875 C 1.0625,-6.265625 1.328125,-6.4375 2.796875,-6.4375 H 3.1875 c 0.28125,0 0.28125,0.03125 0.28125,0.125 0,0.046875 -0.03125,0.171875 -0.046875,0.203125 L 2.09375,-0.78125 C 2,-0.421875 1.96875,-0.3125 0.90625,-0.3125 c -0.359375,0 -0.421875,0 -0.421875,0.1875 C 0.484375,0 0.59375,0 0.65625,0 c 0.265625,0 0.546875,-0.015625 0.8125,-0.015625 0.28125,0 0.578125,-0.015625 0.859375,-0.015625 0.28125,0 0.546875,0.015625 0.828125,0.015625 C 3.4375,-0.015625 3.734375,0 4.015625,0 c 0.09375,0 0.21875,0 0.21875,-0.203125 0,-0.109375 -0.078125,-0.109375 -0.34375,-0.109375 -0.234375,0 -0.375,0 -0.625,-0.015625 -0.296875,-0.03125 -0.375,-0.0625 -0.375,-0.21875 0,-0.015625 0,-0.0625 0.046875,-0.203125 z m 0,0"
               id="id-06baf4aa-62f3-4a56-b6d6-cd04b8be94f2" />
          </g>
          <g
             id="id-02236f05-7a8d-478d-9133-f8c34ebc4e0b">
            <path
               d="M 2.875,-6.375 H 4.015625 V -6.84375 C 3.609375,-6.8125 2.625,-6.8125 2.171875,-6.8125 c -0.453125,0 -1.4375,0 -1.84375,-0.03125 V -6.375 H 1.46875 v 5.90625 H 0.328125 V 0 c 0.40625,-0.03125 1.390625,-0.03125 1.84375,-0.03125 0.453125,0 1.4375,0 1.84375,0.03125 V -0.46875 H 2.875 Z m 0,0"
               id="id-03ad5c9c-e854-4766-a219-c27531321243" />
          </g>
        </g>
      </defs>
      <g
         fill="#000000"
         fill-opacity="1"
         id="id-47d08920-0c64-4ea9-b88c-ea853083a9d1"
         transform="translate(-281.326,-139.579)">
        <g
           transform="translate(280.982,146.72)"
           id="g2635">
          <path
             d="M 4.109375,-1.078125 C 3.875,-0.625 3.265625,-0.59375 2.40625,-0.59375 c -0.625,0 -1.5625,0 -1.5625,-0.65625 0,-0.203125 0.140625,-0.578125 0.484375,-0.84375 C 1.75,-1.875 2.28125,-1.875 2.46875,-1.875 c 0.265625,0 1.015625,0 1.015625,-0.546875 0,-0.40625 -0.53125,-0.40625 -0.84375,-0.40625 -0.203125,0 -0.734375,0 -1.265625,0.25 C 1.296875,-2.6875 1.25,-2.828125 1.25,-2.9375 c 0,-0.546875 0.6875,-0.90625 1.875,-0.90625 0.28125,0 0.59375,0 1.015625,0.3125 0.09375,0.046875 0.15625,0.078125 0.21875,0.078125 0.21875,0 0.453125,-0.21875 0.453125,-0.453125 0,-0.1875 -0.15625,-0.3125 -0.53125,-0.484375 C 3.84375,-4.59375 3.46875,-4.59375 3.3125,-4.59375 c -1.703125,0 -2.53125,0.953125 -2.53125,1.65625 0,0.3125 0.15625,0.515625 0.21875,0.578125 -0.40625,0.34375 -0.65625,0.75 -0.65625,1.234375 0,0.6875 0.546875,1.296875 1.890625,1.296875 1.625,0 2.140625,-0.953125 2.140625,-1.109375 0,-0.09375 -0.0625,-0.171875 -0.171875,-0.171875 -0.046875,0 -0.09375,0.03125 -0.09375,0.03125 z M 1.765625,-2.34375 c 0.359375,-0.125 0.734375,-0.125 0.84375,-0.125 0.265625,0 0.296875,0 0.40625,0.046875 -0.03125,0.125 -0.0625,0.1875 -0.546875,0.1875 -0.171875,0 -0.421875,0 -0.703125,-0.109375 z m 0,0"
             id="id-bd0597e6-ebfa-4a1b-b09a-0200e16a83c5" />
        </g>
      </g>
      <g
         fill="#000000"
         fill-opacity="1"
         id="id-97ccc3f0-9e88-4a5a-88d7-7591254e377d"
         transform="translate(-281.326,-139.579)">
        <g
           transform="translate(286.25,148.214)"
           id="g2639">
          <path
             d="M 3.59375,-2.21875 C 3.59375,-2.984375 3.5,-3.546875 3.1875,-4.03125 2.96875,-4.34375 2.53125,-4.625 1.984375,-4.625 c -1.625,0 -1.625,1.90625 -1.625,2.40625 0,0.5 0,2.359375 1.625,2.359375 1.609375,0 1.609375,-1.859375 1.609375,-2.359375 z M 1.984375,-0.0625 c -0.328125,0 -0.75,-0.1875 -0.890625,-0.75 C 1,-1.21875 1,-1.796875 1,-2.3125 1,-2.828125 1,-3.359375 1.09375,-3.734375 1.25,-4.28125 1.6875,-4.4375 1.984375,-4.4375 c 0.375,0 0.734375,0.234375 0.859375,0.640625 0.109375,0.375 0.125,0.875 0.125,1.484375 0,0.515625 0,1.03125 -0.09375,1.46875 -0.140625,0.640625 -0.609375,0.78125 -0.890625,0.78125 z m 0,0"
             id="id-452ce879-f28f-4203-8c99-ee1dc392eda3" />
        </g>
      </g>
      <g
         fill="#000000"
         fill-opacity="1"
         id="id-064fbdaa-614c-4d41-a390-21449d80069c"
         transform="translate(-281.326,-139.579)">
        <g
           transform="translate(293.487,146.72)"
           id="g2643">
          <path
             d="m 6.84375,-3.265625 c 0.15625,0 0.34375,0 0.34375,-0.1875 C 7.1875,-3.65625 7,-3.65625 6.859375,-3.65625 h -5.96875 c -0.140625,0 -0.328125,0 -0.328125,0.203125 0,0.1875 0.1875,0.1875 0.328125,0.1875 z m 0.015625,1.9375 c 0.140625,0 0.328125,0 0.328125,-0.203125 0,-0.1875 -0.1875,-0.1875 -0.34375,-0.1875 H 0.890625 c -0.140625,0 -0.328125,0 -0.328125,0.1875 0,0.203125 0.1875,0.203125 0.328125,0.203125 z m 0,0"
             id="id-4beaa955-add8-4225-be6c-48565654cb36" />
        </g>
      </g>
      <g
         fill="#000000"
         fill-opacity="1"
         id="id-720c61e0-812b-4f5d-b582-be9ac55bd450"
         transform="translate(-281.326,-139.579)">
        <g
           transform="translate(304.003,146.72)"
           id="g2647">
          <path
             d="m 4.75,-2.359375 c 0,-1.5625 -0.921875,-2.046875 -1.65625,-2.046875 -1.375,0 -2.6875,1.421875 -2.6875,2.828125 0,0.9375 0.59375,1.6875 1.625,1.6875 0.625,0 1.34375,-0.234375 2.09375,-0.84375 0.125,0.53125 0.453125,0.84375 0.90625,0.84375 0.53125,0 0.84375,-0.546875 0.84375,-0.703125 0,-0.078125 -0.0625,-0.109375 -0.125,-0.109375 -0.0625,0 -0.09375,0.03125 -0.125,0.109375 -0.1875,0.484375 -0.546875,0.484375 -0.5625,0.484375 -0.3125,0 -0.3125,-0.78125 -0.3125,-1.015625 0,-0.203125 0,-0.234375 0.109375,-0.34375 C 5.796875,-2.65625 6,-3.8125 6,-3.8125 6,-3.84375 5.984375,-3.921875 5.875,-3.921875 c -0.09375,0 -0.09375,0.03125 -0.140625,0.21875 -0.1875,0.625 -0.515625,1.375 -0.984375,1.96875 z m -0.65625,1.375 c -0.890625,0.765625 -1.65625,0.875 -2.046875,0.875 -0.59375,0 -0.90625,-0.453125 -0.90625,-1.09375 0,-0.484375 0.265625,-1.5625 0.578125,-2.0625 C 2.1875,-4 2.734375,-4.1875 3.078125,-4.1875 c 0.984375,0 0.984375,1.3125 0.984375,2.078125 0,0.375 0,0.953125 0.03125,1.125 z m 0,0"
             id="id-4d1cc47f-927e-4d01-ade2-b4e1b4d665a9" />
        </g>
      </g>
      <g
         fill="#000000"
         fill-opacity="1"
         id="id-a9b4606a-027f-43a6-afd3-7553a436c67e"
         transform="translate(-281.326,-139.579)">
        <g
           transform="translate(310.413,146.72)"
           id="g2651">
          <path
             d="m 4.40625,-6.953125 c -0.0625,-0.140625 -0.09375,-0.1875 -0.265625,-0.1875 -0.15625,0 -0.1875,0.046875 -0.25,0.1875 l -3.375,6.75 C 0.46875,-0.109375 0.46875,-0.09375 0.46875,-0.078125 0.46875,0 0.53125,0 0.6875,0 h 6.921875 c 0.15625,0 0.21875,0 0.21875,-0.078125 0,-0.015625 0,-0.03125 -0.046875,-0.125 z m -0.578125,0.8125 2.6875,5.390625 h -5.375 z m 0,0"
             id="id-fd7bbb9e-c5af-482f-b887-cb4d0f05e293" />
        </g>
      </g>
      <g
         fill="#000000"
         fill-opacity="1"
         id="id-0d95d05b-6574-4703-8b5c-21fa1c1c6e33"
         transform="translate(-281.326,-139.579)">
        <g
           transform="translate(318.715,146.72)"
           id="g2655">
          <path
             d="m 4.25,-6.046875 c 0.078125,-0.28125 0.109375,-0.34375 0.234375,-0.375 0.09375,-0.015625 0.421875,-0.015625 0.625,-0.015625 1.015625,0 1.453125,0.03125 1.453125,0.8125 0,0.15625 -0.03125,0.546875 -0.078125,0.796875 0,0.046875 -0.03125,0.15625 -0.03125,0.1875 0,0.0625 0.03125,0.140625 0.125,0.140625 0.109375,0 0.125,-0.078125 0.15625,-0.234375 L 7,-6.46875 C 7.015625,-6.515625 7.015625,-6.609375 7.015625,-6.640625 7.015625,-6.75 6.921875,-6.75 6.75,-6.75 H 1.21875 c -0.234375,0 -0.25,0.015625 -0.328125,0.203125 l -0.59375,1.75 c 0,0.015625 -0.0625,0.15625 -0.0625,0.1875 0,0.046875 0.0625,0.109375 0.125,0.109375 0.09375,0 0.109375,-0.0625 0.171875,-0.21875 C 1.0625,-6.265625 1.328125,-6.4375 2.796875,-6.4375 H 3.1875 c 0.28125,0 0.28125,0.03125 0.28125,0.125 0,0.046875 -0.03125,0.171875 -0.046875,0.203125 L 2.09375,-0.78125 C 2,-0.421875 1.96875,-0.3125 0.90625,-0.3125 c -0.359375,0 -0.421875,0 -0.421875,0.1875 C 0.484375,0 0.59375,0 0.65625,0 c 0.265625,0 0.546875,-0.015625 0.8125,-0.015625 0.28125,0 0.578125,-0.015625 0.859375,-0.015625 0.28125,0 0.546875,0.015625 0.828125,0.015625 C 3.4375,-0.015625 3.734375,0 4.015625,0 c 0.09375,0 0.21875,0 0.21875,-0.203125 0,-0.109375 -0.078125,-0.109375 -0.34375,-0.109375 -0.234375,0 -0.375,0 -0.625,-0.015625 -0.296875,-0.03125 -0.375,-0.0625 -0.375,-0.21875 0,-0.015625 0,-0.0625 0.046875,-0.203125 z m 0,0"
             id="id-ce19ef94-8be7-4900-a959-e4ece2ce112c" />
        </g>
      </g>
      <g
         fill="#000000"
         fill-opacity="1"
         id="id-7e8af461-e6d2-490d-a485-e815946f4a14"
         transform="translate(-281.326,-139.579)">
        <g
           transform="translate(325.921,146.72)"
           id="g2659">
          <path
             d="M 2.875,-6.375 H 4.015625 V -6.84375 C 3.609375,-6.8125 2.625,-6.8125 2.171875,-6.8125 c -0.453125,0 -1.4375,0 -1.84375,-0.03125 V -6.375 H 1.46875 v 5.90625 H 0.328125 V 0 c 0.40625,-0.03125 1.390625,-0.03125 1.84375,-0.03125 0.453125,0 1.4375,0 1.84375,0.03125 V -0.46875 H 2.875 Z m 0,0"
             id="id-b9e577af-0e93-4ed3-8217-1919ce5d2b6e" />
        </g>
      </g>
    </g>
    <rect
       style="fill:#e6e6e6;fill-opacity:1;stroke-width:1.465;stroke-linecap:round;stroke-linejoin:round;paint-order:stroke fill markers"
       id="rect2703"
       width="57.67234"
       height="20.428829"
       x="27.477245"
       y="41.590275"
       rx="1.6964712"
       ry="1.6964712" />
    <text
       xml:space="preserve"
       style="font-size:4.23333px;line-height:1.25;font-family:'Open Sans';-inkscape-font-specification:'Open Sans';stroke-width:0.264583"
       x="44.778053"
       y="46.590122"
       id="text2707"><tspan
         sodipodi:role="line"
         id="tspan2705"
         style="font-weight:bold;stroke-width:0.264583"
         x="44.778053"
         y="46.590122">Mechanics</tspan></text>
    <path
       style="fill:none;stroke:#000000;stroke-width:0.264583px;stroke-linecap:butt;stroke-linejoin:miter;stroke-opacity:1"
       d="M 27.477759,48.639364 H 85.200817"
       id="path2709" />
    <g
       transform="matrix(0.352778,0,0,0.352778,44.296698,52.9594)"
       ns7:version="1.8.2"
       ns7:texconverter="pdflatex"
       ns7:pdfconverter="inkscape"
       ns7:text="$$\\operatorname{div}\\Big(\\mathbb{C}(\\boldsymbol{\\varepsilon}-\\boldsymbol{\\varepsilon_0})\\Big) + \\mathbf{b} = \\mathbf{0}$$"
       ns7:preamble="/home/brunnels/.config/inkscape/extensions/textext/default_packages.tex"
       ns7:scale="1.0"
       ns7:alignment="middle center"
       ns7:stroke-to-path="0"
       ns7:jacobian_sqrt="0.352778"
       id="g2785">
      <defs
         id="id-9744b3a1-0235-4b8f-ae9a-46c82b41ae19">
        <g
           id="id-956e2530-dade-479e-98c4-1d0a399898d6">
          <g
             id="id-d5bb97ed-c168-4ea6-9e65-9e38887c9c79">
            <path
               d="m 3.78125,-0.546875 v 0.65625 L 5.25,0 v -0.3125 c -0.6875,0 -0.78125,-0.0625 -0.78125,-0.5625 V -6.921875 L 3.046875,-6.8125 V -6.5 c 0.6875,0 0.765625,0.0625 0.765625,0.5625 v 2.15625 c -0.28125,-0.359375 -0.71875,-0.625 -1.25,-0.625 -1.171875,0 -2.21875,0.984375 -2.21875,2.265625 0,1.265625 0.96875,2.25 2.109375,2.25 0.640625,0 1.078125,-0.34375 1.328125,-0.65625 z m 0,-2.671875 v 2.046875 c 0,0.171875 0,0.1875 -0.109375,0.359375 C 3.375,-0.328125 2.9375,-0.109375 2.5,-0.109375 2.046875,-0.109375 1.6875,-0.375 1.453125,-0.75 1.203125,-1.15625 1.171875,-1.71875 1.171875,-2.140625 1.171875,-2.5 1.1875,-3.09375 1.46875,-3.546875 1.6875,-3.859375 2.0625,-4.1875 2.609375,-4.1875 c 0.34375,0 0.765625,0.15625 1.0625,0.59375 0.109375,0.171875 0.109375,0.1875 0.109375,0.375 z m 0,0"
               id="id-42ae3778-e79f-407b-84d5-36e2102c6723" />
          </g>
          <g
             id="id-e4d35102-6ce5-4336-961c-fad6b2fabf84">
            <path
               d="M 1.765625,-4.40625 0.375,-4.296875 v 0.3125 c 0.640625,0 0.734375,0.0625 0.734375,0.546875 V -0.75 c 0,0.4375 -0.109375,0.4375 -0.78125,0.4375 V 0 C 0.640625,-0.015625 1.1875,-0.03125 1.421875,-0.03125 1.78125,-0.03125 2.125,-0.015625 2.46875,0 v -0.3125 c -0.671875,0 -0.703125,-0.046875 -0.703125,-0.4375 z m 0.03125,-1.734375 c 0,-0.3125 -0.234375,-0.53125 -0.515625,-0.53125 -0.3125,0 -0.53125,0.265625 -0.53125,0.53125 0,0.265625 0.21875,0.53125 0.53125,0.53125 0.28125,0 0.515625,-0.21875 0.515625,-0.53125 z m 0,0"
               id="id-e87fd354-1b9f-4643-ad19-f6372f7481af" />
          </g>
          <g
             id="id-5c48c416-b01c-44ac-acb9-cc5f9a59b66a">
            <path
               d="M 4.140625,-3.3125 C 4.234375,-3.546875 4.40625,-3.984375 5.0625,-3.984375 v -0.3125 c -0.234375,0.015625 -0.515625,0.03125 -0.75,0.03125 -0.234375,0 -0.6875,-0.015625 -0.859375,-0.03125 v 0.3125 c 0.359375,0 0.46875,0.234375 0.46875,0.421875 0,0.09375 -0.015625,0.140625 -0.046875,0.25 L 2.84375,-0.78125 1.734375,-3.5625 c -0.0625,-0.125 -0.0625,-0.140625 -0.0625,-0.171875 0,-0.25 0.390625,-0.25 0.578125,-0.25 v -0.3125 c -0.3125,0.015625 -0.859375,0.03125 -1.09375,0.03125 -0.265625,0 -0.671875,-0.015625 -0.96875,-0.03125 v 0.3125 c 0.625,0 0.671875,0.0625 0.796875,0.359375 l 1.4375,3.546875 C 2.484375,0.0625 2.5,0.109375 2.625,0.109375 c 0.140625,0 0.171875,-0.09375 0.21875,-0.1875 z m 0,0"
               id="id-fe5e94b2-7d19-4699-b9fb-042dd9a80ab0" />
          </g>
          <g
             id="id-85a0a461-1c59-4cf8-b268-f4b0a9b62fdd">
            <path
               d="m 3.296875,2.390625 c 0,-0.03125 0,-0.046875 -0.171875,-0.21875 C 1.890625,0.921875 1.5625,-0.96875 1.5625,-2.5 c 0,-1.734375 0.375,-3.46875 1.609375,-4.703125 0.125,-0.125 0.125,-0.140625 0.125,-0.171875 0,-0.078125 -0.03125,-0.109375 -0.09375,-0.109375 -0.109375,0 -1,0.6875 -1.59375,1.953125 -0.5,1.09375 -0.625,2.203125 -0.625,3.03125 0,0.78125 0.109375,1.984375 0.65625,3.125 C 2.25,1.84375 3.09375,2.5 3.203125,2.5 c 0.0625,0 0.09375,-0.03125 0.09375,-0.109375 z m 0,0"
               id="id-f576fa66-c45b-4e06-885c-f5b0df429d72" />
          </g>
          <g
             id="id-008f5e52-a2ed-4540-b2d1-36dc72b8f446">
            <path
               d="m 2.875,-2.5 c 0,-0.765625 -0.109375,-1.96875 -0.65625,-3.109375 -0.59375,-1.21875 -1.453125,-1.875 -1.546875,-1.875 -0.0625,0 -0.109375,0.046875 -0.109375,0.109375 0,0.03125 0,0.046875 0.1875,0.234375 0.984375,0.984375 1.546875,2.5625 1.546875,4.640625 0,1.71875 -0.359375,3.46875 -1.59375,4.71875 C 0.5625,2.34375 0.5625,2.359375 0.5625,2.390625 0.5625,2.453125 0.609375,2.5 0.671875,2.5 0.765625,2.5 1.671875,1.8125 2.25,0.546875 2.765625,-0.546875 2.875,-1.65625 2.875,-2.5 Z m 0,0"
               id="id-83434723-58e0-4b80-9c3e-12235fd9110a" />
          </g>
          <g
             id="id-fd978548-4121-4582-9f62-03e11c55f5f2">
            <path
               d="m 4.078125,-2.296875 h 2.78125 C 7,-2.296875 7.1875,-2.296875 7.1875,-2.5 7.1875,-2.6875 7,-2.6875 6.859375,-2.6875 h -2.78125 v -2.796875 c 0,-0.140625 0,-0.328125 -0.203125,-0.328125 -0.203125,0 -0.203125,0.1875 -0.203125,0.328125 V -2.6875 h -2.78125 c -0.140625,0 -0.328125,0 -0.328125,0.1875 0,0.203125 0.1875,0.203125 0.328125,0.203125 h 2.78125 V 0.5 c 0,0.140625 0,0.328125 0.203125,0.328125 0.203125,0 0.203125,-0.1875 0.203125,-0.328125 z m 0,0"
               id="id-05507036-ce76-4fe4-a199-9afbd0e8f0ef" />
          </g>
          <g
             id="id-8d7456d2-9965-48a1-bc54-d0750648eb27">
            <path
               d="m 6.84375,-3.265625 c 0.15625,0 0.34375,0 0.34375,-0.1875 C 7.1875,-3.65625 7,-3.65625 6.859375,-3.65625 h -5.96875 c -0.140625,0 -0.328125,0 -0.328125,0.203125 0,0.1875 0.1875,0.1875 0.328125,0.1875 z m 0.015625,1.9375 c 0.140625,0 0.328125,0 0.328125,-0.203125 0,-0.1875 -0.1875,-0.1875 -0.34375,-0.1875 H 0.890625 c -0.140625,0 -0.328125,0 -0.328125,0.1875 0,0.203125 0.1875,0.203125 0.328125,0.203125 z m 0,0"
               id="id-81e28078-bc21-4ad3-b4d6-da379ee793fa" />
          </g>
          <g
             id="id-d7f0af5d-f581-4f3d-a74f-b7a5bbcbdc82">
            <path
               d="M 5.140625,17.421875 C 5.15625,17.4375 5.25,17.53125 5.25,17.53125 h 0.21875 c 0.03125,0 0.109375,0 0.109375,-0.09375 0,-0.04687 -0.015625,-0.0625 -0.03125,-0.09375 -0.359375,-0.359375 -0.90625,-0.90625 -1.515625,-2 -1.078125,-1.921875 -1.484375,-4.375 -1.484375,-6.765625 0,-4.4375 1.265625,-7.03125 3,-8.796875 0.03125,-0.03125 0.03125,-0.0625 0.03125,-0.078125 0,-0.109375 -0.0625,-0.109375 -0.1875,-0.109375 -0.125,0 -0.140625,0 -0.234375,0.09375 C 4.203125,0.5 3.140625,1.890625 2.453125,3.984375 2.03125,5.296875 1.796875,6.90625 1.796875,8.5625 c 0,2.359375 0.421875,5.03125 1.984375,7.34375 0.28125,0.390625 0.640625,0.796875 0.640625,0.8125 C 4.53125,16.84375 4.671875,17 4.75,17.0625 Z m 0,0"
               id="id-72c1d648-576f-4470-ab3a-916f4ec79d96" />
          </g>
          <g
             id="id-a9cc8e16-5009-4bef-8f58-8de0f9860ebc">
            <path
               d="m 4.140625,8.5625 c 0,-2.859375 -0.65625,-5.90625 -2.625,-8.140625 C 1.375,0.265625 1,-0.125 0.765625,-0.34375 c -0.0625,-0.0625 -0.09375,-0.0625 -0.21875,-0.0625 -0.09375,0 -0.1875,0 -0.1875,0.109375 0,0.03125 0.046875,0.078125 0.0625,0.09375 0.328125,0.359375 0.875,0.90625 1.484375,2 1.078125,1.90625 1.484375,4.375 1.484375,6.765625 0,4.328125 -1.203125,6.96875 -2.984375,8.796875 C 0.375,17.375 0.359375,17.40625 0.359375,17.4375 c 0,0.09375 0.09375,0.09375 0.1875,0.09375 0.125,0 0.15625,0 0.234375,-0.07813 0.953125,-0.8125 2.015625,-2.203125 2.703125,-4.296875 0.4375,-1.375 0.65625,-2.984375 0.65625,-4.59375 z m 0,0"
               id="id-ce4562a4-af97-471d-b25f-c8c225a2ad32" />
          </g>
          <g
             id="id-b0a0ba5d-ddf2-4b31-91c9-cdd37f1edc88">
            <path
               d="m 6.546875,-6.6875 c 0,-0.171875 0,-0.328125 -0.171875,-0.328125 0,0 -0.15625,0 -0.171875,0.171875 C 6.171875,-6.5625 5.9375,-6.5625 5.875,-6.5625 c -0.359375,0 -0.703125,-0.140625 -0.90625,-0.234375 -0.5,-0.21875 -0.9375,-0.21875 -1.09375,-0.21875 -1.65625,0 -3.5,1.046875 -3.5,3.59375 0,2.546875 1.796875,3.609375 3.515625,3.609375 0.53125,0 1.25,-0.109375 1.96875,-0.546875 0.453125,-0.28125 0.96875,-0.78125 0.96875,-0.921875 0,-0.140625 -0.15625,-0.203125 -0.203125,-0.203125 -0.078125,0 -0.109375,0.03125 -0.21875,0.140625 -0.578125,0.65625 -1.46875,1.046875 -2.34375,1.046875 -1.546875,0 -1.9375,-1.5625 -1.9375,-3.109375 0,-1.953125 0.71875,-3.265625 1.78125,-3.265625 0.75,0 1.953125,0.734375 2.28125,1.78125 0.03125,0.09375 0.0625,0.203125 0.1875,0.203125 0.171875,0 0.171875,-0.171875 0.171875,-0.34375 z m -0.34375,1.03125 c -0.125,-0.171875 -0.25,-0.3125 -0.5,-0.5625 0.046875,0.015625 0.125,0.015625 0.171875,0.015625 0.109375,0 0.25,-0.03125 0.328125,-0.078125 z M 2.65625,-6.4375 c -0.21875,0.234375 -0.875,1.078125 -0.875,3.03125 0,1 0.140625,2.375 1.046875,3.09375 C 1.1875,-0.84375 0.71875,-2.1875 0.71875,-3.40625 c 0,-1.84375 1,-2.71875 1.9375,-3.046875 z m 0,0"
               id="id-1fba4578-0da6-46ec-9918-4d75d0837455" />
          </g>
          <g
             id="id-25ec595d-ae0a-48a4-8dd2-a44e374df440">
            <path
               d="M 4.109375,-1.078125 C 3.875,-0.625 3.265625,-0.59375 2.40625,-0.59375 c -0.625,0 -1.5625,0 -1.5625,-0.65625 0,-0.203125 0.140625,-0.578125 0.484375,-0.84375 C 1.75,-1.875 2.28125,-1.875 2.46875,-1.875 c 0.265625,0 1.015625,0 1.015625,-0.546875 0,-0.40625 -0.53125,-0.40625 -0.84375,-0.40625 -0.203125,0 -0.734375,0 -1.265625,0.25 C 1.296875,-2.6875 1.25,-2.828125 1.25,-2.9375 c 0,-0.546875 0.6875,-0.90625 1.875,-0.90625 0.28125,0 0.59375,0 1.015625,0.3125 0.09375,0.046875 0.15625,0.078125 0.21875,0.078125 0.21875,0 0.453125,-0.21875 0.453125,-0.453125 0,-0.1875 -0.15625,-0.3125 -0.53125,-0.484375 C 3.84375,-4.59375 3.46875,-4.59375 3.3125,-4.59375 c -1.703125,0 -2.53125,0.953125 -2.53125,1.65625 0,0.3125 0.15625,0.515625 0.21875,0.578125 -0.40625,0.34375 -0.65625,0.75 -0.65625,1.234375 0,0.6875 0.546875,1.296875 1.890625,1.296875 1.625,0 2.140625,-0.953125 2.140625,-1.109375 0,-0.09375 -0.0625,-0.171875 -0.171875,-0.171875 -0.046875,0 -0.09375,0.03125 -0.09375,0.03125 z M 1.765625,-2.34375 c 0.359375,-0.125 0.734375,-0.125 0.84375,-0.125 0.265625,0 0.296875,0 0.40625,0.046875 -0.03125,0.125 -0.0625,0.1875 -0.546875,0.1875 -0.171875,0 -0.421875,0 -0.703125,-0.109375 z m 0,0"
               id="id-2767ab68-7cc1-4daf-b680-5101ea51381b" />
          </g>
          <g
             id="id-a41183f3-e82b-4239-aec4-e1ed869eb920">
            <path
               d="m 6.5625,-2.296875 c 0.171875,0 0.359375,0 0.359375,-0.203125 0,-0.1875 -0.1875,-0.1875 -0.359375,-0.1875 H 1.171875 c -0.171875,0 -0.34375,0 -0.34375,0.1875 0,0.203125 0.171875,0.203125 0.34375,0.203125 z m 0,0"
               id="id-c004e810-896c-4780-8fb4-42fb3b28f1ec" />
          </g>
          <g
             id="id-efa217ab-e4ca-430c-ba09-c14af3372ee6">
            <path
               d="m 4.125,-2.21875 c 0,-0.859375 -0.09375,-2.359375 -1.875,-2.359375 -1.78125,0 -1.875,1.515625 -1.875,2.359375 0,0.875 0.109375,2.296875 1.875,2.296875 1.765625,0 1.875,-1.40625 1.875,-2.296875 z M 2.25,-0.234375 c -0.21875,0 -0.4375,-0.078125 -0.59375,-0.21875 C 1.46875,-0.625 1.34375,-0.71875 1.34375,-2.3125 c 0,-0.46875 0,-1.03125 0.078125,-1.359375 C 1.53125,-4.125 1.96875,-4.25 2.25,-4.25 c 0.265625,0 0.71875,0.109375 0.828125,0.59375 0.078125,0.328125 0.078125,0.90625 0.078125,1.34375 0,0.5 0,1 -0.0625,1.390625 -0.109375,0.5625 -0.578125,0.6875 -0.84375,0.6875 z m 0,0"
               id="id-911ff30b-a769-44b4-91a4-e557f50ef0fe" />
          </g>
          <g
             id="id-4f19d5ce-be5d-4d84-996a-f461fbf0dcae">
            <path
               d="M 2.140625,-4 V -6.921875 L 0.375,-6.84375 V -6.375 c 0.609375,0 0.6875,0 0.6875,0.390625 V 0 h 0.46875 l 0.484375,-0.5625 c 0.078125,0.078125 0.5625,0.625 1.453125,0.625 1.484375,0 2.515625,-0.90625 2.515625,-2.28125 0,-1.328125 -0.9375,-2.265625 -2.390625,-2.265625 C 2.875,-4.484375 2.375,-4.203125 2.140625,-4 Z M 2.1875,-0.984375 v -2.5 C 2.46875,-3.84375 2.9375,-4.125 3.484375,-4.125 c 1.21875,0 1.21875,1.203125 1.21875,1.90625 0,0.46875 0,1.015625 -0.25,1.40625 -0.296875,0.40625 -0.75,0.515625 -1.078125,0.515625 -0.6875,0 -1.078125,-0.546875 -1.1875,-0.6875 z m 0,0"
               id="id-ef4d5ba5-fb0d-4c1b-8de4-5307359ab5fc" />
          </g>
          <g
             id="id-9c05c191-311a-4261-b5f7-e76ee257fecd">
            <path
               d="m 5.28125,-3.1875 c 0,-0.953125 -0.015625,-3.34375 -2.421875,-3.34375 -2.40625,0 -2.40625,2.375 -2.40625,3.34375 0,1 0,3.296875 2.40625,3.296875 C 5.25,0.109375 5.28125,-2.1875 5.28125,-3.1875 Z M 2.859375,-0.25 C 2.5,-0.25 1.9375,-0.46875 1.8125,-1.203125 1.71875,-1.71875 1.71875,-2.75 1.71875,-3.296875 c 0,-0.71875 0,-1.375 0.078125,-1.890625 0.125,-0.890625 0.828125,-0.984375 1.0625,-0.984375 0.375,0 0.78125,0.1875 0.96875,0.625 C 4,-5.171875 4,-4.109375 4,-3.296875 4,-2.734375 4,-1.828125 3.921875,-1.3125 3.78125,-0.390625 3.15625,-0.25 2.859375,-0.25 Z m 0,0"
               id="id-0687e3ed-a094-487f-803c-78ad736b6d3e" />
          </g>
        </g>
      </defs>
      <g
         fill="#000000"
         fill-opacity="1"
         id="id-ad9e8c24-cd14-496d-a9c0-213d2933653a"
         transform="translate(-252.227,-135.255)">
        <g
           transform="translate(251.883,146.72)"
           id="g3303">
          <path
             d="m 3.78125,-0.546875 v 0.65625 L 5.25,0 v -0.3125 c -0.6875,0 -0.78125,-0.0625 -0.78125,-0.5625 V -6.921875 L 3.046875,-6.8125 V -6.5 c 0.6875,0 0.765625,0.0625 0.765625,0.5625 v 2.15625 c -0.28125,-0.359375 -0.71875,-0.625 -1.25,-0.625 -1.171875,0 -2.21875,0.984375 -2.21875,2.265625 0,1.265625 0.96875,2.25 2.109375,2.25 0.640625,0 1.078125,-0.34375 1.328125,-0.65625 z m 0,-2.671875 v 2.046875 c 0,0.171875 0,0.1875 -0.109375,0.359375 C 3.375,-0.328125 2.9375,-0.109375 2.5,-0.109375 2.046875,-0.109375 1.6875,-0.375 1.453125,-0.75 1.203125,-1.15625 1.171875,-1.71875 1.171875,-2.140625 1.171875,-2.5 1.1875,-3.09375 1.46875,-3.546875 1.6875,-3.859375 2.0625,-4.1875 2.609375,-4.1875 c 0.34375,0 0.765625,0.15625 1.0625,0.59375 0.109375,0.171875 0.109375,0.1875 0.109375,0.375 z m 0,0"
             id="id-128acf15-7ede-4d57-be18-0204e56ef548" />
        </g>
        <g
           transform="translate(257.418,146.72)"
           id="g3306">
          <path
             d="M 1.765625,-4.40625 0.375,-4.296875 v 0.3125 c 0.640625,0 0.734375,0.0625 0.734375,0.546875 V -0.75 c 0,0.4375 -0.109375,0.4375 -0.78125,0.4375 V 0 C 0.640625,-0.015625 1.1875,-0.03125 1.421875,-0.03125 1.78125,-0.03125 2.125,-0.015625 2.46875,0 v -0.3125 c -0.671875,0 -0.703125,-0.046875 -0.703125,-0.4375 z m 0.03125,-1.734375 c 0,-0.3125 -0.234375,-0.53125 -0.515625,-0.53125 -0.3125,0 -0.53125,0.265625 -0.53125,0.53125 0,0.265625 0.21875,0.53125 0.53125,0.53125 0.28125,0 0.515625,-0.21875 0.515625,-0.53125 z m 0,0"
             id="id-b74ce079-493a-4332-b401-e37071e54a35" />
        </g>
        <g
           transform="translate(260.186,146.72)"
           id="g3309">
          <path
             d="M 4.140625,-3.3125 C 4.234375,-3.546875 4.40625,-3.984375 5.0625,-3.984375 v -0.3125 c -0.234375,0.015625 -0.515625,0.03125 -0.75,0.03125 -0.234375,0 -0.6875,-0.015625 -0.859375,-0.03125 v 0.3125 c 0.359375,0 0.46875,0.234375 0.46875,0.421875 0,0.09375 -0.015625,0.140625 -0.046875,0.25 L 2.84375,-0.78125 1.734375,-3.5625 c -0.0625,-0.125 -0.0625,-0.140625 -0.0625,-0.171875 0,-0.25 0.390625,-0.25 0.578125,-0.25 v -0.3125 c -0.3125,0.015625 -0.859375,0.03125 -1.09375,0.03125 -0.265625,0 -0.671875,-0.015625 -0.96875,-0.03125 v 0.3125 c 0.625,0 0.671875,0.0625 0.796875,0.359375 l 1.4375,3.546875 C 2.484375,0.0625 2.5,0.109375 2.625,0.109375 c 0.140625,0 0.171875,-0.09375 0.21875,-0.1875 z m 0,0"
             id="id-a100cd2d-d3b5-4cf9-8c20-c52d18fab2c6" />
        </g>
      </g>
      <g
         fill="#000000"
         fill-opacity="1"
         id="id-8e4c306d-069c-42b5-871c-1a62295b06dd"
         transform="translate(-252.227,-135.255)">
        <g
           transform="translate(267.242,135.661)"
           id="g3313">
          <path
             d="M 5.140625,17.421875 C 5.15625,17.4375 5.25,17.53125 5.25,17.53125 h 0.21875 c 0.03125,0 0.109375,0 0.109375,-0.09375 0,-0.04687 -0.015625,-0.0625 -0.03125,-0.09375 -0.359375,-0.359375 -0.90625,-0.90625 -1.515625,-2 -1.078125,-1.921875 -1.484375,-4.375 -1.484375,-6.765625 0,-4.4375 1.265625,-7.03125 3,-8.796875 0.03125,-0.03125 0.03125,-0.0625 0.03125,-0.078125 0,-0.109375 -0.0625,-0.109375 -0.1875,-0.109375 -0.125,0 -0.140625,0 -0.234375,0.09375 C 4.203125,0.5 3.140625,1.890625 2.453125,3.984375 2.03125,5.296875 1.796875,6.90625 1.796875,8.5625 c 0,2.359375 0.421875,5.03125 1.984375,7.34375 0.28125,0.390625 0.640625,0.796875 0.640625,0.8125 C 4.53125,16.84375 4.671875,17 4.75,17.0625 Z m 0,0"
             id="id-0d42cf17-0163-473c-a288-9fc5ce4d3dc9" />
        </g>
      </g>
      <g
         fill="#000000"
         fill-opacity="1"
         id="id-5d91eaaa-b77c-4628-9db7-5118703b2c5b"
         transform="translate(-252.227,-135.255)">
        <g
           transform="translate(273.192,146.72)"
           id="g3317">
          <path
             d="m 6.546875,-6.6875 c 0,-0.171875 0,-0.328125 -0.171875,-0.328125 0,0 -0.15625,0 -0.171875,0.171875 C 6.171875,-6.5625 5.9375,-6.5625 5.875,-6.5625 c -0.359375,0 -0.703125,-0.140625 -0.90625,-0.234375 -0.5,-0.21875 -0.9375,-0.21875 -1.09375,-0.21875 -1.65625,0 -3.5,1.046875 -3.5,3.59375 0,2.546875 1.796875,3.609375 3.515625,3.609375 0.53125,0 1.25,-0.109375 1.96875,-0.546875 0.453125,-0.28125 0.96875,-0.78125 0.96875,-0.921875 0,-0.140625 -0.15625,-0.203125 -0.203125,-0.203125 -0.078125,0 -0.109375,0.03125 -0.21875,0.140625 -0.578125,0.65625 -1.46875,1.046875 -2.34375,1.046875 -1.546875,0 -1.9375,-1.5625 -1.9375,-3.109375 0,-1.953125 0.71875,-3.265625 1.78125,-3.265625 0.75,0 1.953125,0.734375 2.28125,1.78125 0.03125,0.09375 0.0625,0.203125 0.1875,0.203125 0.171875,0 0.171875,-0.171875 0.171875,-0.34375 z m -0.34375,1.03125 c -0.125,-0.171875 -0.25,-0.3125 -0.5,-0.5625 0.046875,0.015625 0.125,0.015625 0.171875,0.015625 0.109375,0 0.25,-0.03125 0.328125,-0.078125 z M 2.65625,-6.4375 c -0.21875,0.234375 -0.875,1.078125 -0.875,3.03125 0,1 0.140625,2.375 1.046875,3.09375 C 1.1875,-0.84375 0.71875,-2.1875 0.71875,-3.40625 c 0,-1.84375 1,-2.71875 1.9375,-3.046875 z m 0,0"
             id="id-cfcd3616-8f7f-4a3f-846f-21936bf89457" />
        </g>
      </g>
      <g
         fill="#000000"
         fill-opacity="1"
         id="id-27d550e2-44f3-41d5-94b1-c0aa36982bfd"
         transform="translate(-252.227,-135.255)">
        <g
           transform="translate(280.387,146.72)"
           id="g3321">
          <path
             d="m 3.296875,2.390625 c 0,-0.03125 0,-0.046875 -0.171875,-0.21875 C 1.890625,0.921875 1.5625,-0.96875 1.5625,-2.5 c 0,-1.734375 0.375,-3.46875 1.609375,-4.703125 0.125,-0.125 0.125,-0.140625 0.125,-0.171875 0,-0.078125 -0.03125,-0.109375 -0.09375,-0.109375 -0.109375,0 -1,0.6875 -1.59375,1.953125 -0.5,1.09375 -0.625,2.203125 -0.625,3.03125 0,0.78125 0.109375,1.984375 0.65625,3.125 C 2.25,1.84375 3.09375,2.5 3.203125,2.5 c 0.0625,0 0.09375,-0.03125 0.09375,-0.109375 z m 0,0"
             id="id-54ee7b35-2454-4e96-b967-7251b952cedb" />
        </g>
      </g>
      <g
         fill="#000000"
         fill-opacity="1"
         id="id-6a484dcf-e76c-4aaa-a4e1-aad0203bb133"
         transform="translate(-252.227,-135.255)">
        <g
           transform="translate(284.262,146.72)"
           id="g3325">
          <path
             d="M 4.109375,-1.078125 C 3.875,-0.625 3.265625,-0.59375 2.40625,-0.59375 c -0.625,0 -1.5625,0 -1.5625,-0.65625 0,-0.203125 0.140625,-0.578125 0.484375,-0.84375 C 1.75,-1.875 2.28125,-1.875 2.46875,-1.875 c 0.265625,0 1.015625,0 1.015625,-0.546875 0,-0.40625 -0.53125,-0.40625 -0.84375,-0.40625 -0.203125,0 -0.734375,0 -1.265625,0.25 C 1.296875,-2.6875 1.25,-2.828125 1.25,-2.9375 c 0,-0.546875 0.6875,-0.90625 1.875,-0.90625 0.28125,0 0.59375,0 1.015625,0.3125 0.09375,0.046875 0.15625,0.078125 0.21875,0.078125 0.21875,0 0.453125,-0.21875 0.453125,-0.453125 0,-0.1875 -0.15625,-0.3125 -0.53125,-0.484375 C 3.84375,-4.59375 3.46875,-4.59375 3.3125,-4.59375 c -1.703125,0 -2.53125,0.953125 -2.53125,1.65625 0,0.3125 0.15625,0.515625 0.21875,0.578125 -0.40625,0.34375 -0.65625,0.75 -0.65625,1.234375 0,0.6875 0.546875,1.296875 1.890625,1.296875 1.625,0 2.140625,-0.953125 2.140625,-1.109375 0,-0.09375 -0.0625,-0.171875 -0.171875,-0.171875 -0.046875,0 -0.09375,0.03125 -0.09375,0.03125 z M 1.765625,-2.34375 c 0.359375,-0.125 0.734375,-0.125 0.84375,-0.125 0.265625,0 0.296875,0 0.40625,0.046875 -0.03125,0.125 -0.0625,0.1875 -0.546875,0.1875 -0.171875,0 -0.421875,0 -0.703125,-0.109375 z m 0,0"
             id="id-7d933202-1b5f-486b-bdd8-5b62d344e4d8" />
        </g>
      </g>
      <g
         fill="#000000"
         fill-opacity="1"
         id="id-9a99f1f5-c12f-47f2-b244-b0610d24dbc0"
         transform="translate(-252.227,-135.255)">
        <g
           transform="translate(291.744,146.72)"
           id="g3329">
          <path
             d="m 6.5625,-2.296875 c 0.171875,0 0.359375,0 0.359375,-0.203125 0,-0.1875 -0.1875,-0.1875 -0.359375,-0.1875 H 1.171875 c -0.171875,0 -0.34375,0 -0.34375,0.1875 0,0.203125 0.171875,0.203125 0.34375,0.203125 z m 0,0"
             id="id-5a7f3918-893a-487a-92bd-fde3f66153ec" />
        </g>
      </g>
      <g
         fill="#000000"
         fill-opacity="1"
         id="id-df052dec-2545-420b-8488-fc2a152f50bc"
         transform="translate(-252.227,-135.255)">
        <g
           transform="translate(301.707,146.72)"
           id="g3333">
          <path
             d="M 4.109375,-1.078125 C 3.875,-0.625 3.265625,-0.59375 2.40625,-0.59375 c -0.625,0 -1.5625,0 -1.5625,-0.65625 0,-0.203125 0.140625,-0.578125 0.484375,-0.84375 C 1.75,-1.875 2.28125,-1.875 2.46875,-1.875 c 0.265625,0 1.015625,0 1.015625,-0.546875 0,-0.40625 -0.53125,-0.40625 -0.84375,-0.40625 -0.203125,0 -0.734375,0 -1.265625,0.25 C 1.296875,-2.6875 1.25,-2.828125 1.25,-2.9375 c 0,-0.546875 0.6875,-0.90625 1.875,-0.90625 0.28125,0 0.59375,0 1.015625,0.3125 0.09375,0.046875 0.15625,0.078125 0.21875,0.078125 0.21875,0 0.453125,-0.21875 0.453125,-0.453125 0,-0.1875 -0.15625,-0.3125 -0.53125,-0.484375 C 3.84375,-4.59375 3.46875,-4.59375 3.3125,-4.59375 c -1.703125,0 -2.53125,0.953125 -2.53125,1.65625 0,0.3125 0.15625,0.515625 0.21875,0.578125 -0.40625,0.34375 -0.65625,0.75 -0.65625,1.234375 0,0.6875 0.546875,1.296875 1.890625,1.296875 1.625,0 2.140625,-0.953125 2.140625,-1.109375 0,-0.09375 -0.0625,-0.171875 -0.171875,-0.171875 -0.046875,0 -0.09375,0.03125 -0.09375,0.03125 z M 1.765625,-2.34375 c 0.359375,-0.125 0.734375,-0.125 0.84375,-0.125 0.265625,0 0.296875,0 0.40625,0.046875 -0.03125,0.125 -0.0625,0.1875 -0.546875,0.1875 -0.171875,0 -0.421875,0 -0.703125,-0.109375 z m 0,0"
             id="id-5e568344-955f-428e-ad9e-9a86fbfdb771" />
        </g>
      </g>
      <g
         fill="#000000"
         fill-opacity="1"
         id="id-67711d0f-dc56-42ca-b479-2d89afc96778"
         transform="translate(-252.227,-135.255)">
        <g
           transform="translate(306.975,148.214)"
           id="g3337">
          <path
             d="m 4.125,-2.21875 c 0,-0.859375 -0.09375,-2.359375 -1.875,-2.359375 -1.78125,0 -1.875,1.515625 -1.875,2.359375 0,0.875 0.109375,2.296875 1.875,2.296875 1.765625,0 1.875,-1.40625 1.875,-2.296875 z M 2.25,-0.234375 c -0.21875,0 -0.4375,-0.078125 -0.59375,-0.21875 C 1.46875,-0.625 1.34375,-0.71875 1.34375,-2.3125 c 0,-0.46875 0,-1.03125 0.078125,-1.359375 C 1.53125,-4.125 1.96875,-4.25 2.25,-4.25 c 0.265625,0 0.71875,0.109375 0.828125,0.59375 0.078125,0.328125 0.078125,0.90625 0.078125,1.34375 0,0.5 0,1 -0.0625,1.390625 -0.109375,0.5625 -0.578125,0.6875 -0.84375,0.6875 z m 0,0"
             id="id-d20583af-cbb8-4552-95ed-63c4f1ba2f54" />
        </g>
      </g>
      <g
         fill="#000000"
         fill-opacity="1"
         id="id-64ad3485-5f6a-4b0a-b761-b4ed1f6b1ed8"
         transform="translate(-252.227,-135.255)">
        <g
           transform="translate(311.987,146.72)"
           id="g3341">
          <path
             d="m 2.875,-2.5 c 0,-0.765625 -0.109375,-1.96875 -0.65625,-3.109375 -0.59375,-1.21875 -1.453125,-1.875 -1.546875,-1.875 -0.0625,0 -0.109375,0.046875 -0.109375,0.109375 0,0.03125 0,0.046875 0.1875,0.234375 0.984375,0.984375 1.546875,2.5625 1.546875,4.640625 0,1.71875 -0.359375,3.46875 -1.59375,4.71875 C 0.5625,2.34375 0.5625,2.359375 0.5625,2.390625 0.5625,2.453125 0.609375,2.5 0.671875,2.5 0.765625,2.5 1.671875,1.8125 2.25,0.546875 2.765625,-0.546875 2.875,-1.65625 2.875,-2.5 Z m 0,0"
             id="id-9a5bf30c-7eba-45f0-924e-52388c88224e" />
        </g>
      </g>
      <g
         fill="#000000"
         fill-opacity="1"
         id="id-46b4fca4-6e6c-4fd3-ad83-ba5adbb1d62f"
         transform="translate(-252.227,-135.255)">
        <g
           transform="translate(315.861,135.661)"
           id="g3345">
          <path
             d="m 4.140625,8.5625 c 0,-2.859375 -0.65625,-5.90625 -2.625,-8.140625 C 1.375,0.265625 1,-0.125 0.765625,-0.34375 c -0.0625,-0.0625 -0.09375,-0.0625 -0.21875,-0.0625 -0.09375,0 -0.1875,0 -0.1875,0.109375 0,0.03125 0.046875,0.078125 0.0625,0.09375 0.328125,0.359375 0.875,0.90625 1.484375,2 1.078125,1.90625 1.484375,4.375 1.484375,6.765625 0,4.328125 -1.203125,6.96875 -2.984375,8.796875 C 0.375,17.375 0.359375,17.40625 0.359375,17.4375 c 0,0.09375 0.09375,0.09375 0.1875,0.09375 0.125,0 0.15625,0 0.234375,-0.07813 0.953125,-0.8125 2.015625,-2.203125 2.703125,-4.296875 0.4375,-1.375 0.65625,-2.984375 0.65625,-4.59375 z m 0,0"
             id="id-7d8b190d-ea2a-4afe-8787-a18f12bae7f2" />
        </g>
      </g>
      <g
         fill="#000000"
         fill-opacity="1"
         id="id-c7868d4b-85f8-4e88-9aac-fe250c07cfbc"
         transform="translate(-252.227,-135.255)">
        <g
           transform="translate(324.025,146.72)"
           id="g3349">
          <path
             d="m 4.078125,-2.296875 h 2.78125 C 7,-2.296875 7.1875,-2.296875 7.1875,-2.5 7.1875,-2.6875 7,-2.6875 6.859375,-2.6875 h -2.78125 v -2.796875 c 0,-0.140625 0,-0.328125 -0.203125,-0.328125 -0.203125,0 -0.203125,0.1875 -0.203125,0.328125 V -2.6875 h -2.78125 c -0.140625,0 -0.328125,0 -0.328125,0.1875 0,0.203125 0.1875,0.203125 0.328125,0.203125 h 2.78125 V 0.5 c 0,0.140625 0,0.328125 0.203125,0.328125 0.203125,0 0.203125,-0.1875 0.203125,-0.328125 z m 0,0"
             id="id-fb6708b4-1219-43fe-80de-f39c65ea3de0" />
        </g>
      </g>
      <g
         fill="#000000"
         fill-opacity="1"
         id="id-5c5fdf55-f1bc-4380-ae76-89dbd6e8c1b5"
         transform="translate(-252.227,-135.255)">
        <g
           transform="translate(333.988,146.72)"
           id="g3353">
          <path
             d="M 2.140625,-4 V -6.921875 L 0.375,-6.84375 V -6.375 c 0.609375,0 0.6875,0 0.6875,0.390625 V 0 h 0.46875 l 0.484375,-0.5625 c 0.078125,0.078125 0.5625,0.625 1.453125,0.625 1.484375,0 2.515625,-0.90625 2.515625,-2.28125 0,-1.328125 -0.9375,-2.265625 -2.390625,-2.265625 C 2.875,-4.484375 2.375,-4.203125 2.140625,-4 Z M 2.1875,-0.984375 v -2.5 C 2.46875,-3.84375 2.9375,-4.125 3.484375,-4.125 c 1.21875,0 1.21875,1.203125 1.21875,1.90625 0,0.46875 0,1.015625 -0.25,1.40625 -0.296875,0.40625 -0.75,0.515625 -1.078125,0.515625 -0.6875,0 -1.078125,-0.546875 -1.1875,-0.6875 z m 0,0"
             id="id-d3481d66-cc02-46d6-ac92-d8f6484b79c0" />
        </g>
      </g>
      <g
         fill="#000000"
         fill-opacity="1"
         id="id-e4feaa05-54f2-4907-b4cc-3c6ad8e057b5"
         transform="translate(-252.227,-135.255)">
        <g
           transform="translate(343.12,146.72)"
           id="g3357">
          <path
             d="m 6.84375,-3.265625 c 0.15625,0 0.34375,0 0.34375,-0.1875 C 7.1875,-3.65625 7,-3.65625 6.859375,-3.65625 h -5.96875 c -0.140625,0 -0.328125,0 -0.328125,0.203125 0,0.1875 0.1875,0.1875 0.328125,0.1875 z m 0.015625,1.9375 c 0.140625,0 0.328125,0 0.328125,-0.203125 0,-0.1875 -0.1875,-0.1875 -0.34375,-0.1875 H 0.890625 c -0.140625,0 -0.328125,0 -0.328125,0.1875 0,0.203125 0.1875,0.203125 0.328125,0.203125 z m 0,0"
             id="id-a722bcda-cb7d-44c5-9544-38c6fe708070" />
        </g>
      </g>
      <g
         fill="#000000"
         fill-opacity="1"
         id="id-bd2d8fbf-95e3-436a-b477-ed58670303d5"
         transform="translate(-252.227,-135.255)">
        <g
           transform="translate(353.636,146.72)"
           id="g3361">
          <path
             d="m 5.28125,-3.1875 c 0,-0.953125 -0.015625,-3.34375 -2.421875,-3.34375 -2.40625,0 -2.40625,2.375 -2.40625,3.34375 0,1 0,3.296875 2.40625,3.296875 C 5.25,0.109375 5.28125,-2.1875 5.28125,-3.1875 Z M 2.859375,-0.25 C 2.5,-0.25 1.9375,-0.46875 1.8125,-1.203125 1.71875,-1.71875 1.71875,-2.75 1.71875,-3.296875 c 0,-0.71875 0,-1.375 0.078125,-1.890625 0.125,-0.890625 0.828125,-0.984375 1.0625,-0.984375 0.375,0 0.78125,0.1875 0.96875,0.625 C 4,-5.171875 4,-4.109375 4,-3.296875 4,-2.734375 4,-1.828125 3.921875,-1.3125 3.78125,-0.390625 3.15625,-0.25 2.859375,-0.25 Z m 0,0"
             id="id-ed1d040d-050e-4cc0-b498-e02a78244d44" />
        </g>
      </g>
    </g>
    <rect
       style="fill:#e6e6e6;fill-opacity:1;stroke-width:1.465;stroke-linecap:round;stroke-linejoin:round;paint-order:stroke fill markers"
       id="rect3446"
       width="57.67234"
       height="20.428829"
       x="90.369865"
       y="41.590275"
       rx="1.6964712"
       ry="1.6964712" />
    <text
       xml:space="preserve"
       style="font-size:4.23333px;line-height:1.25;font-family:'Open Sans';-inkscape-font-specification:'Open Sans';stroke-width:0.264583"
       x="102.63361"
       y="46.590122"
       id="text3450"><tspan
         sodipodi:role="line"
         id="tspan3448"
         style="font-weight:bold;stroke-width:0.264583"
         x="102.63361"
         y="46.590122">Heat Conduction</tspan></text>
    <path
       style="fill:none;stroke:#000000;stroke-width:0.264583px;stroke-linecap:butt;stroke-linejoin:miter;stroke-opacity:1"
       d="M 90.370379,48.639364 H 148.09343"
       id="path3452" />
    <g
       transform="matrix(0.352778,0,0,0.352778,114.62744,52.4309)"
       ns7:version="1.8.2"
       ns7:texconverter="pdflatex"
       ns7:pdfconverter="inkscape"
       ns7:text="$$\\rho c_p\\frac{\\partial T}{\\partial t} = \\nabla\\cdot(k\\nabla T)$$"
       ns7:preamble="/home/brunnels/.config/inkscape/extensions/textext/default_packages.tex"
       ns7:scale="1.0"
       ns7:alignment="middle center"
       ns7:stroke-to-path="0"
       ns7:jacobian_sqrt="0.352778"
       id="g3610">
      <defs
         id="id-3344a600-3b16-4c06-b79d-35aaa0b4d1b5">
        <g
           id="id-52398b59-60a0-4ce5-b740-d5fa92f21c42">
          <g
             id="id-aea7c3d9-60c3-4ac5-bdd4-5738622d134e">
            <path
               d="m 0.328125,1.71875 c -0.03125,0.125 -0.03125,0.140625 -0.03125,0.171875 0,0.140625 0.109375,0.265625 0.28125,0.265625 0.203125,0 0.328125,-0.1875 0.34375,-0.21875 0.0625,-0.078125 0.375,-1.421875 0.640625,-2.5 0.203125,0.40625 0.515625,0.671875 0.984375,0.671875 C 3.71875,0.109375 5,-1.296875 5,-2.78125 c 0,-1.0625 -0.65625,-1.625 -1.375,-1.625 -0.96875,0 -2.015625,1 -2.3125,2.21875 z m 2.21875,-1.828125 C 1.84375,-0.109375 1.6875,-0.90625 1.6875,-1 c 0,-0.03125 0.046875,-0.234375 0.078125,-0.359375 0.28125,-1.125 0.375,-1.484375 0.59375,-1.875 0.4375,-0.734375 0.9375,-0.953125 1.234375,-0.953125 0.375,0 0.6875,0.296875 0.6875,0.984375 0,0.546875 -0.28125,1.65625 -0.546875,2.140625 -0.328125,0.640625 -0.8125,0.953125 -1.1875,0.953125 z m 0,0"
               id="id-6a9ea220-bb70-4203-9bef-35564b7fb742" />
          </g>
          <g
             id="id-dce62d45-4382-471f-8230-f4409036240e">
            <path
               d="m 3.953125,-3.78125 c -0.171875,0 -0.296875,0 -0.4375,0.125 -0.171875,0.15625 -0.1875,0.328125 -0.1875,0.390625 0,0.25 0.1875,0.359375 0.375,0.359375 0.28125,0 0.546875,-0.25 0.546875,-0.640625 0,-0.484375 -0.46875,-0.859375 -1.171875,-0.859375 -1.34375,0 -2.671875,1.421875 -2.671875,2.828125 0,0.90625 0.578125,1.6875 1.625,1.6875 1.421875,0 2.25,-1.0625 2.25,-1.171875 0,-0.0625 -0.046875,-0.140625 -0.109375,-0.140625 -0.0625,0 -0.078125,0.03125 -0.140625,0.109375 -0.78125,0.984375 -1.875,0.984375 -1.984375,0.984375 -0.625,0 -0.90625,-0.484375 -0.90625,-1.09375 0,-0.40625 0.203125,-1.375 0.546875,-1.984375 0.3125,-0.578125 0.859375,-1 1.40625,-1 0.328125,0 0.71875,0.125 0.859375,0.40625 z m 0,0"
               id="id-4e7d2cec-bd75-48b3-af27-b788ae5e9aeb" />
          </g>
          <g
             id="id-da3c658f-bfd3-42cd-84e3-da2d4b3b3873">
            <path
               d="m 4.609375,-3.375 c -0.09375,-0.625 -0.5,-1.1875 -1.28125,-1.1875 -0.609375,0 -1.25,0.171875 -2.03125,0.9375 -0.828125,0.828125 -0.890625,1.765625 -0.890625,2.0625 0,0.625 0.4375,1.78125 1.828125,1.78125 2.375,0 3.40625,-3.34375 3.40625,-4.78125 0,-1.578125 -0.921875,-2.578125 -2.15625,-2.578125 -1.4375,0 -1.90625,1.296875 -1.90625,1.578125 0,0.140625 0.09375,0.34375 0.390625,0.34375 0.328125,0 0.53125,-0.296875 0.53125,-0.515625 0,-0.359375 -0.3125,-0.359375 -0.46875,-0.359375 0.4375,-0.734375 1.15625,-0.796875 1.4375,-0.796875 0.734375,0 1.421875,0.515625 1.421875,1.8125 0,0.390625 -0.0625,0.890625 -0.265625,1.703125 z m -2.34375,3.3125 c -1.09375,0 -1.09375,-1.03125 -1.09375,-1.125 0,-0.265625 0.25,-1.65625 0.65625,-2.265625 0.390625,-0.5625 0.890625,-0.890625 1.5,-0.890625 1.09375,0 1.109375,1.125 1.109375,1.328125 0,0.71875 -0.640625,2.953125 -2.171875,2.953125 z m 0,0"
               id="id-1312e65c-2b23-4f2c-9438-fd3cf7df7f19" />
          </g>
          <g
             id="id-21a224e4-f47f-4c20-b4e3-eaf81471b56a">
            <path
               d="m 4.25,-6.046875 c 0.078125,-0.28125 0.109375,-0.34375 0.234375,-0.375 0.09375,-0.015625 0.421875,-0.015625 0.625,-0.015625 1.015625,0 1.453125,0.03125 1.453125,0.8125 0,0.15625 -0.03125,0.546875 -0.078125,0.796875 0,0.046875 -0.03125,0.15625 -0.03125,0.1875 0,0.0625 0.03125,0.140625 0.125,0.140625 0.109375,0 0.125,-0.078125 0.15625,-0.234375 L 7,-6.46875 C 7.015625,-6.515625 7.015625,-6.609375 7.015625,-6.640625 7.015625,-6.75 6.921875,-6.75 6.75,-6.75 H 1.21875 c -0.234375,0 -0.25,0.015625 -0.328125,0.203125 l -0.59375,1.75 c 0,0.015625 -0.0625,0.15625 -0.0625,0.1875 0,0.046875 0.0625,0.109375 0.125,0.109375 0.09375,0 0.109375,-0.0625 0.171875,-0.21875 C 1.0625,-6.265625 1.328125,-6.4375 2.796875,-6.4375 H 3.1875 c 0.28125,0 0.28125,0.03125 0.28125,0.125 0,0.046875 -0.03125,0.171875 -0.046875,0.203125 L 2.09375,-0.78125 C 2,-0.421875 1.96875,-0.3125 0.90625,-0.3125 c -0.359375,0 -0.421875,0 -0.421875,0.1875 C 0.484375,0 0.59375,0 0.65625,0 c 0.265625,0 0.546875,-0.015625 0.8125,-0.015625 0.28125,0 0.578125,-0.015625 0.859375,-0.015625 0.28125,0 0.546875,0.015625 0.828125,0.015625 C 3.4375,-0.015625 3.734375,0 4.015625,0 c 0.09375,0 0.21875,0 0.21875,-0.203125 0,-0.109375 -0.078125,-0.109375 -0.34375,-0.109375 -0.234375,0 -0.375,0 -0.625,-0.015625 -0.296875,-0.03125 -0.375,-0.0625 -0.375,-0.21875 0,-0.015625 0,-0.0625 0.046875,-0.203125 z m 0,0"
               id="id-5a194fad-49a4-4519-be14-b96e3f557d8a" />
          </g>
          <g
             id="id-5e912a8b-594c-4fcf-a36a-75b59f402039">
            <path
               d="m 2.046875,-3.984375 h 0.9375 c 0.203125,0 0.3125,0 0.3125,-0.203125 0,-0.109375 -0.109375,-0.109375 -0.28125,-0.109375 h -0.875 C 2.5,-5.71875 2.546875,-5.90625 2.546875,-5.96875 c 0,-0.171875 -0.125,-0.265625 -0.296875,-0.265625 -0.03125,0 -0.3125,0 -0.390625,0.359375 L 1.46875,-4.296875 h -0.9375 c -0.203125,0 -0.296875,0 -0.296875,0.1875 0,0.125 0.078125,0.125 0.28125,0.125 h 0.875 C 0.671875,-1.15625 0.625,-0.984375 0.625,-0.8125 0.625,-0.265625 1,0.109375 1.546875,0.109375 2.5625,0.109375 3.125,-1.34375 3.125,-1.421875 3.125,-1.53125 3.046875,-1.53125 3.015625,-1.53125 2.921875,-1.53125 2.90625,-1.5 2.859375,-1.390625 2.4375,-0.34375 1.90625,-0.109375 1.5625,-0.109375 c -0.203125,0 -0.3125,-0.125 -0.3125,-0.453125 0,-0.25 0.03125,-0.3125 0.0625,-0.484375 z m 0,0"
               id="id-ef81f0ef-df81-4a6d-b2e2-336c87e12c70" />
          </g>
          <g
             id="id-be828337-7aec-4648-9cca-8bbd7a12f18e">
            <path
               d="m 2.859375,-6.8125 c 0,0 0,-0.109375 -0.125,-0.109375 -0.234375,0 -0.953125,0.078125 -1.21875,0.109375 -0.078125,0 -0.1875,0.015625 -0.1875,0.1875 0,0.125 0.09375,0.125 0.234375,0.125 0.484375,0 0.5,0.0625 0.5,0.171875 L 2.03125,-6.125 0.59375,-0.390625 c -0.046875,0.140625 -0.046875,0.15625 -0.046875,0.21875 0,0.234375 0.203125,0.28125 0.296875,0.28125 0.125,0 0.265625,-0.09375 0.328125,-0.203125 0.046875,-0.09375 0.5,-1.9375 0.5625,-2.1875 0.34375,0.03125 1.15625,0.1875 1.15625,0.84375 0,0.078125 0,0.109375 -0.03125,0.21875 -0.015625,0.109375 -0.03125,0.234375 -0.03125,0.34375 0,0.578125 0.390625,0.984375 0.90625,0.984375 0.296875,0 0.578125,-0.15625 0.796875,-0.53125 0.25,-0.4375 0.359375,-0.984375 0.359375,-1 0,-0.109375 -0.09375,-0.109375 -0.125,-0.109375 -0.09375,0 -0.109375,0.046875 -0.140625,0.1875 -0.203125,0.71875 -0.421875,1.234375 -0.859375,1.234375 -0.203125,0 -0.328125,-0.109375 -0.328125,-0.46875 0,-0.171875 0.046875,-0.40625 0.078125,-0.5625 C 3.5625,-1.3125 3.5625,-1.34375 3.5625,-1.453125 3.5625,-2.09375 2.9375,-2.375 2.078125,-2.5 2.390625,-2.671875 2.71875,-2.984375 2.9375,-3.234375 3.421875,-3.765625 3.875,-4.1875 4.359375,-4.1875 c 0.0625,0 0.078125,0 0.09375,0.015625 0.125,0.015625 0.125,0.015625 0.21875,0.078125 0.015625,0 0.015625,0.015625 0.03125,0.03125 -0.46875,0.03125 -0.5625,0.421875 -0.5625,0.546875 0,0.15625 0.109375,0.34375 0.375,0.34375 0.265625,0 0.546875,-0.21875 0.546875,-0.609375 0,-0.296875 -0.234375,-0.625 -0.671875,-0.625 -0.28125,0 -0.734375,0.078125 -1.453125,0.875 -0.34375,0.375 -0.734375,0.78125 -1.109375,0.921875 z m 0,0"
               id="id-d7445c19-717d-466d-b104-e5b7c65da58d" />
          </g>
          <g
             id="id-39c4ad1c-c0d9-4511-8127-7830cc2ad4ae">
            <path
               d="m 0.515625,0.84375 c -0.046875,0.203125 -0.0625,0.25 -0.328125,0.25 -0.09375,0 -0.1875,0 -0.1875,0.15625 0,0.078125 0.0625,0.109375 0.09375,0.109375 0.171875,0 0.40625,-0.03125 0.59375,-0.03125 0.234375,0 0.5,0.03125 0.734375,0.03125 0.0625,0 0.140625,-0.03125 0.140625,-0.15625 0,-0.109375 -0.09375,-0.109375 -0.1875,-0.109375 -0.15625,0 -0.34375,0 -0.34375,-0.078125 0,-0.03125 0.0625,-0.21875 0.078125,-0.3125 0.09375,-0.375 0.1875,-0.75 0.265625,-1.046875 0.078125,0.140625 0.296875,0.40625 0.71875,0.40625 0.84375,0 1.78125,-0.9375 1.78125,-1.96875 0,-0.8125 -0.5625,-1.171875 -1.03125,-1.171875 -0.4375,0 -0.8125,0.296875 -1,0.5 -0.109375,-0.40625 -0.5,-0.5 -0.71875,-0.5 -0.265625,0 -0.4375,0.1875 -0.546875,0.375 -0.140625,0.234375 -0.25,0.65625 -0.25,0.703125 0,0.078125 0.09375,0.078125 0.125,0.078125 0.09375,0 0.09375,-0.015625 0.140625,-0.203125 0.109375,-0.40625 0.25,-0.75 0.515625,-0.75 0.1875,0 0.234375,0.15625 0.234375,0.34375 0,0.078125 -0.015625,0.15625 -0.03125,0.203125 z M 1.84375,-2.234375 C 2.25,-2.78125 2.59375,-2.875 2.8125,-2.875 c 0.28125,0 0.515625,0.203125 0.515625,0.671875 0,0.28125 -0.15625,1 -0.359375,1.40625 -0.1875,0.34375 -0.515625,0.671875 -0.875,0.671875 -0.5,0 -0.625,-0.53125 -0.625,-0.609375 0,-0.03125 0.015625,-0.078125 0.015625,-0.109375 z m 0,0"
               id="id-4b813421-a468-4e4e-9dce-4f3c40860553" />
          </g>
          <g
             id="id-5012a08e-7ecf-420c-b2e1-33e4331b755e">
            <path
               d="m 6.84375,-3.265625 c 0.15625,0 0.34375,0 0.34375,-0.1875 C 7.1875,-3.65625 7,-3.65625 6.859375,-3.65625 h -5.96875 c -0.140625,0 -0.328125,0 -0.328125,0.203125 0,0.1875 0.1875,0.1875 0.328125,0.1875 z m 0.015625,1.9375 c 0.140625,0 0.328125,0 0.328125,-0.203125 0,-0.1875 -0.1875,-0.1875 -0.34375,-0.1875 H 0.890625 c -0.140625,0 -0.328125,0 -0.328125,0.1875 0,0.203125 0.1875,0.203125 0.328125,0.203125 z m 0,0"
               id="id-6a92dc0f-fb3e-4631-87ff-f44c914bf328" />
          </g>
          <g
             id="id-db7f4f89-b2ca-4e41-ab57-f617635dc938">
            <path
               d="m 3.296875,2.390625 c 0,-0.03125 0,-0.046875 -0.171875,-0.21875 C 1.890625,0.921875 1.5625,-0.96875 1.5625,-2.5 c 0,-1.734375 0.375,-3.46875 1.609375,-4.703125 0.125,-0.125 0.125,-0.140625 0.125,-0.171875 0,-0.078125 -0.03125,-0.109375 -0.09375,-0.109375 -0.109375,0 -1,0.6875 -1.59375,1.953125 -0.5,1.09375 -0.625,2.203125 -0.625,3.03125 0,0.78125 0.109375,1.984375 0.65625,3.125 C 2.25,1.84375 3.09375,2.5 3.203125,2.5 c 0.0625,0 0.09375,-0.03125 0.09375,-0.109375 z m 0,0"
               id="id-a4634c32-b3e6-4fb0-8ba0-6225b8a7c449" />
          </g>
          <g
             id="id-b98f006e-c74e-46f9-84eb-b8a00d474e8e">
            <path
               d="m 2.875,-2.5 c 0,-0.765625 -0.109375,-1.96875 -0.65625,-3.109375 -0.59375,-1.21875 -1.453125,-1.875 -1.546875,-1.875 -0.0625,0 -0.109375,0.046875 -0.109375,0.109375 0,0.03125 0,0.046875 0.1875,0.234375 0.984375,0.984375 1.546875,2.5625 1.546875,4.640625 0,1.71875 -0.359375,3.46875 -1.59375,4.71875 C 0.5625,2.34375 0.5625,2.359375 0.5625,2.390625 0.5625,2.453125 0.609375,2.5 0.671875,2.5 0.765625,2.5 1.671875,1.8125 2.25,0.546875 2.765625,-0.546875 2.875,-1.65625 2.875,-2.5 Z m 0,0"
               id="id-192ca061-070e-462e-b1c0-57d0df202c07" />
          </g>
          <g
             id="id-d5af6e82-d9c6-4b5a-ac14-3ab18e436d45">
            <path
               d="M 7.78125,-6.59375 C 7.796875,-6.625 7.828125,-6.6875 7.828125,-6.734375 7.828125,-6.796875 7.8125,-6.8125 7.59375,-6.8125 H 0.703125 c -0.21875,0 -0.234375,0.015625 -0.234375,0.078125 0,0.046875 0.03125,0.109375 0.046875,0.140625 L 3.875,0.140625 c 0.078125,0.125 0.109375,0.1875 0.265625,0.1875 0.171875,0 0.203125,-0.0625 0.28125,-0.1875 z m -6.078125,0.5 h 5.46875 l -2.71875,5.484375 z m 0,0"
               id="id-a5d27d61-bc29-4e00-9c77-7fc106b7394f" />
          </g>
          <g
             id="id-5ff3a40d-4831-4973-a454-21b89fbd1c8d">
            <path
               d="m 1.90625,-2.5 c 0,-0.28125 -0.234375,-0.515625 -0.515625,-0.515625 -0.296875,0 -0.53125,0.234375 -0.53125,0.515625 0,0.296875 0.234375,0.53125 0.53125,0.53125 0.28125,0 0.515625,-0.234375 0.515625,-0.53125 z m 0,0"
               id="id-843aae16-ff34-4934-a5a2-482ce4d9c419" />
          </g>
        </g>
      </defs>
      <g
         fill="#000000"
         fill-opacity="1"
         id="id-e431d3c9-e0c5-47d2-8c38-8fe530e3cf47"
         transform="translate(-262.399,-135.538)">
        <g
           transform="translate(262.102,149.419)"
           id="g4708">
          <path
             d="m 0.328125,1.71875 c -0.03125,0.125 -0.03125,0.140625 -0.03125,0.171875 0,0.140625 0.109375,0.265625 0.28125,0.265625 0.203125,0 0.328125,-0.1875 0.34375,-0.21875 0.0625,-0.078125 0.375,-1.421875 0.640625,-2.5 0.203125,0.40625 0.515625,0.671875 0.984375,0.671875 C 3.71875,0.109375 5,-1.296875 5,-2.78125 c 0,-1.0625 -0.65625,-1.625 -1.375,-1.625 -0.96875,0 -2.015625,1 -2.3125,2.21875 z m 2.21875,-1.828125 C 1.84375,-0.109375 1.6875,-0.90625 1.6875,-1 c 0,-0.03125 0.046875,-0.234375 0.078125,-0.359375 0.28125,-1.125 0.375,-1.484375 0.59375,-1.875 0.4375,-0.734375 0.9375,-0.953125 1.234375,-0.953125 0.375,0 0.6875,0.296875 0.6875,0.984375 0,0.546875 -0.28125,1.65625 -0.546875,2.140625 -0.328125,0.640625 -0.8125,0.953125 -1.1875,0.953125 z m 0,0"
             id="id-f0543157-9e71-4ac9-82fe-9d29c941ef06" />
        </g>
        <g
           transform="translate(267.253,149.419)"
           id="g4711">
          <path
             d="m 3.953125,-3.78125 c -0.171875,0 -0.296875,0 -0.4375,0.125 -0.171875,0.15625 -0.1875,0.328125 -0.1875,0.390625 0,0.25 0.1875,0.359375 0.375,0.359375 0.28125,0 0.546875,-0.25 0.546875,-0.640625 0,-0.484375 -0.46875,-0.859375 -1.171875,-0.859375 -1.34375,0 -2.671875,1.421875 -2.671875,2.828125 0,0.90625 0.578125,1.6875 1.625,1.6875 1.421875,0 2.25,-1.0625 2.25,-1.171875 0,-0.0625 -0.046875,-0.140625 -0.109375,-0.140625 -0.0625,0 -0.078125,0.03125 -0.140625,0.109375 -0.78125,0.984375 -1.875,0.984375 -1.984375,0.984375 -0.625,0 -0.90625,-0.484375 -0.90625,-1.09375 0,-0.40625 0.203125,-1.375 0.546875,-1.984375 0.3125,-0.578125 0.859375,-1 1.40625,-1 0.328125,0 0.71875,0.125 0.859375,0.40625 z m 0,0"
             id="id-22461730-1961-464d-b531-c3f085473345" />
        </g>
      </g>
      <g
         fill="#000000"
         fill-opacity="1"
         id="id-34322047-050b-4253-aefd-c606c8ca0b30"
         transform="translate(-262.399,-135.538)">
        <g
           transform="translate(271.564,150.914)"
           id="g4715">
          <path
             d="m 0.515625,0.84375 c -0.046875,0.203125 -0.0625,0.25 -0.328125,0.25 -0.09375,0 -0.1875,0 -0.1875,0.15625 0,0.078125 0.0625,0.109375 0.09375,0.109375 0.171875,0 0.40625,-0.03125 0.59375,-0.03125 0.234375,0 0.5,0.03125 0.734375,0.03125 0.0625,0 0.140625,-0.03125 0.140625,-0.15625 0,-0.109375 -0.09375,-0.109375 -0.1875,-0.109375 -0.15625,0 -0.34375,0 -0.34375,-0.078125 0,-0.03125 0.0625,-0.21875 0.078125,-0.3125 0.09375,-0.375 0.1875,-0.75 0.265625,-1.046875 0.078125,0.140625 0.296875,0.40625 0.71875,0.40625 0.84375,0 1.78125,-0.9375 1.78125,-1.96875 0,-0.8125 -0.5625,-1.171875 -1.03125,-1.171875 -0.4375,0 -0.8125,0.296875 -1,0.5 -0.109375,-0.40625 -0.5,-0.5 -0.71875,-0.5 -0.265625,0 -0.4375,0.1875 -0.546875,0.375 -0.140625,0.234375 -0.25,0.65625 -0.25,0.703125 0,0.078125 0.09375,0.078125 0.125,0.078125 0.09375,0 0.09375,-0.015625 0.140625,-0.203125 0.109375,-0.40625 0.25,-0.75 0.515625,-0.75 0.1875,0 0.234375,0.15625 0.234375,0.34375 0,0.078125 -0.015625,0.15625 -0.03125,0.203125 z M 1.84375,-2.234375 C 2.25,-2.78125 2.59375,-2.875 2.8125,-2.875 c 0.28125,0 0.515625,0.203125 0.515625,0.671875 0,0.28125 -0.15625,1 -0.359375,1.40625 -0.1875,0.34375 -0.515625,0.671875 -0.875,0.671875 -0.5,0 -0.625,-0.53125 -0.625,-0.609375 0,-0.03125 0.015625,-0.078125 0.015625,-0.109375 z m 0,0"
             id="id-4dc053ea-37bd-43a9-a4eb-f8c382afe890" />
        </g>
      </g>
      <g
         fill="#000000"
         fill-opacity="1"
         id="id-f7f38b1b-2659-42df-a0f9-c3e4fa159562"
         transform="translate(-262.399,-135.538)">
        <g
           transform="translate(277.365,142.679)"
           id="g4719">
          <path
             d="m 4.609375,-3.375 c -0.09375,-0.625 -0.5,-1.1875 -1.28125,-1.1875 -0.609375,0 -1.25,0.171875 -2.03125,0.9375 -0.828125,0.828125 -0.890625,1.765625 -0.890625,2.0625 0,0.625 0.4375,1.78125 1.828125,1.78125 2.375,0 3.40625,-3.34375 3.40625,-4.78125 0,-1.578125 -0.921875,-2.578125 -2.15625,-2.578125 -1.4375,0 -1.90625,1.296875 -1.90625,1.578125 0,0.140625 0.09375,0.34375 0.390625,0.34375 0.328125,0 0.53125,-0.296875 0.53125,-0.515625 0,-0.359375 -0.3125,-0.359375 -0.46875,-0.359375 0.4375,-0.734375 1.15625,-0.796875 1.4375,-0.796875 0.734375,0 1.421875,0.515625 1.421875,1.8125 0,0.390625 -0.0625,0.890625 -0.265625,1.703125 z m -2.34375,3.3125 c -1.09375,0 -1.09375,-1.03125 -1.09375,-1.125 0,-0.265625 0.25,-1.65625 0.65625,-2.265625 0.390625,-0.5625 0.890625,-0.890625 1.5,-0.890625 1.09375,0 1.109375,1.125 1.109375,1.328125 0,0.71875 -0.640625,2.953125 -2.171875,2.953125 z m 0,0"
             id="id-e61cec3b-29ea-48f0-a743-c111d31ae6a8" />
        </g>
      </g>
      <g
         fill="#000000"
         fill-opacity="1"
         id="id-8b927b1f-2f83-4f44-8621-138da7f5b6b9"
         transform="translate(-262.399,-135.538)">
        <g
           transform="translate(283.212,142.679)"
           id="g4723">
          <path
             d="m 4.25,-6.046875 c 0.078125,-0.28125 0.109375,-0.34375 0.234375,-0.375 0.09375,-0.015625 0.421875,-0.015625 0.625,-0.015625 1.015625,0 1.453125,0.03125 1.453125,0.8125 0,0.15625 -0.03125,0.546875 -0.078125,0.796875 0,0.046875 -0.03125,0.15625 -0.03125,0.1875 0,0.0625 0.03125,0.140625 0.125,0.140625 0.109375,0 0.125,-0.078125 0.15625,-0.234375 L 7,-6.46875 C 7.015625,-6.515625 7.015625,-6.609375 7.015625,-6.640625 7.015625,-6.75 6.921875,-6.75 6.75,-6.75 H 1.21875 c -0.234375,0 -0.25,0.015625 -0.328125,0.203125 l -0.59375,1.75 c 0,0.015625 -0.0625,0.15625 -0.0625,0.1875 0,0.046875 0.0625,0.109375 0.125,0.109375 0.09375,0 0.109375,-0.0625 0.171875,-0.21875 C 1.0625,-6.265625 1.328125,-6.4375 2.796875,-6.4375 H 3.1875 c 0.28125,0 0.28125,0.03125 0.28125,0.125 0,0.046875 -0.03125,0.171875 -0.046875,0.203125 L 2.09375,-0.78125 C 2,-0.421875 1.96875,-0.3125 0.90625,-0.3125 c -0.359375,0 -0.421875,0 -0.421875,0.1875 C 0.484375,0 0.59375,0 0.65625,0 c 0.265625,0 0.546875,-0.015625 0.8125,-0.015625 0.28125,0 0.578125,-0.015625 0.859375,-0.015625 0.28125,0 0.546875,0.015625 0.828125,0.015625 C 3.4375,-0.015625 3.734375,0 4.015625,0 c 0.09375,0 0.21875,0 0.21875,-0.203125 0,-0.109375 -0.078125,-0.109375 -0.34375,-0.109375 -0.234375,0 -0.375,0 -0.625,-0.015625 -0.296875,-0.03125 -0.375,-0.0625 -0.375,-0.21875 0,-0.015625 0,-0.0625 0.046875,-0.203125 z m 0,0"
             id="id-21c77636-0c87-47d4-b4de-99a1ab7255b6" />
        </g>
      </g>
      <path
         fill="none"
         stroke-width="0.398"
         stroke-linecap="butt"
         stroke-linejoin="miter"
         stroke="#000000"
         stroke-opacity="1"
         stroke-miterlimit="10"
         d="m 14.964417,11.391312 h 13.05078"
         id="id-43400d83-d1f6-4ba0-8890-87f38c829b24" />
      <g
         fill="#000000"
         fill-opacity="1"
         id="id-ee769b11-8c7d-461c-a3af-0ea79fc23802"
         transform="translate(-262.399,-135.538)">
        <g
           transform="translate(279.169,156.253)"
           id="g4728">
          <path
             d="m 4.609375,-3.375 c -0.09375,-0.625 -0.5,-1.1875 -1.28125,-1.1875 -0.609375,0 -1.25,0.171875 -2.03125,0.9375 -0.828125,0.828125 -0.890625,1.765625 -0.890625,2.0625 0,0.625 0.4375,1.78125 1.828125,1.78125 2.375,0 3.40625,-3.34375 3.40625,-4.78125 0,-1.578125 -0.921875,-2.578125 -2.15625,-2.578125 -1.4375,0 -1.90625,1.296875 -1.90625,1.578125 0,0.140625 0.09375,0.34375 0.390625,0.34375 0.328125,0 0.53125,-0.296875 0.53125,-0.515625 0,-0.359375 -0.3125,-0.359375 -0.46875,-0.359375 0.4375,-0.734375 1.15625,-0.796875 1.4375,-0.796875 0.734375,0 1.421875,0.515625 1.421875,1.8125 0,0.390625 -0.0625,0.890625 -0.265625,1.703125 z m -2.34375,3.3125 c -1.09375,0 -1.09375,-1.03125 -1.09375,-1.125 0,-0.265625 0.25,-1.65625 0.65625,-2.265625 0.390625,-0.5625 0.890625,-0.890625 1.5,-0.890625 1.09375,0 1.109375,1.125 1.109375,1.328125 0,0.71875 -0.640625,2.953125 -2.171875,2.953125 z m 0,0"
             id="id-5e095f9a-00ca-41c9-8f1c-d7fcb2f704cc" />
        </g>
      </g>
      <g
         fill="#000000"
         fill-opacity="1"
         id="id-7e335de7-eb67-44f8-89e7-b6fa535f7820"
         transform="translate(-262.399,-135.538)">
        <g
           transform="translate(285.016,156.253)"
           id="g4732">
          <path
             d="m 2.046875,-3.984375 h 0.9375 c 0.203125,0 0.3125,0 0.3125,-0.203125 0,-0.109375 -0.109375,-0.109375 -0.28125,-0.109375 h -0.875 C 2.5,-5.71875 2.546875,-5.90625 2.546875,-5.96875 c 0,-0.171875 -0.125,-0.265625 -0.296875,-0.265625 -0.03125,0 -0.3125,0 -0.390625,0.359375 L 1.46875,-4.296875 h -0.9375 c -0.203125,0 -0.296875,0 -0.296875,0.1875 0,0.125 0.078125,0.125 0.28125,0.125 h 0.875 C 0.671875,-1.15625 0.625,-0.984375 0.625,-0.8125 0.625,-0.265625 1,0.109375 1.546875,0.109375 2.5625,0.109375 3.125,-1.34375 3.125,-1.421875 3.125,-1.53125 3.046875,-1.53125 3.015625,-1.53125 2.921875,-1.53125 2.90625,-1.5 2.859375,-1.390625 2.4375,-0.34375 1.90625,-0.109375 1.5625,-0.109375 c -0.203125,0 -0.3125,-0.125 -0.3125,-0.453125 0,-0.25 0.03125,-0.3125 0.0625,-0.484375 z m 0,0"
             id="id-23a2f76a-976e-4112-b7a5-25a9164773a1" />
        </g>
      </g>
      <g
         fill="#000000"
         fill-opacity="1"
         id="id-5eb263a8-6f9b-451d-9cc6-1b6e7149625d"
         transform="translate(-262.399,-135.538)">
        <g
           transform="translate(294.376,149.419)"
           id="g4736">
          <path
             d="m 6.84375,-3.265625 c 0.15625,0 0.34375,0 0.34375,-0.1875 C 7.1875,-3.65625 7,-3.65625 6.859375,-3.65625 h -5.96875 c -0.140625,0 -0.328125,0 -0.328125,0.203125 0,0.1875 0.1875,0.1875 0.328125,0.1875 z m 0.015625,1.9375 c 0.140625,0 0.328125,0 0.328125,-0.203125 0,-0.1875 -0.1875,-0.1875 -0.34375,-0.1875 H 0.890625 c -0.140625,0 -0.328125,0 -0.328125,0.1875 0,0.203125 0.1875,0.203125 0.328125,0.203125 z m 0,0"
             id="id-bb5e83a3-2d5c-4461-b52f-63cf7976c742" />
        </g>
      </g>
      <g
         fill="#000000"
         fill-opacity="1"
         id="id-d20b8510-53fe-4487-a928-f9d742d426c4"
         transform="translate(-262.399,-135.538)">
        <g
           transform="translate(304.892,149.419)"
           id="g4740">
          <path
             d="M 7.78125,-6.59375 C 7.796875,-6.625 7.828125,-6.6875 7.828125,-6.734375 7.828125,-6.796875 7.8125,-6.8125 7.59375,-6.8125 H 0.703125 c -0.21875,0 -0.234375,0.015625 -0.234375,0.078125 0,0.046875 0.03125,0.109375 0.046875,0.140625 L 3.875,0.140625 c 0.078125,0.125 0.109375,0.1875 0.265625,0.1875 0.171875,0 0.203125,-0.0625 0.28125,-0.1875 z m -6.078125,0.5 h 5.46875 l -2.71875,5.484375 z m 0,0"
             id="id-01ac07b8-9965-4bae-b31a-d5fda08a1722" />
        </g>
      </g>
      <g
         fill="#000000"
         fill-opacity="1"
         id="id-df787fff-23d0-406d-84ab-0c890764ad07"
         transform="translate(-262.399,-135.538)">
        <g
           transform="translate(315.406,149.419)"
           id="g4744">
          <path
             d="m 1.90625,-2.5 c 0,-0.28125 -0.234375,-0.515625 -0.515625,-0.515625 -0.296875,0 -0.53125,0.234375 -0.53125,0.515625 0,0.296875 0.234375,0.53125 0.53125,0.53125 0.28125,0 0.515625,-0.234375 0.515625,-0.53125 z m 0,0"
             id="id-52186334-0913-4fcb-8ec6-09af7f228f09" />
        </g>
      </g>
      <g
         fill="#000000"
         fill-opacity="1"
         id="id-1b128cb4-6809-494e-9b1f-72df7f67f540"
         transform="translate(-262.399,-135.538)">
        <g
           transform="translate(320.389,149.419)"
           id="g4748">
          <path
             d="m 3.296875,2.390625 c 0,-0.03125 0,-0.046875 -0.171875,-0.21875 C 1.890625,0.921875 1.5625,-0.96875 1.5625,-2.5 c 0,-1.734375 0.375,-3.46875 1.609375,-4.703125 0.125,-0.125 0.125,-0.140625 0.125,-0.171875 0,-0.078125 -0.03125,-0.109375 -0.09375,-0.109375 -0.109375,0 -1,0.6875 -1.59375,1.953125 -0.5,1.09375 -0.625,2.203125 -0.625,3.03125 0,0.78125 0.109375,1.984375 0.65625,3.125 C 2.25,1.84375 3.09375,2.5 3.203125,2.5 c 0.0625,0 0.09375,-0.03125 0.09375,-0.109375 z m 0,0"
             id="id-faf4e5a8-2544-4ca1-bde6-3db12b9829c5" />
        </g>
      </g>
      <g
         fill="#000000"
         fill-opacity="1"
         id="id-e52531f4-012b-4773-9e28-d0a502866124"
         transform="translate(-262.399,-135.538)">
        <g
           transform="translate(324.264,149.419)"
           id="g4752">
          <path
             d="m 2.859375,-6.8125 c 0,0 0,-0.109375 -0.125,-0.109375 -0.234375,0 -0.953125,0.078125 -1.21875,0.109375 -0.078125,0 -0.1875,0.015625 -0.1875,0.1875 0,0.125 0.09375,0.125 0.234375,0.125 0.484375,0 0.5,0.0625 0.5,0.171875 L 2.03125,-6.125 0.59375,-0.390625 c -0.046875,0.140625 -0.046875,0.15625 -0.046875,0.21875 0,0.234375 0.203125,0.28125 0.296875,0.28125 0.125,0 0.265625,-0.09375 0.328125,-0.203125 0.046875,-0.09375 0.5,-1.9375 0.5625,-2.1875 0.34375,0.03125 1.15625,0.1875 1.15625,0.84375 0,0.078125 0,0.109375 -0.03125,0.21875 -0.015625,0.109375 -0.03125,0.234375 -0.03125,0.34375 0,0.578125 0.390625,0.984375 0.90625,0.984375 0.296875,0 0.578125,-0.15625 0.796875,-0.53125 0.25,-0.4375 0.359375,-0.984375 0.359375,-1 0,-0.109375 -0.09375,-0.109375 -0.125,-0.109375 -0.09375,0 -0.109375,0.046875 -0.140625,0.1875 -0.203125,0.71875 -0.421875,1.234375 -0.859375,1.234375 -0.203125,0 -0.328125,-0.109375 -0.328125,-0.46875 0,-0.171875 0.046875,-0.40625 0.078125,-0.5625 C 3.5625,-1.3125 3.5625,-1.34375 3.5625,-1.453125 3.5625,-2.09375 2.9375,-2.375 2.078125,-2.5 2.390625,-2.671875 2.71875,-2.984375 2.9375,-3.234375 3.421875,-3.765625 3.875,-4.1875 4.359375,-4.1875 c 0.0625,0 0.078125,0 0.09375,0.015625 0.125,0.015625 0.125,0.015625 0.21875,0.078125 0.015625,0 0.015625,0.015625 0.03125,0.03125 -0.46875,0.03125 -0.5625,0.421875 -0.5625,0.546875 0,0.15625 0.109375,0.34375 0.375,0.34375 0.265625,0 0.546875,-0.21875 0.546875,-0.609375 0,-0.296875 -0.234375,-0.625 -0.671875,-0.625 -0.28125,0 -0.734375,0.078125 -1.453125,0.875 -0.34375,0.375 -0.734375,0.78125 -1.109375,0.921875 z m 0,0"
             id="id-6746a4b7-bebb-4f56-87af-7cf46238dee2" />
        </g>
      </g>
      <g
         fill="#000000"
         fill-opacity="1"
         id="id-d67862a4-c5c3-4bf3-a5f7-0e92e9693c78"
         transform="translate(-262.399,-135.538)">
        <g
           transform="translate(329.764,149.419)"
           id="g4756">
          <path
             d="M 7.78125,-6.59375 C 7.796875,-6.625 7.828125,-6.6875 7.828125,-6.734375 7.828125,-6.796875 7.8125,-6.8125 7.59375,-6.8125 H 0.703125 c -0.21875,0 -0.234375,0.015625 -0.234375,0.078125 0,0.046875 0.03125,0.109375 0.046875,0.140625 L 3.875,0.140625 c 0.078125,0.125 0.109375,0.1875 0.265625,0.1875 0.171875,0 0.203125,-0.0625 0.28125,-0.1875 z m -6.078125,0.5 h 5.46875 l -2.71875,5.484375 z m 0,0"
             id="id-8c44d54f-5d3a-4f0c-a6a3-006f6da598dc" />
        </g>
      </g>
      <g
         fill="#000000"
         fill-opacity="1"
         id="id-7c98eb15-b29a-4b1b-b0cf-4d49a4cc05a0"
         transform="translate(-262.399,-135.538)">
        <g
           transform="translate(338.066,149.419)"
           id="g4760">
          <path
             d="m 4.25,-6.046875 c 0.078125,-0.28125 0.109375,-0.34375 0.234375,-0.375 0.09375,-0.015625 0.421875,-0.015625 0.625,-0.015625 1.015625,0 1.453125,0.03125 1.453125,0.8125 0,0.15625 -0.03125,0.546875 -0.078125,0.796875 0,0.046875 -0.03125,0.15625 -0.03125,0.1875 0,0.0625 0.03125,0.140625 0.125,0.140625 0.109375,0 0.125,-0.078125 0.15625,-0.234375 L 7,-6.46875 C 7.015625,-6.515625 7.015625,-6.609375 7.015625,-6.640625 7.015625,-6.75 6.921875,-6.75 6.75,-6.75 H 1.21875 c -0.234375,0 -0.25,0.015625 -0.328125,0.203125 l -0.59375,1.75 c 0,0.015625 -0.0625,0.15625 -0.0625,0.1875 0,0.046875 0.0625,0.109375 0.125,0.109375 0.09375,0 0.109375,-0.0625 0.171875,-0.21875 C 1.0625,-6.265625 1.328125,-6.4375 2.796875,-6.4375 H 3.1875 c 0.28125,0 0.28125,0.03125 0.28125,0.125 0,0.046875 -0.03125,0.171875 -0.046875,0.203125 L 2.09375,-0.78125 C 2,-0.421875 1.96875,-0.3125 0.90625,-0.3125 c -0.359375,0 -0.421875,0 -0.421875,0.1875 C 0.484375,0 0.59375,0 0.65625,0 c 0.265625,0 0.546875,-0.015625 0.8125,-0.015625 0.28125,0 0.578125,-0.015625 0.859375,-0.015625 0.28125,0 0.546875,0.015625 0.828125,0.015625 C 3.4375,-0.015625 3.734375,0 4.015625,0 c 0.09375,0 0.21875,0 0.21875,-0.203125 0,-0.109375 -0.078125,-0.109375 -0.34375,-0.109375 -0.234375,0 -0.375,0 -0.625,-0.015625 -0.296875,-0.03125 -0.375,-0.0625 -0.375,-0.21875 0,-0.015625 0,-0.0625 0.046875,-0.203125 z m 0,0"
             id="id-64e0856d-0fff-4852-ae8a-ece6f032fea2" />
        </g>
      </g>
      <g
         fill="#000000"
         fill-opacity="1"
         id="id-ececcd6b-8df4-4792-835f-7464f23a9151"
         transform="translate(-262.399,-135.538)">
        <g
           transform="translate(345.272,149.419)"
           id="g4764">
          <path
             d="m 2.875,-2.5 c 0,-0.765625 -0.109375,-1.96875 -0.65625,-3.109375 -0.59375,-1.21875 -1.453125,-1.875 -1.546875,-1.875 -0.0625,0 -0.109375,0.046875 -0.109375,0.109375 0,0.03125 0,0.046875 0.1875,0.234375 0.984375,0.984375 1.546875,2.5625 1.546875,4.640625 0,1.71875 -0.359375,3.46875 -1.59375,4.71875 C 0.5625,2.34375 0.5625,2.359375 0.5625,2.390625 0.5625,2.453125 0.609375,2.5 0.671875,2.5 0.765625,2.5 1.671875,1.8125 2.25,0.546875 2.765625,-0.546875 2.875,-1.65625 2.875,-2.5 Z m 0,0"
             id="id-3abb7d70-f45c-456d-8ad7-724fb7c5bbf0" />
        </g>
      </g>
    </g>
    <rect
       style="fill:#e6e6e6;fill-opacity:1;stroke-width:1.465;stroke-linecap:round;stroke-linejoin:round;paint-order:stroke fill markers"
       id="rect4842"
       width="57.67234"
       height="20.428829"
       x="60.125229"
       y="73.399582"
       rx="1.6964712"
       ry="1.6964712" />
    <text
       xml:space="preserve"
       style="font-size:4.23333px;line-height:1.25;font-family:'Open Sans';-inkscape-font-specification:'Open Sans';stroke-width:0.264583"
       x="78.061203"
       y="78.399429"
       id="text4846"><tspan
         sodipodi:role="line"
         id="tspan4844"
         style="font-weight:bold;stroke-width:0.264583"
         x="78.061203"
         y="78.399429">Integrator</tspan></text>
    <path
       style="fill:none;stroke:#000000;stroke-width:0.264583px;stroke-linecap:butt;stroke-linejoin:miter;stroke-opacity:1"
       d="M 60.125741,80.448674 H 117.8488"
       id="path4848" />
    <g
       transform="matrix(0.352778,0,0,0.352778,85.968917,84.970911)"
       ns7:version="1.8.2"
       ns7:texconverter="pdflatex"
       ns7:pdfconverter="inkscape"
       ns7:text="$$\\mathbf{u}, \\boldsymbol{\\varepsilon}, \\boldsymbol{\\varepsilon}_0, \\mathbf{b}$$"
       ns7:preamble="/home/brunnels/.config/inkscape/extensions/textext/default_packages.tex"
       ns7:scale="1.0"
       ns7:alignment="middle center"
       ns7:stroke-to-path="0"
       ns7:jacobian_sqrt="0.352778"
       id="g5082">
      <defs
         id="id-ed862d0a-f01c-4e6f-93cc-9c7683abd867">
        <g
           id="id-38c6c07d-cc8b-424a-adc9-3deac37e4cd2">
          <g
             id="id-a31b2d1b-a47b-4745-a994-c876b23097bc">
            <path
               d="M 4.359375,-0.71875 V 0.0625 L 6.125,0 v -0.46875 c -0.609375,0 -0.6875,0 -0.6875,-0.390625 v -3.625 L 3.625,-4.40625 v 0.46875 c 0.609375,0 0.6875,0 0.6875,0.390625 v 1.90625 c 0,0.8125 -0.515625,1.34375 -1.234375,1.34375 -0.78125,0 -0.8125,-0.25 -0.8125,-0.796875 v -3.390625 l -1.8125,0.078125 v 0.46875 c 0.609375,0 0.6875,0 0.6875,0.390625 v 2.328125 c 0,1.0625 0.796875,1.28125 1.796875,1.28125 0.25,0 0.96875,0 1.421875,-0.78125 z m 0,0"
               id="id-891f62d9-d540-468c-b36f-55e61e1c4f4a" />
          </g>
          <g
             id="id-89f6b74e-6ae4-4545-b450-ad7abdbb6bcf">
            <path
               d="M 2.140625,-4 V -6.921875 L 0.375,-6.84375 V -6.375 c 0.609375,0 0.6875,0 0.6875,0.390625 V 0 h 0.46875 l 0.484375,-0.5625 c 0.078125,0.078125 0.5625,0.625 1.453125,0.625 1.484375,0 2.515625,-0.90625 2.515625,-2.28125 0,-1.328125 -0.9375,-2.265625 -2.390625,-2.265625 C 2.875,-4.484375 2.375,-4.203125 2.140625,-4 Z M 2.1875,-0.984375 v -2.5 C 2.46875,-3.84375 2.9375,-4.125 3.484375,-4.125 c 1.21875,0 1.21875,1.203125 1.21875,1.90625 0,0.46875 0,1.015625 -0.25,1.40625 -0.296875,0.40625 -0.75,0.515625 -1.078125,0.515625 -0.6875,0 -1.078125,-0.546875 -1.1875,-0.6875 z m 0,0"
               id="id-e82ef49e-786c-4532-bcb9-d0c49329a50d" />
          </g>
          <g
             id="id-c41145bd-88eb-439b-a283-dc985c2b38ef">
            <path
               d="m 2.03125,-0.015625 c 0,-0.65625 -0.25,-1.046875 -0.640625,-1.046875 -0.328125,0 -0.53125,0.25 -0.53125,0.53125 C 0.859375,-0.265625 1.0625,0 1.390625,0 1.5,0 1.640625,-0.046875 1.734375,-0.125 1.765625,-0.15625 1.78125,-0.15625 1.78125,-0.15625 c 0.015625,0 0.015625,0 0.015625,0.140625 0,0.75 -0.34375,1.34375 -0.671875,1.671875 -0.109375,0.109375 -0.109375,0.125 -0.109375,0.15625 0,0.078125 0.046875,0.109375 0.09375,0.109375 0.109375,0 0.921875,-0.765625 0.921875,-1.9375 z m 0,0"
               id="id-6613f9b1-508a-437d-95eb-fb9fe573cfca" />
          </g>
          <g
             id="id-ff0bfb1e-1d9f-40d5-8951-ff1cb51bb8f5">
            <path
               d="M 4.109375,-1.078125 C 3.875,-0.625 3.265625,-0.59375 2.40625,-0.59375 c -0.625,0 -1.5625,0 -1.5625,-0.65625 0,-0.203125 0.140625,-0.578125 0.484375,-0.84375 C 1.75,-1.875 2.28125,-1.875 2.46875,-1.875 c 0.265625,0 1.015625,0 1.015625,-0.546875 0,-0.40625 -0.53125,-0.40625 -0.84375,-0.40625 -0.203125,0 -0.734375,0 -1.265625,0.25 C 1.296875,-2.6875 1.25,-2.828125 1.25,-2.9375 c 0,-0.546875 0.6875,-0.90625 1.875,-0.90625 0.28125,0 0.59375,0 1.015625,0.3125 0.09375,0.046875 0.15625,0.078125 0.21875,0.078125 0.21875,0 0.453125,-0.21875 0.453125,-0.453125 0,-0.1875 -0.15625,-0.3125 -0.53125,-0.484375 C 3.84375,-4.59375 3.46875,-4.59375 3.3125,-4.59375 c -1.703125,0 -2.53125,0.953125 -2.53125,1.65625 0,0.3125 0.15625,0.515625 0.21875,0.578125 -0.40625,0.34375 -0.65625,0.75 -0.65625,1.234375 0,0.6875 0.546875,1.296875 1.890625,1.296875 1.625,0 2.140625,-0.953125 2.140625,-1.109375 0,-0.09375 -0.0625,-0.171875 -0.171875,-0.171875 -0.046875,0 -0.09375,0.03125 -0.09375,0.03125 z M 1.765625,-2.34375 c 0.359375,-0.125 0.734375,-0.125 0.84375,-0.125 0.265625,0 0.296875,0 0.40625,0.046875 -0.03125,0.125 -0.0625,0.1875 -0.546875,0.1875 -0.171875,0 -0.421875,0 -0.703125,-0.109375 z m 0,0"
               id="id-59b584c6-7f29-46b5-ae74-85ee3604f5d4" />
          </g>
          <g
             id="id-a61a127f-ea90-4b25-b7c7-b44673bfb1af">
            <path
               d="M 3.59375,-2.21875 C 3.59375,-2.984375 3.5,-3.546875 3.1875,-4.03125 2.96875,-4.34375 2.53125,-4.625 1.984375,-4.625 c -1.625,0 -1.625,1.90625 -1.625,2.40625 0,0.5 0,2.359375 1.625,2.359375 1.609375,0 1.609375,-1.859375 1.609375,-2.359375 z M 1.984375,-0.0625 c -0.328125,0 -0.75,-0.1875 -0.890625,-0.75 C 1,-1.21875 1,-1.796875 1,-2.3125 1,-2.828125 1,-3.359375 1.09375,-3.734375 1.25,-4.28125 1.6875,-4.4375 1.984375,-4.4375 c 0.375,0 0.734375,0.234375 0.859375,0.640625 0.109375,0.375 0.125,0.875 0.125,1.484375 0,0.515625 0,1.03125 -0.09375,1.46875 -0.140625,0.640625 -0.609375,0.78125 -0.890625,0.78125 z m 0,0"
               id="id-8afa5d36-ee07-4d1c-918f-88a415f038f3" />
          </g>
        </g>
      </defs>
      <g
         fill="#000000"
         fill-opacity="1"
         id="id-98e4e35a-58b5-4e51-b9bf-dae082d940bf"
         transform="translate(-285.567,-139.798)">
        <g
           transform="translate(285.114,146.72)"
           id="g5592">
          <path
             d="M 4.359375,-0.71875 V 0.0625 L 6.125,0 v -0.46875 c -0.609375,0 -0.6875,0 -0.6875,-0.390625 v -3.625 L 3.625,-4.40625 v 0.46875 c 0.609375,0 0.6875,0 0.6875,0.390625 v 1.90625 c 0,0.8125 -0.515625,1.34375 -1.234375,1.34375 -0.78125,0 -0.8125,-0.25 -0.8125,-0.796875 v -3.390625 l -1.8125,0.078125 v 0.46875 c 0.609375,0 0.6875,0 0.6875,0.390625 v 2.328125 c 0,1.0625 0.796875,1.28125 1.796875,1.28125 0.25,0 0.96875,0 1.421875,-0.78125 z m 0,0"
             id="id-e1ec82ec-9fca-4d93-97fd-3c602e28d80b" />
        </g>
      </g>
      <g
         fill="#000000"
         fill-opacity="1"
         id="id-02571d57-9f16-464f-a398-e9c7b055fb89"
         transform="translate(-285.567,-139.798)">
        <g
           transform="translate(291.479,146.72)"
           id="g5596">
          <path
             d="m 2.03125,-0.015625 c 0,-0.65625 -0.25,-1.046875 -0.640625,-1.046875 -0.328125,0 -0.53125,0.25 -0.53125,0.53125 C 0.859375,-0.265625 1.0625,0 1.390625,0 1.5,0 1.640625,-0.046875 1.734375,-0.125 1.765625,-0.15625 1.78125,-0.15625 1.78125,-0.15625 c 0.015625,0 0.015625,0 0.015625,0.140625 0,0.75 -0.34375,1.34375 -0.671875,1.671875 -0.109375,0.109375 -0.109375,0.125 -0.109375,0.15625 0,0.078125 0.046875,0.109375 0.09375,0.109375 0.109375,0 0.921875,-0.765625 0.921875,-1.9375 z m 0,0"
             id="id-e8455173-841c-4be4-9a90-f0c5db4b4b8a" />
        </g>
      </g>
      <g
         fill="#000000"
         fill-opacity="1"
         id="id-7727ce85-b831-4511-a422-7908a58f6b09"
         transform="translate(-285.567,-139.798)">
        <g
           transform="translate(295.907,146.72)"
           id="g5600">
          <path
             d="M 4.109375,-1.078125 C 3.875,-0.625 3.265625,-0.59375 2.40625,-0.59375 c -0.625,0 -1.5625,0 -1.5625,-0.65625 0,-0.203125 0.140625,-0.578125 0.484375,-0.84375 C 1.75,-1.875 2.28125,-1.875 2.46875,-1.875 c 0.265625,0 1.015625,0 1.015625,-0.546875 0,-0.40625 -0.53125,-0.40625 -0.84375,-0.40625 -0.203125,0 -0.734375,0 -1.265625,0.25 C 1.296875,-2.6875 1.25,-2.828125 1.25,-2.9375 c 0,-0.546875 0.6875,-0.90625 1.875,-0.90625 0.28125,0 0.59375,0 1.015625,0.3125 0.09375,0.046875 0.15625,0.078125 0.21875,0.078125 0.21875,0 0.453125,-0.21875 0.453125,-0.453125 0,-0.1875 -0.15625,-0.3125 -0.53125,-0.484375 C 3.84375,-4.59375 3.46875,-4.59375 3.3125,-4.59375 c -1.703125,0 -2.53125,0.953125 -2.53125,1.65625 0,0.3125 0.15625,0.515625 0.21875,0.578125 -0.40625,0.34375 -0.65625,0.75 -0.65625,1.234375 0,0.6875 0.546875,1.296875 1.890625,1.296875 1.625,0 2.140625,-0.953125 2.140625,-1.109375 0,-0.09375 -0.0625,-0.171875 -0.171875,-0.171875 -0.046875,0 -0.09375,0.03125 -0.09375,0.03125 z M 1.765625,-2.34375 c 0.359375,-0.125 0.734375,-0.125 0.84375,-0.125 0.265625,0 0.296875,0 0.40625,0.046875 -0.03125,0.125 -0.0625,0.1875 -0.546875,0.1875 -0.171875,0 -0.421875,0 -0.703125,-0.109375 z m 0,0"
             id="id-a0ed7808-58e3-4192-bcf4-bdec89684f7a" />
        </g>
      </g>
      <g
         fill="#000000"
         fill-opacity="1"
         id="id-813a9776-fe54-47dd-9123-b8a29f5df013"
         transform="translate(-285.567,-139.798)">
        <g
           transform="translate(301.175,146.72)"
           id="g5604">
          <path
             d="m 2.03125,-0.015625 c 0,-0.65625 -0.25,-1.046875 -0.640625,-1.046875 -0.328125,0 -0.53125,0.25 -0.53125,0.53125 C 0.859375,-0.265625 1.0625,0 1.390625,0 1.5,0 1.640625,-0.046875 1.734375,-0.125 1.765625,-0.15625 1.78125,-0.15625 1.78125,-0.15625 c 0.015625,0 0.015625,0 0.015625,0.140625 0,0.75 -0.34375,1.34375 -0.671875,1.671875 -0.109375,0.109375 -0.109375,0.125 -0.109375,0.15625 0,0.078125 0.046875,0.109375 0.09375,0.109375 0.109375,0 0.921875,-0.765625 0.921875,-1.9375 z m 0,0"
             id="id-60013f14-cbe2-455f-9f45-8c4b31795f43" />
        </g>
      </g>
      <g
         fill="#000000"
         fill-opacity="1"
         id="id-70effc8e-5c40-4564-8312-eec452f40f6f"
         transform="translate(-285.567,-139.798)">
        <g
           transform="translate(305.603,146.72)"
           id="g5608">
          <path
             d="M 4.109375,-1.078125 C 3.875,-0.625 3.265625,-0.59375 2.40625,-0.59375 c -0.625,0 -1.5625,0 -1.5625,-0.65625 0,-0.203125 0.140625,-0.578125 0.484375,-0.84375 C 1.75,-1.875 2.28125,-1.875 2.46875,-1.875 c 0.265625,0 1.015625,0 1.015625,-0.546875 0,-0.40625 -0.53125,-0.40625 -0.84375,-0.40625 -0.203125,0 -0.734375,0 -1.265625,0.25 C 1.296875,-2.6875 1.25,-2.828125 1.25,-2.9375 c 0,-0.546875 0.6875,-0.90625 1.875,-0.90625 0.28125,0 0.59375,0 1.015625,0.3125 0.09375,0.046875 0.15625,0.078125 0.21875,0.078125 0.21875,0 0.453125,-0.21875 0.453125,-0.453125 0,-0.1875 -0.15625,-0.3125 -0.53125,-0.484375 C 3.84375,-4.59375 3.46875,-4.59375 3.3125,-4.59375 c -1.703125,0 -2.53125,0.953125 -2.53125,1.65625 0,0.3125 0.15625,0.515625 0.21875,0.578125 -0.40625,0.34375 -0.65625,0.75 -0.65625,1.234375 0,0.6875 0.546875,1.296875 1.890625,1.296875 1.625,0 2.140625,-0.953125 2.140625,-1.109375 0,-0.09375 -0.0625,-0.171875 -0.171875,-0.171875 -0.046875,0 -0.09375,0.03125 -0.09375,0.03125 z M 1.765625,-2.34375 c 0.359375,-0.125 0.734375,-0.125 0.84375,-0.125 0.265625,0 0.296875,0 0.40625,0.046875 -0.03125,0.125 -0.0625,0.1875 -0.546875,0.1875 -0.171875,0 -0.421875,0 -0.703125,-0.109375 z m 0,0"
             id="id-d426d28a-16c2-462e-a949-822156e607dc" />
        </g>
      </g>
      <g
         fill="#000000"
         fill-opacity="1"
         id="id-2427001f-ff48-4b65-bef0-b5895907d389"
         transform="translate(-285.567,-139.798)">
        <g
           transform="translate(310.872,148.214)"
           id="g5612">
          <path
             d="M 3.59375,-2.21875 C 3.59375,-2.984375 3.5,-3.546875 3.1875,-4.03125 2.96875,-4.34375 2.53125,-4.625 1.984375,-4.625 c -1.625,0 -1.625,1.90625 -1.625,2.40625 0,0.5 0,2.359375 1.625,2.359375 1.609375,0 1.609375,-1.859375 1.609375,-2.359375 z M 1.984375,-0.0625 c -0.328125,0 -0.75,-0.1875 -0.890625,-0.75 C 1,-1.21875 1,-1.796875 1,-2.3125 1,-2.828125 1,-3.359375 1.09375,-3.734375 1.25,-4.28125 1.6875,-4.4375 1.984375,-4.4375 c 0.375,0 0.734375,0.234375 0.859375,0.640625 0.109375,0.375 0.125,0.875 0.125,1.484375 0,0.515625 0,1.03125 -0.09375,1.46875 -0.140625,0.640625 -0.609375,0.78125 -0.890625,0.78125 z m 0,0"
             id="id-76773ed7-fdfe-4b84-9573-8f44d5c7369a" />
        </g>
      </g>
      <g
         fill="#000000"
         fill-opacity="1"
         id="id-25aa03b6-e725-4324-b51f-fff0cee66c1a"
         transform="translate(-285.567,-139.798)">
        <g
           transform="translate(315.341,146.72)"
           id="g5616">
          <path
             d="m 2.03125,-0.015625 c 0,-0.65625 -0.25,-1.046875 -0.640625,-1.046875 -0.328125,0 -0.53125,0.25 -0.53125,0.53125 C 0.859375,-0.265625 1.0625,0 1.390625,0 1.5,0 1.640625,-0.046875 1.734375,-0.125 1.765625,-0.15625 1.78125,-0.15625 1.78125,-0.15625 c 0.015625,0 0.015625,0 0.015625,0.140625 0,0.75 -0.34375,1.34375 -0.671875,1.671875 -0.109375,0.109375 -0.109375,0.125 -0.109375,0.15625 0,0.078125 0.046875,0.109375 0.09375,0.109375 0.109375,0 0.921875,-0.765625 0.921875,-1.9375 z m 0,0"
             id="id-a4a1a2d1-e723-4243-9760-4cda79147ef1" />
        </g>
      </g>
      <g
         fill="#000000"
         fill-opacity="1"
         id="id-33cc13fb-4bd1-4115-88a8-ca3043a0725c"
         transform="translate(-285.567,-139.798)">
        <g
           transform="translate(319.769,146.72)"
           id="g5620">
          <path
             d="M 2.140625,-4 V -6.921875 L 0.375,-6.84375 V -6.375 c 0.609375,0 0.6875,0 0.6875,0.390625 V 0 h 0.46875 l 0.484375,-0.5625 c 0.078125,0.078125 0.5625,0.625 1.453125,0.625 1.484375,0 2.515625,-0.90625 2.515625,-2.28125 0,-1.328125 -0.9375,-2.265625 -2.390625,-2.265625 C 2.875,-4.484375 2.375,-4.203125 2.140625,-4 Z M 2.1875,-0.984375 v -2.5 C 2.46875,-3.84375 2.9375,-4.125 3.484375,-4.125 c 1.21875,0 1.21875,1.203125 1.21875,1.90625 0,0.46875 0,1.015625 -0.25,1.40625 -0.296875,0.40625 -0.75,0.515625 -1.078125,0.515625 -0.6875,0 -1.078125,-0.546875 -1.1875,-0.6875 z m 0,0"
             id="id-f7aad988-1fd4-49f0-a638-4215145f3f31" />
        </g>
      </g>
    </g>
    <g
       transform="matrix(0.352778,0,0,0.352778,100.02508,84.971109)"
       ns7:version="1.8.2"
       ns7:texconverter="pdflatex"
       ns7:pdfconverter="inkscape"
       ns7:text="$$T$$"
       ns7:preamble="/home/brunnels/.config/inkscape/extensions/textext/default_packages.tex"
       ns7:scale="1.0"
       ns7:alignment="middle center"
       ns7:stroke-to-path="0"
       ns7:jacobian_sqrt="0.352778"
       id="g5735">
      <defs
         id="id-18f1c22d-e2c0-4312-a62d-20b8a443826d">
        <g
           id="id-2f2a1d36-63e9-49f2-87bc-61dce09c8a0c">
          <g
             id="id-663ed1f1-b3a6-4449-9a1f-7fa7b28c37b0">
            <path
               d="m 4.25,-6.046875 c 0.078125,-0.28125 0.109375,-0.34375 0.234375,-0.375 0.09375,-0.015625 0.421875,-0.015625 0.625,-0.015625 1.015625,0 1.453125,0.03125 1.453125,0.8125 0,0.15625 -0.03125,0.546875 -0.078125,0.796875 0,0.046875 -0.03125,0.15625 -0.03125,0.1875 0,0.0625 0.03125,0.140625 0.125,0.140625 0.109375,0 0.125,-0.078125 0.15625,-0.234375 L 7,-6.46875 C 7.015625,-6.515625 7.015625,-6.609375 7.015625,-6.640625 7.015625,-6.75 6.921875,-6.75 6.75,-6.75 H 1.21875 c -0.234375,0 -0.25,0.015625 -0.328125,0.203125 l -0.59375,1.75 c 0,0.015625 -0.0625,0.15625 -0.0625,0.1875 0,0.046875 0.0625,0.109375 0.125,0.109375 0.09375,0 0.109375,-0.0625 0.171875,-0.21875 C 1.0625,-6.265625 1.328125,-6.4375 2.796875,-6.4375 H 3.1875 c 0.28125,0 0.28125,0.03125 0.28125,0.125 0,0.046875 -0.03125,0.171875 -0.046875,0.203125 L 2.09375,-0.78125 C 2,-0.421875 1.96875,-0.3125 0.90625,-0.3125 c -0.359375,0 -0.421875,0 -0.421875,0.1875 C 0.484375,0 0.59375,0 0.65625,0 c 0.265625,0 0.546875,-0.015625 0.8125,-0.015625 0.28125,0 0.578125,-0.015625 0.859375,-0.015625 0.28125,0 0.546875,0.015625 0.828125,0.015625 C 3.4375,-0.015625 3.734375,0 4.015625,0 c 0.09375,0 0.21875,0 0.21875,-0.203125 0,-0.109375 -0.078125,-0.109375 -0.34375,-0.109375 -0.234375,0 -0.375,0 -0.625,-0.015625 -0.296875,-0.03125 -0.375,-0.0625 -0.375,-0.21875 0,-0.015625 0,-0.0625 0.046875,-0.203125 z m 0,0"
               id="id-442eb9a7-4d9e-4635-a84f-504a36494bb3" />
          </g>
        </g>
      </defs>
      <g
         fill="#000000"
         fill-opacity="1"
         id="id-38f8fc18-5047-4233-9a9d-32b5a92debe2"
         transform="translate(-302.255,-139.97)">
        <g
           transform="translate(302.021,146.72)"
           id="g6269">
          <path
             d="m 23.161066,-6.046875 c 0.07813,-0.28125 0.109375,-0.34375 0.234375,-0.375 0.09375,-0.015625 0.421875,-0.015625 0.625,-0.015625 1.015625,0 1.453125,0.03125 1.453125,0.8125 0,0.15625 -0.03125,0.546875 -0.07813,0.796875 0,0.046875 -0.03125,0.15625 -0.03125,0.1875 0,0.0625 0.03125,0.140625 0.125,0.140625 0.109375,0 0.125,-0.078125 0.15625,-0.234375 l 0.265625,-1.734375 c 0.01563,-0.046875 0.01563,-0.140625 0.01563,-0.171875 C 25.926691,-6.75 25.832941,-6.75 25.661066,-6.75 h -5.53125 c -0.234375,0 -0.25,0.015625 -0.328125,0.203125 l -0.59375,1.75 c 0,0.015625 -0.0625,0.15625 -0.0625,0.1875 0,0.046875 0.0625,0.109375 0.125,0.109375 0.09375,0 0.109375,-0.0625 0.171875,-0.21875 0.53125,-1.546875 0.796875,-1.71875 2.265625,-1.71875 h 0.390625 c 0.28125,0 0.28125,0.03125 0.28125,0.125 0,0.046875 -0.03125,0.171875 -0.04687,0.203125 l -1.328125,5.328125 c -0.09375,0.359375 -0.125,0.46875 -1.1875,0.46875 -0.359375,0 -0.421875,0 -0.421875,0.1875 0,0.125 0.109375,0.125 0.171875,0.125 0.265625,0 0.546875,-0.015625 0.8125,-0.015625 0.28125,0 0.578125,-0.015625 0.859375,-0.015625 0.28125,0 0.546875,0.015625 0.828125,0.015625 0.28125,0 0.578125,0.015625 0.859375,0.015625 0.09375,0 0.21875,0 0.21875,-0.203125 0,-0.109375 -0.07813,-0.109375 -0.34375,-0.109375 -0.234375,0 -0.375,0 -0.625,-0.015625 -0.296875,-0.03125 -0.375,-0.0625 -0.375,-0.21875 0,-0.015625 0,-0.0625 0.04687,-0.203125 z m 0,0"
             id="id-5e992971-8f2f-4fd0-9431-1a21fefd2175" />
        </g>
      </g>
    </g>
    <path
       style="fill:none;stroke:#000000;stroke-width:0.264583px;stroke-linecap:butt;stroke-linejoin:miter;stroke-opacity:1;marker-end:url(#Arrow2)"
       d="M 107.98925,30.303571 118.1274,40.441729"
       id="path6401" />
    <path
       style="fill:none;stroke:#000000;stroke-width:0.264583px;stroke-linecap:butt;stroke-linejoin:miter;stroke-opacity:1;marker-end:url(#Arrow2)"
       d="M 66.871215,30.303571 56.733065,40.441729"
       id="path6628" />
    <path
       style="fill:none;stroke:#000000;stroke-width:0.264583px;stroke-linecap:butt;stroke-linejoin:miter;stroke-opacity:1;marker-end:url(#Arrow2)"
       d="m 55.240296,62.0665 10.13815,10.138158"
       id="path6638" />
    <path
       style="fill:none;stroke:#000000;stroke-width:0.264583px;stroke-linecap:butt;stroke-linejoin:miter;stroke-opacity:1;marker-end:url(#Arrow2)"
       d="M 119.50006,62.238629 109.36191,72.376787"
       id="path6640" />
    <text
       xml:space="preserve"
       style="font-size:4.23333px;line-height:1.25;font-family:'Open Sans';-inkscape-font-specification:'Open Sans';stroke-width:0.264583"
       x="66.060738"
       y="87.481705"
       id="text6650"><tspan
         sodipodi:role="line"
         id="tspan6648"
         style="stroke-width:0.264583"
         x="66.060738"
         y="87.481705">Manage:</tspan></text>
    <text
       xml:space="preserve"
       style="font-size:4.23333px;line-height:1.25;font-family:'Open Sans';-inkscape-font-specification:'Open Sans';stroke-width:0.264583"
       x="93.176483"
       y="57.189644"
       id="text6654"><tspan
         sodipodi:role="line"
         id="tspan6652"
         style="stroke-width:0.264583"
         x="93.176483"
         y="57.189644">Solve:</tspan></text>
    <text
       xml:space="preserve"
       style="font-size:4.23333px;line-height:1.25;font-family:'Open Sans';-inkscape-font-specification:'Open Sans';stroke-width:0.264583"
       x="30.720219"
       y="57.189644"
       id="text6658"><tspan
         sodipodi:role="line"
         id="tspan6656"
         style="stroke-width:0.264583"
         x="30.720219"
         y="57.189644">Solve:</tspan></text>
    <text
       xml:space="preserve"
       style="font-size:4.23333px;line-height:1.25;font-family:'Open Sans';-inkscape-font-specification:'Open Sans';stroke-width:0.264583"
       x="63.321049"
       y="24.36569"
       id="text6662"><tspan
         sodipodi:role="line"
         id="tspan6660"
         style="stroke-width:0.264583"
         x="63.321049"
         y="24.36569">Solve:</tspan></text>
  </g>
</svg>
